<?xml version="1.0" encoding="utf-8" standalone="no"?>
<!DOCTYPE svg PUBLIC "-//W3C//DTD SVG 1.1//EN"
  "http://www.w3.org/Graphics/SVG/1.1/DTD/svg11.dtd">
<svg xmlns:xlink="http://www.w3.org/1999/xlink" width="854.889952pt" height="351.91123pt" viewBox="0 0 854.889952 351.91123" xmlns="http://www.w3.org/2000/svg" version="1.1">
 <metadata>
  <rdf:RDF xmlns:dc="http://purl.org/dc/elements/1.1/" xmlns:cc="http://creativecommons.org/ns#" xmlns:rdf="http://www.w3.org/1999/02/22-rdf-syntax-ns#">
   <cc:Work>
    <dc:type rdf:resource="http://purl.org/dc/dcmitype/StillImage"/>
    <dc:date>2026-01-03T19:26:45.978955</dc:date>
    <dc:format>image/svg+xml</dc:format>
    <dc:creator>
     <cc:Agent>
      <dc:title>Matplotlib v3.10.8, https://matplotlib.org/</dc:title>
     </cc:Agent>
    </dc:creator>
   </cc:Work>
  </rdf:RDF>
 </metadata>
 <defs>
  <style type="text/css">*{stroke-linejoin: round; stroke-linecap: butt}</style>
 </defs>
 <g id="figure_1">
  <g id="patch_1">
   <path d="M 0 351.91123 
L 854.889952 351.91123 
L 854.889952 0 
L 0 0 
z
" style="fill: #ffffff"/>
  </g>
  <g id="axes_1">
   <g id="patch_2">
    <path d="M 49.884375 315.919355 
L 405.250282 315.919355 
L 405.250282 27.172411 
L 49.884375 27.172411 
z
" style="fill: #ffffff"/>
   </g>
   <g id="matplotlib.axis_1">
    <g id="xtick_1">
     <g id="line2d_1">
      <path d="M 63.493592 315.919355 
L 63.493592 27.172411 
" clip-path="url(#pa5bc246778)" style="fill: none; stroke: #cccccc; stroke-width: 0.8; stroke-linecap: round"/>
     </g>
     <g id="line2d_2"/>
     <g id="text_1">
      <!-- 0 -->
      <g style="fill: #262626" transform="translate(60.312342 327.017793) scale(0.1 -0.1)">
       <defs>
        <path id="DejaVuSerif-30" d="M 2034 219 
Q 2513 219 2750 744 
Q 2988 1269 2988 2328 
Q 2988 3391 2750 3916 
Q 2513 4441 2034 4441 
Q 1556 4441 1318 3916 
Q 1081 3391 1081 2328 
Q 1081 1269 1318 744 
Q 1556 219 2034 219 
z
M 2034 -91 
Q 1275 -91 848 546 
Q 422 1184 422 2328 
Q 422 3475 848 4112 
Q 1275 4750 2034 4750 
Q 2797 4750 3222 4112 
Q 3647 3475 3647 2328 
Q 3647 1184 3222 546 
Q 2797 -91 2034 -91 
z
" transform="scale(0.015625)"/>
       </defs>
       <use xlink:href="#DejaVuSerif-30"/>
      </g>
     </g>
    </g>
    <g id="xtick_2">
     <g id="line2d_3">
      <path d="M 114.369169 315.919355 
L 114.369169 27.172411 
" clip-path="url(#pa5bc246778)" style="fill: none; stroke: #cccccc; stroke-width: 0.8; stroke-linecap: round"/>
     </g>
     <g id="line2d_4"/>
     <g id="text_2">
      <!-- 20 -->
      <g style="fill: #262626" transform="translate(108.006669 327.017793) scale(0.1 -0.1)">
       <defs>
        <path id="DejaVuSerif-32" d="M 819 3553 
L 469 3553 
L 469 4384 
Q 803 4563 1142 4656 
Q 1481 4750 1806 4750 
Q 2534 4750 2956 4397 
Q 3378 4044 3378 3438 
Q 3378 2753 2422 1800 
Q 2347 1728 2309 1691 
L 1131 513 
L 3078 513 
L 3078 1088 
L 3444 1088 
L 3444 0 
L 434 0 
L 434 341 
L 1850 1753 
Q 2319 2222 2519 2614 
Q 2719 3006 2719 3438 
Q 2719 3909 2473 4175 
Q 2228 4441 1797 4441 
Q 1350 4441 1106 4219 
Q 863 3997 819 3553 
z
" transform="scale(0.015625)"/>
       </defs>
       <use xlink:href="#DejaVuSerif-32"/>
       <use xlink:href="#DejaVuSerif-30" transform="translate(63.623047 0)"/>
      </g>
     </g>
    </g>
    <g id="xtick_3">
     <g id="line2d_5">
      <path d="M 165.244746 315.919355 
L 165.244746 27.172411 
" clip-path="url(#pa5bc246778)" style="fill: none; stroke: #cccccc; stroke-width: 0.8; stroke-linecap: round"/>
     </g>
     <g id="line2d_6"/>
     <g id="text_3">
      <!-- 40 -->
      <g style="fill: #262626" transform="translate(158.882246 327.017793) scale(0.1 -0.1)">
       <defs>
        <path id="DejaVuSerif-34" d="M 2234 1581 
L 2234 4063 
L 641 1581 
L 2234 1581 
z
M 3609 0 
L 1484 0 
L 1484 331 
L 2234 331 
L 2234 1247 
L 197 1247 
L 197 1588 
L 2241 4750 
L 2859 4750 
L 2859 1581 
L 3750 1581 
L 3750 1247 
L 2859 1247 
L 2859 331 
L 3609 331 
L 3609 0 
z
" transform="scale(0.015625)"/>
       </defs>
       <use xlink:href="#DejaVuSerif-34"/>
       <use xlink:href="#DejaVuSerif-30" transform="translate(63.623047 0)"/>
      </g>
     </g>
    </g>
    <g id="xtick_4">
     <g id="line2d_7">
      <path d="M 216.120324 315.919355 
L 216.120324 27.172411 
" clip-path="url(#pa5bc246778)" style="fill: none; stroke: #cccccc; stroke-width: 0.8; stroke-linecap: round"/>
     </g>
     <g id="line2d_8"/>
     <g id="text_4">
      <!-- 60 -->
      <g style="fill: #262626" transform="translate(209.757824 327.017793) scale(0.1 -0.1)">
       <defs>
        <path id="DejaVuSerif-36" d="M 2094 219 
Q 2534 219 2771 542 
Q 3009 866 3009 1472 
Q 3009 2078 2771 2401 
Q 2534 2725 2094 2725 
Q 1647 2725 1412 2412 
Q 1178 2100 1178 1509 
Q 1178 888 1415 553 
Q 1653 219 2094 219 
z
M 1075 2569 
Q 1288 2803 1556 2918 
Q 1825 3034 2163 3034 
Q 2859 3034 3264 2615 
Q 3669 2197 3669 1472 
Q 3669 763 3233 336 
Q 2797 -91 2069 -91 
Q 1278 -91 853 498 
Q 428 1088 428 2181 
Q 428 3406 931 4078 
Q 1434 4750 2350 4750 
Q 2597 4750 2869 4703 
Q 3141 4656 3425 4563 
L 3425 3794 
L 3072 3794 
Q 3034 4109 2831 4275 
Q 2628 4441 2284 4441 
Q 1678 4441 1381 3981 
Q 1084 3522 1075 2569 
z
" transform="scale(0.015625)"/>
       </defs>
       <use xlink:href="#DejaVuSerif-36"/>
       <use xlink:href="#DejaVuSerif-30" transform="translate(63.623047 0)"/>
      </g>
     </g>
    </g>
    <g id="xtick_5">
     <g id="line2d_9">
      <path d="M 266.995901 315.919355 
L 266.995901 27.172411 
" clip-path="url(#pa5bc246778)" style="fill: none; stroke: #cccccc; stroke-width: 0.8; stroke-linecap: round"/>
     </g>
     <g id="line2d_10"/>
     <g id="text_5">
      <!-- 80 -->
      <g style="fill: #262626" transform="translate(260.633401 327.017793) scale(0.1 -0.1)">
       <defs>
        <path id="DejaVuSerif-38" d="M 2981 1275 
Q 2981 1775 2732 2051 
Q 2484 2328 2034 2328 
Q 1584 2328 1336 2051 
Q 1088 1775 1088 1275 
Q 1088 772 1336 495 
Q 1584 219 2034 219 
Q 2484 219 2732 495 
Q 2981 772 2981 1275 
z
M 2853 3541 
Q 2853 3966 2637 4203 
Q 2422 4441 2034 4441 
Q 1650 4441 1433 4203 
Q 1216 3966 1216 3541 
Q 1216 3113 1433 2875 
Q 1650 2638 2034 2638 
Q 2422 2638 2637 2875 
Q 2853 3113 2853 3541 
z
M 2516 2484 
Q 3047 2413 3344 2092 
Q 3641 1772 3641 1275 
Q 3641 619 3225 264 
Q 2809 -91 2034 -91 
Q 1263 -91 845 264 
Q 428 619 428 1275 
Q 428 1772 725 2092 
Q 1022 2413 1556 2484 
Q 1084 2569 832 2842 
Q 581 3116 581 3541 
Q 581 4103 968 4426 
Q 1356 4750 2034 4750 
Q 2713 4750 3100 4426 
Q 3488 4103 3488 3541 
Q 3488 3116 3236 2842 
Q 2984 2569 2516 2484 
z
" transform="scale(0.015625)"/>
       </defs>
       <use xlink:href="#DejaVuSerif-38"/>
       <use xlink:href="#DejaVuSerif-30" transform="translate(63.623047 0)"/>
      </g>
     </g>
    </g>
    <g id="xtick_6">
     <g id="line2d_11">
      <path d="M 317.871478 315.919355 
L 317.871478 27.172411 
" clip-path="url(#pa5bc246778)" style="fill: none; stroke: #cccccc; stroke-width: 0.8; stroke-linecap: round"/>
     </g>
     <g id="line2d_12"/>
     <g id="text_6">
      <!-- 100 -->
      <g style="fill: #262626" transform="translate(308.327728 327.017793) scale(0.1 -0.1)">
       <defs>
        <path id="DejaVuSerif-31" d="M 909 0 
L 909 331 
L 1722 331 
L 1722 4213 
L 781 3603 
L 781 4013 
L 1919 4750 
L 2350 4750 
L 2350 331 
L 3163 331 
L 3163 0 
L 909 0 
z
" transform="scale(0.015625)"/>
       </defs>
       <use xlink:href="#DejaVuSerif-31"/>
       <use xlink:href="#DejaVuSerif-30" transform="translate(63.623047 0)"/>
       <use xlink:href="#DejaVuSerif-30" transform="translate(127.246094 0)"/>
      </g>
     </g>
    </g>
    <g id="xtick_7">
     <g id="line2d_13">
      <path d="M 368.747055 315.919355 
L 368.747055 27.172411 
" clip-path="url(#pa5bc246778)" style="fill: none; stroke: #cccccc; stroke-width: 0.8; stroke-linecap: round"/>
     </g>
     <g id="line2d_14"/>
     <g id="text_7">
      <!-- 120 -->
      <g style="fill: #262626" transform="translate(359.203305 327.017793) scale(0.1 -0.1)">
       <use xlink:href="#DejaVuSerif-31"/>
       <use xlink:href="#DejaVuSerif-32" transform="translate(63.623047 0)"/>
       <use xlink:href="#DejaVuSerif-30" transform="translate(127.246094 0)"/>
      </g>
     </g>
    </g>
    <g id="text_8">
     <!-- Refinement Step (K) -->
     <g style="fill: #262626" transform="translate(165.534829 342.215605) scale(0.12 -0.12)">
      <defs>
       <path id="DejaVuSerif-52" d="M 3066 2316 
Q 3284 2256 3442 2114 
Q 3600 1972 3725 1716 
L 4403 331 
L 4972 331 
L 4972 0 
L 3872 0 
L 3144 1484 
Q 2934 1916 2759 2042 
Q 2584 2169 2278 2169 
L 1581 2169 
L 1581 331 
L 2241 331 
L 2241 0 
L 353 0 
L 353 331 
L 947 331 
L 947 4331 
L 353 4331 
L 353 4666 
L 2719 4666 
Q 3400 4666 3770 4341 
Q 4141 4016 4141 3419 
Q 4141 2938 3870 2661 
Q 3600 2384 3066 2316 
z
M 1581 2503 
L 2503 2503 
Q 2975 2503 3200 2726 
Q 3425 2950 3425 3419 
Q 3425 3888 3200 4109 
Q 2975 4331 2503 4331 
L 1581 4331 
L 1581 2503 
z
" transform="scale(0.015625)"/>
       <path id="DejaVuSerif-65" d="M 3469 1600 
L 991 1600 
L 991 1575 
Q 991 903 1244 561 
Q 1497 219 1991 219 
Q 2369 219 2611 417 
Q 2853 616 2950 1006 
L 3413 1006 
Q 3275 459 2904 184 
Q 2534 -91 1931 -91 
Q 1203 -91 761 389 
Q 319 869 319 1663 
Q 319 2450 753 2931 
Q 1188 3413 1894 3413 
Q 2647 3413 3050 2948 
Q 3453 2484 3469 1600 
z
M 2791 1931 
Q 2772 2513 2545 2808 
Q 2319 3103 1894 3103 
Q 1497 3103 1269 2806 
Q 1041 2509 991 1931 
L 2791 1931 
z
" transform="scale(0.015625)"/>
       <path id="DejaVuSerif-66" d="M 2753 4078 
L 2450 4078 
Q 2447 4313 2317 4434 
Q 2188 4556 1941 4556 
Q 1619 4556 1487 4379 
Q 1356 4203 1356 3750 
L 1356 3322 
L 2284 3322 
L 2284 2988 
L 1356 2988 
L 1356 331 
L 2094 331 
L 2094 0 
L 231 0 
L 231 331 
L 781 331 
L 781 2988 
L 231 2988 
L 231 3322 
L 781 3322 
L 781 3738 
Q 781 4294 1070 4578 
Q 1359 4863 1919 4863 
Q 2128 4863 2337 4825 
Q 2547 4788 2753 4709 
L 2753 4078 
z
" transform="scale(0.015625)"/>
       <path id="DejaVuSerif-69" d="M 622 4353 
Q 622 4497 726 4603 
Q 831 4709 978 4709 
Q 1122 4709 1226 4603 
Q 1331 4497 1331 4353 
Q 1331 4206 1228 4103 
Q 1125 4000 978 4000 
Q 831 4000 726 4103 
Q 622 4206 622 4353 
z
M 1356 331 
L 1900 331 
L 1900 0 
L 231 0 
L 231 331 
L 781 331 
L 781 2988 
L 231 2988 
L 231 3322 
L 1356 3322 
L 1356 331 
z
" transform="scale(0.015625)"/>
       <path id="DejaVuSerif-6e" d="M 263 0 
L 263 331 
L 781 331 
L 781 2988 
L 231 2988 
L 231 3322 
L 1356 3322 
L 1356 2731 
Q 1516 3069 1770 3241 
Q 2025 3413 2363 3413 
Q 2913 3413 3172 3097 
Q 3431 2781 3431 2113 
L 3431 331 
L 3944 331 
L 3944 0 
L 2356 0 
L 2356 331 
L 2853 331 
L 2853 1931 
Q 2853 2541 2703 2767 
Q 2553 2994 2175 2994 
Q 1775 2994 1565 2701 
Q 1356 2409 1356 1850 
L 1356 331 
L 1856 331 
L 1856 0 
L 263 0 
z
" transform="scale(0.015625)"/>
       <path id="DejaVuSerif-6d" d="M 3316 2675 
Q 3481 3041 3739 3227 
Q 3997 3413 4341 3413 
Q 4863 3413 5119 3089 
Q 5375 2766 5375 2113 
L 5375 331 
L 5894 331 
L 5894 0 
L 4300 0 
L 4300 331 
L 4800 331 
L 4800 2047 
Q 4800 2556 4650 2772 
Q 4500 2988 4153 2988 
Q 3769 2988 3567 2697 
Q 3366 2406 3366 1850 
L 3366 331 
L 3866 331 
L 3866 0 
L 2291 0 
L 2291 331 
L 2791 331 
L 2791 2069 
Q 2791 2566 2641 2777 
Q 2491 2988 2144 2988 
Q 1759 2988 1557 2697 
Q 1356 2406 1356 1850 
L 1356 331 
L 1856 331 
L 1856 0 
L 263 0 
L 263 331 
L 781 331 
L 781 2994 
L 231 2994 
L 231 3322 
L 1356 3322 
L 1356 2731 
Q 1516 3063 1762 3238 
Q 2009 3413 2322 3413 
Q 2709 3413 2968 3220 
Q 3228 3028 3316 2675 
z
" transform="scale(0.015625)"/>
       <path id="DejaVuSerif-74" d="M 691 2988 
L 184 2988 
L 184 3322 
L 691 3322 
L 691 4353 
L 1269 4353 
L 1269 3322 
L 2350 3322 
L 2350 2988 
L 1269 2988 
L 1269 878 
Q 1269 456 1350 337 
Q 1431 219 1650 219 
Q 1875 219 1978 351 
Q 2081 484 2088 781 
L 2522 781 
Q 2497 328 2275 118 
Q 2053 -91 1600 -91 
Q 1103 -91 897 129 
Q 691 350 691 878 
L 691 2988 
z
" transform="scale(0.015625)"/>
       <path id="DejaVuSerif-20" transform="scale(0.015625)"/>
       <path id="DejaVuSerif-53" d="M 594 225 
L 594 1288 
L 953 1284 
Q 969 753 1261 498 
Q 1553 244 2150 244 
Q 2706 244 2998 464 
Q 3291 684 3291 1106 
Q 3291 1444 3114 1625 
Q 2938 1806 2369 1978 
L 1753 2163 
Q 1084 2366 811 2669 
Q 538 2972 538 3500 
Q 538 4094 959 4422 
Q 1381 4750 2144 4750 
Q 2469 4750 2856 4679 
Q 3244 4609 3681 4475 
L 3681 3481 
L 3328 3481 
Q 3275 3975 2998 4195 
Q 2722 4416 2156 4416 
Q 1663 4416 1405 4214 
Q 1147 4013 1147 3628 
Q 1147 3294 1340 3103 
Q 1534 2913 2163 2725 
L 2741 2553 
Q 3375 2363 3645 2067 
Q 3916 1772 3916 1275 
Q 3916 597 3481 253 
Q 3047 -91 2188 -91 
Q 1803 -91 1404 -12 
Q 1006 66 594 225 
z
" transform="scale(0.015625)"/>
       <path id="DejaVuSerif-70" d="M 1313 1825 
L 1313 1497 
Q 1313 897 1542 583 
Q 1772 269 2209 269 
Q 2650 269 2876 622 
Q 3103 975 3103 1663 
Q 3103 2353 2876 2703 
Q 2650 3053 2209 3053 
Q 1772 3053 1542 2737 
Q 1313 2422 1313 1825 
z
M 738 2988 
L 184 2988 
L 184 3322 
L 1313 3322 
L 1313 2803 
Q 1481 3116 1742 3264 
Q 2003 3413 2388 3413 
Q 3000 3413 3387 2928 
Q 3775 2444 3775 1663 
Q 3775 881 3387 395 
Q 3000 -91 2388 -91 
Q 2003 -91 1742 57 
Q 1481 206 1313 519 
L 1313 -997 
L 1856 -997 
L 1856 -1331 
L 184 -1331 
L 184 -997 
L 738 -997 
L 738 2988 
z
" transform="scale(0.015625)"/>
       <path id="DejaVuSerif-28" d="M 2041 -997 
Q 1281 -656 893 83 
Q 506 822 506 1931 
Q 506 3044 893 3783 
Q 1281 4522 2041 4863 
L 2041 4556 
Q 1559 4225 1350 3623 
Q 1141 3022 1141 1931 
Q 1141 844 1350 242 
Q 1559 -359 2041 -691 
L 2041 -997 
z
" transform="scale(0.015625)"/>
       <path id="DejaVuSerif-4b" d="M 353 0 
L 353 331 
L 947 331 
L 947 4331 
L 353 4331 
L 353 4666 
L 2175 4666 
L 2175 4331 
L 1581 4331 
L 1581 2566 
L 3591 4331 
L 3084 4331 
L 3084 4666 
L 4634 4666 
L 4634 4331 
L 4109 4331 
L 2106 2572 
L 4347 331 
L 4878 331 
L 4878 0 
L 3794 0 
L 1581 2216 
L 1581 331 
L 2175 331 
L 2175 0 
L 353 0 
z
" transform="scale(0.015625)"/>
       <path id="DejaVuSerif-29" d="M 453 -997 
L 453 -691 
Q 934 -359 1145 242 
Q 1356 844 1356 1931 
Q 1356 3022 1145 3623 
Q 934 4225 453 4556 
L 453 4863 
Q 1216 4522 1603 3783 
Q 1991 3044 1991 1931 
Q 1991 822 1603 83 
Q 1216 -656 453 -997 
z
" transform="scale(0.015625)"/>
      </defs>
      <use xlink:href="#DejaVuSerif-52"/>
      <use xlink:href="#DejaVuSerif-65" transform="translate(75.292969 0)"/>
      <use xlink:href="#DejaVuSerif-66" transform="translate(134.472656 0)"/>
      <use xlink:href="#DejaVuSerif-69" transform="translate(171.484375 0)"/>
      <use xlink:href="#DejaVuSerif-6e" transform="translate(203.466797 0)"/>
      <use xlink:href="#DejaVuSerif-65" transform="translate(267.871094 0)"/>
      <use xlink:href="#DejaVuSerif-6d" transform="translate(327.050781 0)"/>
      <use xlink:href="#DejaVuSerif-65" transform="translate(421.875 0)"/>
      <use xlink:href="#DejaVuSerif-6e" transform="translate(481.054688 0)"/>
      <use xlink:href="#DejaVuSerif-74" transform="translate(545.458984 0)"/>
      <use xlink:href="#DejaVuSerif-20" transform="translate(585.644531 0)"/>
      <use xlink:href="#DejaVuSerif-53" transform="translate(617.431641 0)"/>
      <use xlink:href="#DejaVuSerif-74" transform="translate(685.9375 0)"/>
      <use xlink:href="#DejaVuSerif-65" transform="translate(726.123047 0)"/>
      <use xlink:href="#DejaVuSerif-70" transform="translate(785.302734 0)"/>
      <use xlink:href="#DejaVuSerif-20" transform="translate(849.316406 0)"/>
      <use xlink:href="#DejaVuSerif-28" transform="translate(881.103516 0)"/>
      <use xlink:href="#DejaVuSerif-4b" transform="translate(920.117188 0)"/>
      <use xlink:href="#DejaVuSerif-29" transform="translate(994.824219 0)"/>
     </g>
    </g>
   </g>
   <g id="matplotlib.axis_2">
    <g id="ytick_1">
     <g id="line2d_15">
      <path d="M 49.884375 228.974133 
L 405.250282 228.974133 
" clip-path="url(#pa5bc246778)" style="fill: none; stroke: #cccccc; stroke-width: 0.8; stroke-linecap: round"/>
     </g>
     <g id="line2d_16"/>
     <g id="text_9">
      <!-- $\mathdefault{10^{-3}}$ -->
      <g style="fill: #262626" transform="translate(22.984375 232.773352) scale(0.1 -0.1)">
       <defs>
        <path id="DejaVuSerif-2212" d="M 678 2259 
L 4684 2259 
L 4684 1753 
L 678 1753 
L 678 2259 
z
" transform="scale(0.015625)"/>
        <path id="DejaVuSerif-33" d="M 622 4469 
Q 988 4606 1323 4678 
Q 1659 4750 1953 4750 
Q 2638 4750 3022 4454 
Q 3406 4159 3406 3634 
Q 3406 3213 3140 2930 
Q 2875 2647 2388 2547 
Q 2963 2466 3280 2130 
Q 3597 1794 3597 1259 
Q 3597 606 3158 257 
Q 2719 -91 1894 -91 
Q 1528 -91 1179 -12 
Q 831 66 488 225 
L 488 1131 
L 838 1131 
Q 869 681 1141 450 
Q 1413 219 1906 219 
Q 2384 219 2661 495 
Q 2938 772 2938 1253 
Q 2938 1803 2653 2086 
Q 2369 2369 1819 2369 
L 1522 2369 
L 1522 2688 
L 1678 2688 
Q 2225 2688 2498 2914 
Q 2772 3141 2772 3597 
Q 2772 4006 2547 4223 
Q 2322 4441 1900 4441 
Q 1478 4441 1245 4241 
Q 1013 4041 972 3647 
L 622 3647 
L 622 4469 
z
" transform="scale(0.015625)"/>
       </defs>
       <use xlink:href="#DejaVuSerif-31" transform="translate(0 0.7125)"/>
       <use xlink:href="#DejaVuSerif-30" transform="translate(63.623047 0.7125)"/>
       <use xlink:href="#DejaVuSerif-2212" transform="translate(128.154453 37.046875) scale(0.7)"/>
       <use xlink:href="#DejaVuSerif-33" transform="translate(186.806797 37.046875) scale(0.7)"/>
      </g>
     </g>
    </g>
    <g id="ytick_2">
     <g id="line2d_17">
      <path d="M 49.884375 139.220547 
L 405.250282 139.220547 
" clip-path="url(#pa5bc246778)" style="fill: none; stroke: #cccccc; stroke-width: 0.8; stroke-linecap: round"/>
     </g>
     <g id="line2d_18"/>
     <g id="text_10">
      <!-- $\mathdefault{10^{-2}}$ -->
      <g style="fill: #262626" transform="translate(22.984375 143.019765) scale(0.1 -0.1)">
       <use xlink:href="#DejaVuSerif-31" transform="translate(0 0.7125)"/>
       <use xlink:href="#DejaVuSerif-30" transform="translate(63.623047 0.7125)"/>
       <use xlink:href="#DejaVuSerif-2212" transform="translate(128.154453 37.046875) scale(0.7)"/>
       <use xlink:href="#DejaVuSerif-32" transform="translate(186.806797 37.046875) scale(0.7)"/>
      </g>
     </g>
    </g>
    <g id="ytick_3">
     <g id="line2d_19">
      <path d="M 49.884375 49.466961 
L 405.250282 49.466961 
" clip-path="url(#pa5bc246778)" style="fill: none; stroke: #cccccc; stroke-width: 0.8; stroke-linecap: round"/>
     </g>
     <g id="line2d_20"/>
     <g id="text_11">
      <!-- $\mathdefault{10^{-1}}$ -->
      <g style="fill: #262626" transform="translate(22.984375 53.266179) scale(0.1 -0.1)">
       <use xlink:href="#DejaVuSerif-31" transform="translate(0 0.7125)"/>
       <use xlink:href="#DejaVuSerif-30" transform="translate(63.623047 0.7125)"/>
       <use xlink:href="#DejaVuSerif-2212" transform="translate(128.154453 37.046875) scale(0.7)"/>
       <use xlink:href="#DejaVuSerif-31" transform="translate(186.806797 37.046875) scale(0.7)"/>
      </g>
     </g>
    </g>
    <g id="ytick_4">
     <g id="line2d_21"/>
    </g>
    <g id="ytick_5">
     <g id="line2d_22"/>
    </g>
    <g id="ytick_6">
     <g id="line2d_23"/>
    </g>
    <g id="ytick_7">
     <g id="line2d_24"/>
    </g>
    <g id="ytick_8">
     <g id="line2d_25"/>
    </g>
    <g id="ytick_9">
     <g id="line2d_26"/>
    </g>
    <g id="ytick_10">
     <g id="line2d_27"/>
    </g>
    <g id="ytick_11">
     <g id="line2d_28"/>
    </g>
    <g id="ytick_12">
     <g id="line2d_29"/>
    </g>
    <g id="ytick_13">
     <g id="line2d_30"/>
    </g>
    <g id="ytick_14">
     <g id="line2d_31"/>
    </g>
    <g id="ytick_15">
     <g id="line2d_32"/>
    </g>
    <g id="ytick_16">
     <g id="line2d_33"/>
    </g>
    <g id="ytick_17">
     <g id="line2d_34"/>
    </g>
    <g id="ytick_18">
     <g id="line2d_35"/>
    </g>
    <g id="ytick_19">
     <g id="line2d_36"/>
    </g>
    <g id="ytick_20">
     <g id="line2d_37"/>
    </g>
    <g id="ytick_21">
     <g id="line2d_38"/>
    </g>
    <g id="ytick_22">
     <g id="line2d_39"/>
    </g>
    <g id="ytick_23">
     <g id="line2d_40"/>
    </g>
    <g id="ytick_24">
     <g id="line2d_41"/>
    </g>
    <g id="ytick_25">
     <g id="line2d_42"/>
    </g>
    <g id="ytick_26">
     <g id="line2d_43"/>
    </g>
    <g id="ytick_27">
     <g id="line2d_44"/>
    </g>
    <g id="text_12">
     <!-- Update Magnitude (α) -->
     <g style="fill: #262626" transform="translate(16.318125 239.385258) rotate(-90) scale(0.12 -0.12)">
      <defs>
       <path id="DejaVuSerif-55" d="M 897 4331 
L 300 4331 
L 300 4666 
L 2125 4666 
L 2125 4331 
L 1528 4331 
L 1528 1919 
Q 1528 1025 1820 672 
Q 2113 319 2828 319 
Q 3544 319 3836 672 
Q 4128 1025 4128 1919 
L 4128 4331 
L 3531 4331 
L 3531 4666 
L 5106 4666 
L 5106 4331 
L 4513 4331 
L 4513 1856 
Q 4513 791 4103 350 
Q 3694 -91 2713 -91 
Q 1731 -91 1314 353 
Q 897 797 897 1856 
L 897 4331 
z
" transform="scale(0.015625)"/>
       <path id="DejaVuSerif-64" d="M 3359 331 
L 3909 331 
L 3909 0 
L 2784 0 
L 2784 519 
Q 2616 206 2355 57 
Q 2094 -91 1709 -91 
Q 1097 -91 708 395 
Q 319 881 319 1663 
Q 319 2444 706 2928 
Q 1094 3413 1709 3413 
Q 2094 3413 2355 3264 
Q 2616 3116 2784 2803 
L 2784 4531 
L 2241 4531 
L 2241 4863 
L 3359 4863 
L 3359 331 
z
M 2784 1497 
L 2784 1825 
Q 2784 2422 2554 2737 
Q 2325 3053 1888 3053 
Q 1444 3053 1217 2703 
Q 991 2353 991 1663 
Q 991 975 1217 622 
Q 1444 269 1888 269 
Q 2325 269 2554 583 
Q 2784 897 2784 1497 
z
" transform="scale(0.015625)"/>
       <path id="DejaVuSerif-61" d="M 2547 1044 
L 2547 1747 
L 1806 1747 
Q 1378 1747 1168 1562 
Q 959 1378 959 997 
Q 959 650 1171 447 
Q 1384 244 1747 244 
Q 2106 244 2326 466 
Q 2547 688 2547 1044 
z
M 3122 2075 
L 3122 331 
L 3634 331 
L 3634 0 
L 2547 0 
L 2547 359 
Q 2356 128 2106 18 
Q 1856 -91 1522 -91 
Q 969 -91 644 203 
Q 319 497 319 997 
Q 319 1513 691 1797 
Q 1063 2081 1741 2081 
L 2547 2081 
L 2547 2309 
Q 2547 2688 2317 2895 
Q 2088 3103 1672 3103 
Q 1328 3103 1125 2947 
Q 922 2791 872 2484 
L 575 2484 
L 575 3156 
Q 875 3284 1158 3348 
Q 1441 3413 1709 3413 
Q 2400 3413 2761 3070 
Q 3122 2728 3122 2075 
z
" transform="scale(0.015625)"/>
       <path id="DejaVuSerif-4d" d="M 353 0 
L 353 331 
L 947 331 
L 947 4331 
L 319 4331 
L 319 4666 
L 1678 4666 
L 3316 1344 
L 4953 4666 
L 6228 4666 
L 6228 4331 
L 5606 4331 
L 5606 331 
L 6203 331 
L 6203 0 
L 4378 0 
L 4378 331 
L 4972 331 
L 4972 3938 
L 3372 684 
L 2931 684 
L 1331 3938 
L 1331 331 
L 1925 331 
L 1925 0 
L 353 0 
z
" transform="scale(0.015625)"/>
       <path id="DejaVuSerif-67" d="M 3359 2988 
L 3359 72 
Q 3359 -644 2965 -1033 
Q 2572 -1422 1844 -1422 
Q 1516 -1422 1216 -1362 
Q 916 -1303 641 -1184 
L 641 -488 
L 941 -488 
Q 997 -813 1206 -963 
Q 1416 -1113 1806 -1113 
Q 2313 -1113 2548 -827 
Q 2784 -541 2784 72 
L 2784 519 
Q 2616 206 2355 57 
Q 2094 -91 1709 -91 
Q 1097 -91 708 395 
Q 319 881 319 1663 
Q 319 2444 706 2928 
Q 1094 3413 1709 3413 
Q 2094 3413 2355 3264 
Q 2616 3116 2784 2803 
L 2784 3322 
L 3909 3322 
L 3909 2988 
L 3359 2988 
z
M 2784 1825 
Q 2784 2422 2554 2737 
Q 2325 3053 1888 3053 
Q 1444 3053 1217 2703 
Q 991 2353 991 1663 
Q 991 975 1217 622 
Q 1444 269 1888 269 
Q 2325 269 2554 583 
Q 2784 897 2784 1497 
L 2784 1825 
z
" transform="scale(0.015625)"/>
       <path id="DejaVuSerif-75" d="M 2266 3322 
L 3341 3322 
L 3341 331 
L 3884 331 
L 3884 0 
L 2766 0 
L 2766 588 
Q 2606 256 2353 82 
Q 2100 -91 1766 -91 
Q 1213 -91 952 223 
Q 691 538 691 1209 
L 691 2988 
L 172 2988 
L 172 3322 
L 1269 3322 
L 1269 1388 
Q 1269 781 1417 556 
Q 1566 331 1947 331 
Q 2347 331 2556 625 
Q 2766 919 2766 1478 
L 2766 2988 
L 2266 2988 
L 2266 3322 
z
" transform="scale(0.015625)"/>
       <path id="DejaVuSerif-3b1" d="M 2763 819 
L 2638 472 
Q 2541 203 2244 31 
Q 2050 -81 1706 -78 
Q 1091 -72 706 406 
Q 319 894 319 1675 
Q 319 2441 706 2941 
Q 1072 3413 1844 3409 
Q 2375 3409 2644 3200 
Q 2881 3016 2972 2613 
L 2997 2497 
L 3119 2844 
Q 3231 3172 3553 3334 
L 3869 3334 
L 3869 3150 
Q 3569 3056 3463 2763 
L 3138 1875 
L 3356 919 
Q 3469 428 3588 375 
Q 3759 297 4150 531 
L 4150 153 
Q 3516 -213 3069 169 
Q 2866 344 2809 597 
L 2763 819 
z
M 2628 1431 
L 2431 2350 
Q 2275 3081 1850 3084 
Q 1491 3088 1219 2703 
Q 991 2388 991 1663 
Q 991 975 1219 622 
Q 1463 238 1884 269 
Q 2244 297 2503 1063 
L 2628 1431 
z
" transform="scale(0.015625)"/>
      </defs>
      <use xlink:href="#DejaVuSerif-55"/>
      <use xlink:href="#DejaVuSerif-70" transform="translate(84.277344 0)"/>
      <use xlink:href="#DejaVuSerif-64" transform="translate(148.291016 0)"/>
      <use xlink:href="#DejaVuSerif-61" transform="translate(212.304688 0)"/>
      <use xlink:href="#DejaVuSerif-74" transform="translate(271.923828 0)"/>
      <use xlink:href="#DejaVuSerif-65" transform="translate(312.109375 0)"/>
      <use xlink:href="#DejaVuSerif-20" transform="translate(371.289062 0)"/>
      <use xlink:href="#DejaVuSerif-4d" transform="translate(403.076172 0)"/>
      <use xlink:href="#DejaVuSerif-61" transform="translate(505.46875 0)"/>
      <use xlink:href="#DejaVuSerif-67" transform="translate(565.087891 0)"/>
      <use xlink:href="#DejaVuSerif-6e" transform="translate(629.101562 0)"/>
      <use xlink:href="#DejaVuSerif-69" transform="translate(693.505859 0)"/>
      <use xlink:href="#DejaVuSerif-74" transform="translate(725.488281 0)"/>
      <use xlink:href="#DejaVuSerif-75" transform="translate(765.673828 0)"/>
      <use xlink:href="#DejaVuSerif-64" transform="translate(830.078125 0)"/>
      <use xlink:href="#DejaVuSerif-65" transform="translate(894.091797 0)"/>
      <use xlink:href="#DejaVuSerif-20" transform="translate(953.271484 0)"/>
      <use xlink:href="#DejaVuSerif-28" transform="translate(985.058594 0)"/>
      <use xlink:href="#DejaVuSerif-3b1" transform="translate(1024.072266 0)"/>
      <use xlink:href="#DejaVuSerif-29" transform="translate(1091.601562 0)"/>
     </g>
    </g>
   </g>
   <g id="FillBetweenPolyCollection_1">
    <path d="M 66.037371 89713.299578 
L 66.037371 40.297272 
L 68.58115 46.263532 
L 71.124929 51.707348 
L 73.668707 56.731776 
L 76.212486 61.412096 
L 78.756265 65.80498 
L 81.300044 69.954156 
L 83.843823 73.894076 
L 86.387602 77.652368 
L 88.931381 81.251524 
L 91.475159 84.710101 
L 94.018938 88.043587 
L 96.562717 91.265045 
L 99.106496 94.385593 
L 101.650275 97.41477 
L 104.194054 100.360826 
L 106.737833 103.230939 
L 109.281611 106.031398 
L 111.82539 108.76774 
L 114.369169 111.444868 
L 116.912948 114.067142 
L 119.456727 116.638459 
L 122.000506 119.162313 
L 124.544285 121.641854 
L 127.088063 124.079924 
L 129.631842 126.479103 
L 132.175621 128.841738 
L 134.7194 131.169966 
L 137.263179 133.465747 
L 139.806958 135.730874 
L 142.350737 137.966997 
L 144.894516 140.175636 
L 147.438294 142.358195 
L 149.982073 144.515973 
L 152.525852 146.650174 
L 155.069631 148.761917 
L 157.61341 150.852241 
L 160.157189 152.922118 
L 162.700968 154.972452 
L 165.244746 157.00409 
L 167.788525 159.017825 
L 170.332304 161.014401 
L 172.876083 162.994516 
L 175.419862 164.958826 
L 177.963641 166.907949 
L 180.50742 168.842466 
L 183.051198 170.762929 
L 185.594977 172.669855 
L 188.138756 174.563735 
L 190.682535 176.445035 
L 193.226314 178.314193 
L 195.770093 180.171628 
L 198.313872 182.017737 
L 200.857651 183.852894 
L 203.401429 185.67746 
L 205.945208 187.491773 
L 208.488987 189.29616 
L 211.032766 191.090929 
L 213.576545 192.876376 
L 216.120324 194.652782 
L 218.664103 196.420417 
L 221.207881 198.179538 
L 223.75166 199.930391 
L 226.295439 201.673211 
L 228.839218 203.408226 
L 231.382997 205.13565 
L 233.926776 206.855692 
L 236.470555 208.56855 
L 239.014333 210.274416 
L 241.558112 211.973474 
L 244.101891 213.665899 
L 246.64567 215.351861 
L 249.189449 217.031525 
L 251.733228 218.705046 
L 254.277007 220.372576 
L 256.820785 222.034262 
L 259.364564 223.690243 
L 261.908343 225.340655 
L 264.452122 226.98563 
L 266.995901 228.625292 
L 269.53968 230.259765 
L 272.083459 231.889165 
L 274.627238 233.513607 
L 277.171016 235.133201 
L 279.714795 236.748052 
L 282.258574 238.358265 
L 284.802353 239.963938 
L 287.346132 241.565167 
L 289.889911 243.162047 
L 292.43369 244.754668 
L 294.977468 246.343117 
L 297.521247 247.927479 
L 300.065026 249.507837 
L 302.608805 251.084271 
L 305.152584 252.656858 
L 307.696363 254.225674 
L 310.240142 255.790791 
L 312.78392 257.352281 
L 315.327699 258.910213 
L 317.871478 260.464654 
L 320.415257 262.015669 
L 322.959036 263.563321 
L 325.502815 265.107671 
L 328.046594 266.648781 
L 330.590373 268.186708 
L 333.134151 269.721508 
L 335.67793 271.253238 
L 338.221709 272.781951 
L 340.765488 274.307699 
L 343.309267 275.830533 
L 345.853046 277.350503 
L 348.396825 278.867658 
L 350.940603 280.382045 
L 353.484382 281.89371 
L 356.028161 283.402697 
L 358.57194 284.909052 
L 361.115719 286.412815 
L 363.659498 287.91403 
L 366.203277 289.412737 
L 368.747055 290.908975 
L 371.290834 292.402783 
L 373.834613 293.894201 
L 376.378392 295.383263 
L 378.922171 296.870007 
L 381.46595 298.354468 
L 384.009729 299.83668 
L 386.553507 301.316678 
L 389.097286 302.794494 
L 389.097286 89713.299578 
L 389.097286 89713.299578 
L 386.553507 89713.299578 
L 384.009729 89713.299578 
L 381.46595 89713.299578 
L 378.922171 89713.299578 
L 376.378392 89713.299578 
L 373.834613 89713.299578 
L 371.290834 89713.299578 
L 368.747055 89713.299578 
L 366.203277 89713.299578 
L 363.659498 89713.299578 
L 361.115719 89713.299578 
L 358.57194 89713.299578 
L 356.028161 89713.299578 
L 353.484382 89713.299578 
L 350.940603 89713.299578 
L 348.396825 89713.299578 
L 345.853046 89713.299578 
L 343.309267 89713.299578 
L 340.765488 89713.299578 
L 338.221709 89713.299578 
L 335.67793 89713.299578 
L 333.134151 89713.299578 
L 330.590373 89713.299578 
L 328.046594 89713.299578 
L 325.502815 89713.299578 
L 322.959036 89713.299578 
L 320.415257 89713.299578 
L 317.871478 89713.299578 
L 315.327699 89713.299578 
L 312.78392 89713.299578 
L 310.240142 89713.299578 
L 307.696363 89713.299578 
L 305.152584 89713.299578 
L 302.608805 89713.299578 
L 300.065026 89713.299578 
L 297.521247 89713.299578 
L 294.977468 89713.299578 
L 292.43369 89713.299578 
L 289.889911 89713.299578 
L 287.346132 89713.299578 
L 284.802353 89713.299578 
L 282.258574 89713.299578 
L 279.714795 89713.299578 
L 277.171016 89713.299578 
L 274.627238 89713.299578 
L 272.083459 89713.299578 
L 269.53968 89713.299578 
L 266.995901 89713.299578 
L 264.452122 89713.299578 
L 261.908343 89713.299578 
L 259.364564 89713.299578 
L 256.820785 89713.299578 
L 254.277007 89713.299578 
L 251.733228 89713.299578 
L 249.189449 89713.299578 
L 246.64567 89713.299578 
L 244.101891 89713.299578 
L 241.558112 89713.299578 
L 239.014333 89713.299578 
L 236.470555 89713.299578 
L 233.926776 89713.299578 
L 231.382997 89713.299578 
L 228.839218 89713.299578 
L 226.295439 89713.299578 
L 223.75166 89713.299578 
L 221.207881 89713.299578 
L 218.664103 89713.299578 
L 216.120324 89713.299578 
L 213.576545 89713.299578 
L 211.032766 89713.299578 
L 208.488987 89713.299578 
L 205.945208 89713.299578 
L 203.401429 89713.299578 
L 200.857651 89713.299578 
L 198.313872 89713.299578 
L 195.770093 89713.299578 
L 193.226314 89713.299578 
L 190.682535 89713.299578 
L 188.138756 89713.299578 
L 185.594977 89713.299578 
L 183.051198 89713.299578 
L 180.50742 89713.299578 
L 177.963641 89713.299578 
L 175.419862 89713.299578 
L 172.876083 89713.299578 
L 170.332304 89713.299578 
L 167.788525 89713.299578 
L 165.244746 89713.299578 
L 162.700968 89713.299578 
L 160.157189 89713.299578 
L 157.61341 89713.299578 
L 155.069631 89713.299578 
L 152.525852 89713.299578 
L 149.982073 89713.299578 
L 147.438294 89713.299578 
L 144.894516 89713.299578 
L 142.350737 89713.299578 
L 139.806958 89713.299578 
L 137.263179 89713.299578 
L 134.7194 89713.299578 
L 132.175621 89713.299578 
L 129.631842 89713.299578 
L 127.088063 89713.299578 
L 124.544285 89713.299578 
L 122.000506 89713.299578 
L 119.456727 89713.299578 
L 116.912948 89713.299578 
L 114.369169 89713.299578 
L 111.82539 89713.299578 
L 109.281611 89713.299578 
L 106.737833 89713.299578 
L 104.194054 89713.299578 
L 101.650275 89713.299578 
L 99.106496 89713.299578 
L 96.562717 89713.299578 
L 94.018938 89713.299578 
L 91.475159 89713.299578 
L 88.931381 89713.299578 
L 86.387602 89713.299578 
L 83.843823 89713.299578 
L 81.300044 89713.299578 
L 78.756265 89713.299578 
L 76.212486 89713.299578 
L 73.668707 89713.299578 
L 71.124929 89713.299578 
L 68.58115 89713.299578 
L 66.037371 89713.299578 
z
" clip-path="url(#pa5bc246778)" style="fill: #e94560; fill-opacity: 0.2; stroke: #e94560; stroke-opacity: 0.2"/>
   </g>
   <g id="line2d_45">
    <path d="M 66.037371 40.297272 
L 68.58115 46.263532 
L 71.124929 51.707348 
L 73.668707 56.731776 
L 76.212486 61.412096 
L 78.756265 65.80498 
L 83.843823 73.894076 
L 88.931381 81.251524 
L 94.018938 88.043587 
L 99.106496 94.385593 
L 104.194054 100.360826 
L 109.281611 106.031398 
L 114.369169 111.444868 
L 122.000506 119.162313 
L 129.631842 126.479103 
L 137.263179 133.465747 
L 144.894516 140.175636 
L 155.069631 148.761917 
L 165.244746 157.00409 
L 175.419862 164.958826 
L 185.594977 172.669855 
L 198.313872 182.017737 
L 211.032766 191.090929 
L 226.295439 201.673211 
L 241.558112 211.973474 
L 259.364564 223.690243 
L 277.171016 235.133201 
L 297.521247 247.927479 
L 317.871478 260.464654 
L 340.765488 274.307699 
L 366.203277 289.412737 
L 389.097286 302.794494 
L 389.097286 302.794494 
" clip-path="url(#pa5bc246778)" style="fill: none; stroke: #e94560; stroke-width: 2.5; stroke-linecap: round"/>
   </g>
   <g id="patch_3">
    <path d="M 49.884375 315.919355 
L 49.884375 27.172411 
" style="fill: none; stroke: #cccccc; stroke-linejoin: miter; stroke-linecap: square"/>
   </g>
   <g id="patch_4">
    <path d="M 49.884375 315.919355 
L 405.250282 315.919355 
" style="fill: none; stroke: #cccccc; stroke-linejoin: miter; stroke-linecap: square"/>
   </g>
   <g id="patch_5">
    <path d="M 90.730793 18.273207 
Q 79.130129 28.619839 67.946656 38.59438 
" style="fill: none; stroke: #808080; stroke-width: 0.5; stroke-linecap: round"/>
    <path d="M 71.399781 37.658469 
L 67.946656 38.59438 
L 69.269803 35.270334 
" style="fill: none; stroke: #808080; stroke-width: 0.5; stroke-linecap: round"/>
   </g>
   <g id="text_13">
    <!-- α=0.1265 -->
    <g style="fill: #262626" transform="translate(78.756265 13.27875) scale(0.08 -0.08)">
     <defs>
      <path id="DejaVuSerif-3d" d="M 678 2894 
L 4684 2894 
L 4684 2394 
L 678 2394 
L 678 2894 
z
M 678 1619 
L 4684 1619 
L 4684 1119 
L 678 1119 
L 678 1619 
z
" transform="scale(0.015625)"/>
      <path id="DejaVuSerif-2e" d="M 603 325 
Q 603 500 722 622 
Q 841 744 1019 744 
Q 1191 744 1312 622 
Q 1434 500 1434 325 
Q 1434 153 1312 31 
Q 1191 -91 1019 -91 
Q 841 -91 722 29 
Q 603 150 603 325 
z
" transform="scale(0.015625)"/>
      <path id="DejaVuSerif-35" d="M 3219 4666 
L 3219 4153 
L 1081 4153 
L 1081 2816 
Q 1244 2928 1461 2984 
Q 1678 3041 1947 3041 
Q 2703 3041 3140 2622 
Q 3578 2203 3578 1478 
Q 3578 738 3136 323 
Q 2694 -91 1894 -91 
Q 1572 -91 1234 -12 
Q 897 66 544 225 
L 544 1131 
L 897 1131 
Q 925 688 1179 453 
Q 1434 219 1894 219 
Q 2388 219 2653 544 
Q 2919 869 2919 1478 
Q 2919 2084 2655 2407 
Q 2391 2731 1894 2731 
Q 1613 2731 1398 2631 
Q 1184 2531 1019 2322 
L 750 2322 
L 750 4666 
L 3219 4666 
z
" transform="scale(0.015625)"/>
     </defs>
     <use xlink:href="#DejaVuSerif-3b1"/>
     <use xlink:href="#DejaVuSerif-3d" transform="translate(67.529297 0)"/>
     <use xlink:href="#DejaVuSerif-30" transform="translate(151.318359 0)"/>
     <use xlink:href="#DejaVuSerif-2e" transform="translate(214.941406 0)"/>
     <use xlink:href="#DejaVuSerif-31" transform="translate(246.728516 0)"/>
     <use xlink:href="#DejaVuSerif-32" transform="translate(310.351562 0)"/>
     <use xlink:href="#DejaVuSerif-36" transform="translate(373.974609 0)"/>
     <use xlink:href="#DejaVuSerif-35" transform="translate(437.597656 0)"/>
    </g>
   </g>
   <g id="patch_6">
    <path d="M 108.537245 51.870012 
Q 96.936581 62.216644 85.753108 72.191185 
" style="fill: none; stroke: #808080; stroke-width: 0.5; stroke-linecap: round"/>
    <path d="M 89.206233 71.255274 
L 85.753108 72.191185 
L 87.076255 68.867138 
" style="fill: none; stroke: #808080; stroke-width: 0.5; stroke-linecap: round"/>
   </g>
   <g id="text_14">
    <!-- α=0.0534 -->
    <g style="fill: #262626" transform="translate(96.562717 46.875555) scale(0.08 -0.08)">
     <use xlink:href="#DejaVuSerif-3b1"/>
     <use xlink:href="#DejaVuSerif-3d" transform="translate(67.529297 0)"/>
     <use xlink:href="#DejaVuSerif-30" transform="translate(151.318359 0)"/>
     <use xlink:href="#DejaVuSerif-2e" transform="translate(214.941406 0)"/>
     <use xlink:href="#DejaVuSerif-30" transform="translate(246.728516 0)"/>
     <use xlink:href="#DejaVuSerif-35" transform="translate(310.351562 0)"/>
     <use xlink:href="#DejaVuSerif-33" transform="translate(373.974609 0)"/>
     <use xlink:href="#DejaVuSerif-34" transform="translate(437.597656 0)"/>
    </g>
   </g>
   <g id="patch_7">
    <path d="M 128.887476 78.336761 
Q 117.286812 88.683394 106.103339 98.657934 
" style="fill: none; stroke: #808080; stroke-width: 0.5; stroke-linecap: round"/>
    <path d="M 109.556464 97.722024 
L 106.103339 98.657934 
L 107.426486 95.333888 
" style="fill: none; stroke: #808080; stroke-width: 0.5; stroke-linecap: round"/>
   </g>
   <g id="text_15">
    <!-- α=0.0271 -->
    <g style="fill: #262626" transform="translate(116.912948 73.342304) scale(0.08 -0.08)">
     <defs>
      <path id="DejaVuSerif-37" d="M 3609 4347 
L 1784 0 
L 1319 0 
L 3059 4153 
L 903 4153 
L 903 3578 
L 538 3578 
L 538 4666 
L 3609 4666 
L 3609 4347 
z
" transform="scale(0.015625)"/>
     </defs>
     <use xlink:href="#DejaVuSerif-3b1"/>
     <use xlink:href="#DejaVuSerif-3d" transform="translate(67.529297 0)"/>
     <use xlink:href="#DejaVuSerif-30" transform="translate(151.318359 0)"/>
     <use xlink:href="#DejaVuSerif-2e" transform="translate(214.941406 0)"/>
     <use xlink:href="#DejaVuSerif-30" transform="translate(246.728516 0)"/>
     <use xlink:href="#DejaVuSerif-32" transform="translate(310.351562 0)"/>
     <use xlink:href="#DejaVuSerif-37" transform="translate(373.974609 0)"/>
     <use xlink:href="#DejaVuSerif-31" transform="translate(437.597656 0)"/>
    </g>
   </g>
   <g id="patch_8">
    <path d="M 169.587937 118.151571 
Q 157.987274 128.498204 146.803801 138.472744 
" style="fill: none; stroke: #808080; stroke-width: 0.5; stroke-linecap: round"/>
    <path d="M 150.256926 137.536834 
L 146.803801 138.472744 
L 148.126947 135.148698 
" style="fill: none; stroke: #808080; stroke-width: 0.5; stroke-linecap: round"/>
   </g>
   <g id="text_16">
    <!-- α=0.0098 -->
    <g style="fill: #262626" transform="translate(157.61341 113.157114) scale(0.08 -0.08)">
     <defs>
      <path id="DejaVuSerif-39" d="M 2994 2091 
Q 2784 1856 2512 1740 
Q 2241 1625 1900 1625 
Q 1206 1625 804 2044 
Q 403 2463 403 3188 
Q 403 3897 839 4323 
Q 1275 4750 2003 4750 
Q 2794 4750 3217 4161 
Q 3641 3572 3641 2478 
Q 3641 1253 3137 581 
Q 2634 -91 1722 -91 
Q 1475 -91 1203 -44 
Q 931 3 647 97 
L 647 872 
L 997 872 
Q 1038 556 1241 387 
Q 1444 219 1784 219 
Q 2391 219 2687 676 
Q 2984 1134 2994 2091 
z
M 1978 4441 
Q 1534 4441 1298 4117 
Q 1063 3794 1063 3188 
Q 1063 2581 1298 2256 
Q 1534 1931 1978 1931 
Q 2422 1931 2658 2245 
Q 2894 2559 2894 3150 
Q 2894 3772 2656 4106 
Q 2419 4441 1978 4441 
z
" transform="scale(0.015625)"/>
     </defs>
     <use xlink:href="#DejaVuSerif-3b1"/>
     <use xlink:href="#DejaVuSerif-3d" transform="translate(67.529297 0)"/>
     <use xlink:href="#DejaVuSerif-30" transform="translate(151.318359 0)"/>
     <use xlink:href="#DejaVuSerif-2e" transform="translate(214.941406 0)"/>
     <use xlink:href="#DejaVuSerif-30" transform="translate(246.728516 0)"/>
     <use xlink:href="#DejaVuSerif-30" transform="translate(310.351562 0)"/>
     <use xlink:href="#DejaVuSerif-39" transform="translate(373.974609 0)"/>
     <use xlink:href="#DejaVuSerif-38" transform="translate(437.597656 0)"/>
    </g>
   </g>
   <g id="patch_9">
    <path d="M 250.988861 179.649147 
Q 239.388198 189.995779 228.204724 199.97032 
" style="fill: none; stroke: #808080; stroke-width: 0.5; stroke-linecap: round"/>
    <path d="M 231.657849 199.034409 
L 228.204724 199.97032 
L 229.527871 196.646273 
" style="fill: none; stroke: #808080; stroke-width: 0.5; stroke-linecap: round"/>
   </g>
   <g id="text_17">
    <!-- α=0.0020 -->
    <g style="fill: #262626" transform="translate(239.014333 174.65469) scale(0.08 -0.08)">
     <use xlink:href="#DejaVuSerif-3b1"/>
     <use xlink:href="#DejaVuSerif-3d" transform="translate(67.529297 0)"/>
     <use xlink:href="#DejaVuSerif-30" transform="translate(151.318359 0)"/>
     <use xlink:href="#DejaVuSerif-2e" transform="translate(214.941406 0)"/>
     <use xlink:href="#DejaVuSerif-30" transform="translate(246.728516 0)"/>
     <use xlink:href="#DejaVuSerif-30" transform="translate(310.351562 0)"/>
     <use xlink:href="#DejaVuSerif-32" transform="translate(373.974609 0)"/>
     <use xlink:href="#DejaVuSerif-30" transform="translate(437.597656 0)"/>
    </g>
   </g>
   <g id="patch_10">
    <path d="M 413.790708 280.770429 
Q 402.190045 291.117062 391.006572 301.091602 
" style="fill: none; stroke: #808080; stroke-width: 0.5; stroke-linecap: round"/>
    <path d="M 394.459697 300.155692 
L 391.006572 301.091602 
L 392.329718 297.767556 
" style="fill: none; stroke: #808080; stroke-width: 0.5; stroke-linecap: round"/>
   </g>
   <g id="text_18">
    <!-- α=0.0002 -->
    <g style="fill: #262626" transform="translate(401.816181 275.775973) scale(0.08 -0.08)">
     <use xlink:href="#DejaVuSerif-3b1"/>
     <use xlink:href="#DejaVuSerif-3d" transform="translate(67.529297 0)"/>
     <use xlink:href="#DejaVuSerif-30" transform="translate(151.318359 0)"/>
     <use xlink:href="#DejaVuSerif-2e" transform="translate(214.941406 0)"/>
     <use xlink:href="#DejaVuSerif-30" transform="translate(246.728516 0)"/>
     <use xlink:href="#DejaVuSerif-30" transform="translate(310.351562 0)"/>
     <use xlink:href="#DejaVuSerif-30" transform="translate(373.974609 0)"/>
     <use xlink:href="#DejaVuSerif-32" transform="translate(437.597656 0)"/>
    </g>
   </g>
   <g id="text_19">
    <!-- Contractive Decay Schedule -->
    <g style="fill: #262626" transform="translate(127.09436 21.172411) scale(0.14 -0.14)">
     <defs>
      <path id="DejaVuSerif-43" d="M 4513 1234 
Q 4306 581 3820 245 
Q 3334 -91 2591 -91 
Q 2134 -91 1743 65 
Q 1353 222 1050 525 
Q 700 875 529 1320 
Q 359 1766 359 2328 
Q 359 3416 987 4083 
Q 1616 4750 2644 4750 
Q 3025 4750 3456 4650 
Q 3888 4550 4384 4347 
L 4384 3272 
L 4031 3272 
Q 3916 3859 3567 4137 
Q 3219 4416 2591 4416 
Q 1844 4416 1459 3886 
Q 1075 3356 1075 2328 
Q 1075 1303 1459 773 
Q 1844 244 2591 244 
Q 3113 244 3450 492 
Q 3788 741 3938 1234 
L 4513 1234 
z
" transform="scale(0.015625)"/>
      <path id="DejaVuSerif-6f" d="M 1925 219 
Q 2388 219 2623 584 
Q 2859 950 2859 1663 
Q 2859 2375 2623 2739 
Q 2388 3103 1925 3103 
Q 1463 3103 1227 2739 
Q 991 2375 991 1663 
Q 991 950 1228 584 
Q 1466 219 1925 219 
z
M 1925 -91 
Q 1200 -91 759 389 
Q 319 869 319 1663 
Q 319 2456 758 2934 
Q 1197 3413 1925 3413 
Q 2653 3413 3092 2934 
Q 3531 2456 3531 1663 
Q 3531 869 3092 389 
Q 2653 -91 1925 -91 
z
" transform="scale(0.015625)"/>
      <path id="DejaVuSerif-72" d="M 3059 3328 
L 3059 2497 
L 2728 2497 
Q 2713 2744 2591 2866 
Q 2469 2988 2234 2988 
Q 1809 2988 1582 2694 
Q 1356 2400 1356 1850 
L 1356 331 
L 2022 331 
L 2022 0 
L 263 0 
L 263 331 
L 781 331 
L 781 2994 
L 231 2994 
L 231 3322 
L 1356 3322 
L 1356 2731 
Q 1525 3078 1790 3245 
Q 2056 3413 2438 3413 
Q 2578 3413 2733 3391 
Q 2888 3369 3059 3328 
z
" transform="scale(0.015625)"/>
      <path id="DejaVuSerif-63" d="M 3291 997 
Q 3169 466 2822 187 
Q 2475 -91 1925 -91 
Q 1200 -91 759 389 
Q 319 869 319 1663 
Q 319 2459 759 2936 
Q 1200 3413 1925 3413 
Q 2241 3413 2553 3339 
Q 2866 3266 3181 3116 
L 3181 2266 
L 2847 2266 
Q 2781 2703 2561 2903 
Q 2341 3103 1931 3103 
Q 1466 3103 1228 2742 
Q 991 2381 991 1663 
Q 991 944 1227 581 
Q 1463 219 1931 219 
Q 2303 219 2525 412 
Q 2747 606 2828 997 
L 3291 997 
z
" transform="scale(0.015625)"/>
      <path id="DejaVuSerif-76" d="M 1581 0 
L 359 2988 
L -19 2988 
L -19 3322 
L 1509 3322 
L 1509 2988 
L 978 2988 
L 1913 703 
L 2847 2988 
L 2350 2988 
L 2350 3322 
L 3597 3322 
L 3597 2988 
L 3225 2988 
L 2003 0 
L 1581 0 
z
" transform="scale(0.015625)"/>
      <path id="DejaVuSerif-44" d="M 1581 331 
L 2163 331 
Q 3072 331 3558 850 
Q 4044 1369 4044 2338 
Q 4044 3306 3559 3818 
Q 3075 4331 2163 4331 
L 1581 4331 
L 1581 331 
z
M 353 0 
L 353 331 
L 947 331 
L 947 4331 
L 353 4331 
L 353 4666 
L 2209 4666 
Q 3416 4666 4089 4050 
Q 4763 3434 4763 2338 
Q 4763 1238 4088 619 
Q 3413 0 2209 0 
L 353 0 
z
" transform="scale(0.015625)"/>
      <path id="DejaVuSerif-79" d="M 1381 -609 
L 1600 -56 
L 359 2988 
L -19 2988 
L -19 3322 
L 1509 3322 
L 1509 2988 
L 978 2988 
L 1913 703 
L 2847 2988 
L 2350 2988 
L 2350 3322 
L 3597 3322 
L 3597 2988 
L 3225 2988 
L 1703 -750 
Q 1547 -1138 1356 -1280 
Q 1166 -1422 819 -1422 
Q 672 -1422 517 -1397 
Q 363 -1372 206 -1325 
L 206 -691 
L 500 -691 
Q 519 -903 608 -995 
Q 697 -1088 884 -1088 
Q 1056 -1088 1161 -992 
Q 1266 -897 1381 -609 
z
" transform="scale(0.015625)"/>
      <path id="DejaVuSerif-68" d="M 263 0 
L 263 331 
L 781 331 
L 781 4531 
L 231 4531 
L 231 4863 
L 1356 4863 
L 1356 2731 
Q 1516 3069 1770 3241 
Q 2025 3413 2363 3413 
Q 2913 3413 3172 3097 
Q 3431 2781 3431 2113 
L 3431 331 
L 3944 331 
L 3944 0 
L 2356 0 
L 2356 331 
L 2853 331 
L 2853 1931 
Q 2853 2541 2704 2764 
Q 2556 2988 2175 2988 
Q 1775 2988 1565 2697 
Q 1356 2406 1356 1850 
L 1356 331 
L 1856 331 
L 1856 0 
L 263 0 
z
" transform="scale(0.015625)"/>
      <path id="DejaVuSerif-6c" d="M 1313 331 
L 1856 331 
L 1856 0 
L 184 0 
L 184 331 
L 738 331 
L 738 4531 
L 184 4531 
L 184 4863 
L 1313 4863 
L 1313 331 
z
" transform="scale(0.015625)"/>
     </defs>
     <use xlink:href="#DejaVuSerif-43"/>
     <use xlink:href="#DejaVuSerif-6f" transform="translate(76.513672 0)"/>
     <use xlink:href="#DejaVuSerif-6e" transform="translate(136.71875 0)"/>
     <use xlink:href="#DejaVuSerif-74" transform="translate(201.123047 0)"/>
     <use xlink:href="#DejaVuSerif-72" transform="translate(241.308594 0)"/>
     <use xlink:href="#DejaVuSerif-61" transform="translate(289.111328 0)"/>
     <use xlink:href="#DejaVuSerif-63" transform="translate(348.730469 0)"/>
     <use xlink:href="#DejaVuSerif-74" transform="translate(404.736328 0)"/>
     <use xlink:href="#DejaVuSerif-69" transform="translate(444.921875 0)"/>
     <use xlink:href="#DejaVuSerif-76" transform="translate(476.904297 0)"/>
     <use xlink:href="#DejaVuSerif-65" transform="translate(533.398438 0)"/>
     <use xlink:href="#DejaVuSerif-20" transform="translate(592.578125 0)"/>
     <use xlink:href="#DejaVuSerif-44" transform="translate(624.365234 0)"/>
     <use xlink:href="#DejaVuSerif-65" transform="translate(704.541016 0)"/>
     <use xlink:href="#DejaVuSerif-63" transform="translate(763.720703 0)"/>
     <use xlink:href="#DejaVuSerif-61" transform="translate(819.726562 0)"/>
     <use xlink:href="#DejaVuSerif-79" transform="translate(879.345703 0)"/>
     <use xlink:href="#DejaVuSerif-20" transform="translate(935.839844 0)"/>
     <use xlink:href="#DejaVuSerif-53" transform="translate(967.626953 0)"/>
     <use xlink:href="#DejaVuSerif-63" transform="translate(1036.132812 0)"/>
     <use xlink:href="#DejaVuSerif-68" transform="translate(1092.138672 0)"/>
     <use xlink:href="#DejaVuSerif-65" transform="translate(1156.542969 0)"/>
     <use xlink:href="#DejaVuSerif-64" transform="translate(1215.722656 0)"/>
     <use xlink:href="#DejaVuSerif-75" transform="translate(1279.736328 0)"/>
     <use xlink:href="#DejaVuSerif-6c" transform="translate(1344.140625 0)"/>
     <use xlink:href="#DejaVuSerif-65" transform="translate(1376.123047 0)"/>
    </g>
   </g>
  </g>
  <g id="axes_2">
   <g id="patch_11">
    <path d="M 492.324044 315.919355 
L 847.689952 315.919355 
L 847.689952 27.172411 
L 492.324044 27.172411 
z
" style="fill: #ffffff"/>
   </g>
   <g id="matplotlib.axis_3">
    <g id="xtick_8">
     <g id="line2d_46">
      <path d="M 505.933261 315.919355 
L 505.933261 27.172411 
" clip-path="url(#pf5539569ef)" style="fill: none; stroke: #cccccc; stroke-width: 0.8; stroke-linecap: round"/>
     </g>
     <g id="line2d_47"/>
     <g id="text_20">
      <!-- 0 -->
      <g style="fill: #262626" transform="translate(502.752011 327.017793) scale(0.1 -0.1)">
       <use xlink:href="#DejaVuSerif-30"/>
      </g>
     </g>
    </g>
    <g id="xtick_9">
     <g id="line2d_48">
      <path d="M 556.808839 315.919355 
L 556.808839 27.172411 
" clip-path="url(#pf5539569ef)" style="fill: none; stroke: #cccccc; stroke-width: 0.8; stroke-linecap: round"/>
     </g>
     <g id="line2d_49"/>
     <g id="text_21">
      <!-- 20 -->
      <g style="fill: #262626" transform="translate(550.446339 327.017793) scale(0.1 -0.1)">
       <use xlink:href="#DejaVuSerif-32"/>
       <use xlink:href="#DejaVuSerif-30" transform="translate(63.623047 0)"/>
      </g>
     </g>
    </g>
    <g id="xtick_10">
     <g id="line2d_50">
      <path d="M 607.684416 315.919355 
L 607.684416 27.172411 
" clip-path="url(#pf5539569ef)" style="fill: none; stroke: #cccccc; stroke-width: 0.8; stroke-linecap: round"/>
     </g>
     <g id="line2d_51"/>
     <g id="text_22">
      <!-- 40 -->
      <g style="fill: #262626" transform="translate(601.321916 327.017793) scale(0.1 -0.1)">
       <use xlink:href="#DejaVuSerif-34"/>
       <use xlink:href="#DejaVuSerif-30" transform="translate(63.623047 0)"/>
      </g>
     </g>
    </g>
    <g id="xtick_11">
     <g id="line2d_52">
      <path d="M 658.559993 315.919355 
L 658.559993 27.172411 
" clip-path="url(#pf5539569ef)" style="fill: none; stroke: #cccccc; stroke-width: 0.8; stroke-linecap: round"/>
     </g>
     <g id="line2d_53"/>
     <g id="text_23">
      <!-- 60 -->
      <g style="fill: #262626" transform="translate(652.197493 327.017793) scale(0.1 -0.1)">
       <use xlink:href="#DejaVuSerif-36"/>
       <use xlink:href="#DejaVuSerif-30" transform="translate(63.623047 0)"/>
      </g>
     </g>
    </g>
    <g id="xtick_12">
     <g id="line2d_54">
      <path d="M 709.43557 315.919355 
L 709.43557 27.172411 
" clip-path="url(#pf5539569ef)" style="fill: none; stroke: #cccccc; stroke-width: 0.8; stroke-linecap: round"/>
     </g>
     <g id="line2d_55"/>
     <g id="text_24">
      <!-- 80 -->
      <g style="fill: #262626" transform="translate(703.07307 327.017793) scale(0.1 -0.1)">
       <use xlink:href="#DejaVuSerif-38"/>
       <use xlink:href="#DejaVuSerif-30" transform="translate(63.623047 0)"/>
      </g>
     </g>
    </g>
    <g id="xtick_13">
     <g id="line2d_56">
      <path d="M 760.311148 315.919355 
L 760.311148 27.172411 
" clip-path="url(#pf5539569ef)" style="fill: none; stroke: #cccccc; stroke-width: 0.8; stroke-linecap: round"/>
     </g>
     <g id="line2d_57"/>
     <g id="text_25">
      <!-- 100 -->
      <g style="fill: #262626" transform="translate(750.767398 327.017793) scale(0.1 -0.1)">
       <use xlink:href="#DejaVuSerif-31"/>
       <use xlink:href="#DejaVuSerif-30" transform="translate(63.623047 0)"/>
       <use xlink:href="#DejaVuSerif-30" transform="translate(127.246094 0)"/>
      </g>
     </g>
    </g>
    <g id="xtick_14">
     <g id="line2d_58">
      <path d="M 811.186725 315.919355 
L 811.186725 27.172411 
" clip-path="url(#pf5539569ef)" style="fill: none; stroke: #cccccc; stroke-width: 0.8; stroke-linecap: round"/>
     </g>
     <g id="line2d_59"/>
     <g id="text_26">
      <!-- 120 -->
      <g style="fill: #262626" transform="translate(801.642975 327.017793) scale(0.1 -0.1)">
       <use xlink:href="#DejaVuSerif-31"/>
       <use xlink:href="#DejaVuSerif-32" transform="translate(63.623047 0)"/>
       <use xlink:href="#DejaVuSerif-30" transform="translate(127.246094 0)"/>
      </g>
     </g>
    </g>
    <g id="text_27">
     <!-- Refinement Step (K) -->
     <g style="fill: #262626" transform="translate(607.974498 342.215605) scale(0.12 -0.12)">
      <use xlink:href="#DejaVuSerif-52"/>
      <use xlink:href="#DejaVuSerif-65" transform="translate(75.292969 0)"/>
      <use xlink:href="#DejaVuSerif-66" transform="translate(134.472656 0)"/>
      <use xlink:href="#DejaVuSerif-69" transform="translate(171.484375 0)"/>
      <use xlink:href="#DejaVuSerif-6e" transform="translate(203.466797 0)"/>
      <use xlink:href="#DejaVuSerif-65" transform="translate(267.871094 0)"/>
      <use xlink:href="#DejaVuSerif-6d" transform="translate(327.050781 0)"/>
      <use xlink:href="#DejaVuSerif-65" transform="translate(421.875 0)"/>
      <use xlink:href="#DejaVuSerif-6e" transform="translate(481.054688 0)"/>
      <use xlink:href="#DejaVuSerif-74" transform="translate(545.458984 0)"/>
      <use xlink:href="#DejaVuSerif-20" transform="translate(585.644531 0)"/>
      <use xlink:href="#DejaVuSerif-53" transform="translate(617.431641 0)"/>
      <use xlink:href="#DejaVuSerif-74" transform="translate(685.9375 0)"/>
      <use xlink:href="#DejaVuSerif-65" transform="translate(726.123047 0)"/>
      <use xlink:href="#DejaVuSerif-70" transform="translate(785.302734 0)"/>
      <use xlink:href="#DejaVuSerif-20" transform="translate(849.316406 0)"/>
      <use xlink:href="#DejaVuSerif-28" transform="translate(881.103516 0)"/>
      <use xlink:href="#DejaVuSerif-4b" transform="translate(920.117188 0)"/>
      <use xlink:href="#DejaVuSerif-29" transform="translate(994.824219 0)"/>
     </g>
    </g>
   </g>
   <g id="matplotlib.axis_4">
    <g id="ytick_28">
     <g id="line2d_60">
      <path d="M 492.324044 315.919355 
L 847.689952 315.919355 
" clip-path="url(#pf5539569ef)" style="fill: none; stroke: #cccccc; stroke-width: 0.8; stroke-linecap: round"/>
     </g>
     <g id="line2d_61"/>
     <g id="text_28">
      <!-- 0 -->
      <g style="fill: #262626" transform="translate(482.461544 319.718574) scale(0.1 -0.1)">
       <use xlink:href="#DejaVuSerif-30"/>
      </g>
     </g>
    </g>
    <g id="ytick_29">
     <g id="line2d_62">
      <path d="M 492.324044 260.919937 
L 847.689952 260.919937 
" clip-path="url(#pf5539569ef)" style="fill: none; stroke: #cccccc; stroke-width: 0.8; stroke-linecap: round"/>
     </g>
     <g id="line2d_63"/>
     <g id="text_29">
      <!-- 20 -->
      <g style="fill: #262626" transform="translate(476.099044 264.719156) scale(0.1 -0.1)">
       <use xlink:href="#DejaVuSerif-32"/>
       <use xlink:href="#DejaVuSerif-30" transform="translate(63.623047 0)"/>
      </g>
     </g>
    </g>
    <g id="ytick_30">
     <g id="line2d_64">
      <path d="M 492.324044 205.920519 
L 847.689952 205.920519 
" clip-path="url(#pf5539569ef)" style="fill: none; stroke: #cccccc; stroke-width: 0.8; stroke-linecap: round"/>
     </g>
     <g id="line2d_65"/>
     <g id="text_30">
      <!-- 40 -->
      <g style="fill: #262626" transform="translate(476.099044 209.719738) scale(0.1 -0.1)">
       <use xlink:href="#DejaVuSerif-34"/>
       <use xlink:href="#DejaVuSerif-30" transform="translate(63.623047 0)"/>
      </g>
     </g>
    </g>
    <g id="ytick_31">
     <g id="line2d_66">
      <path d="M 492.324044 150.921101 
L 847.689952 150.921101 
" clip-path="url(#pf5539569ef)" style="fill: none; stroke: #cccccc; stroke-width: 0.8; stroke-linecap: round"/>
     </g>
     <g id="line2d_67"/>
     <g id="text_31">
      <!-- 60 -->
      <g style="fill: #262626" transform="translate(476.099044 154.72032) scale(0.1 -0.1)">
       <use xlink:href="#DejaVuSerif-36"/>
       <use xlink:href="#DejaVuSerif-30" transform="translate(63.623047 0)"/>
      </g>
     </g>
    </g>
    <g id="ytick_32">
     <g id="line2d_68">
      <path d="M 492.324044 95.921683 
L 847.689952 95.921683 
" clip-path="url(#pf5539569ef)" style="fill: none; stroke: #cccccc; stroke-width: 0.8; stroke-linecap: round"/>
     </g>
     <g id="line2d_69"/>
     <g id="text_32">
      <!-- 80 -->
      <g style="fill: #262626" transform="translate(476.099044 99.720902) scale(0.1 -0.1)">
       <use xlink:href="#DejaVuSerif-38"/>
       <use xlink:href="#DejaVuSerif-30" transform="translate(63.623047 0)"/>
      </g>
     </g>
    </g>
    <g id="ytick_33">
     <g id="line2d_70">
      <path d="M 492.324044 40.922265 
L 847.689952 40.922265 
" clip-path="url(#pf5539569ef)" style="fill: none; stroke: #cccccc; stroke-width: 0.8; stroke-linecap: round"/>
     </g>
     <g id="line2d_71"/>
     <g id="text_33">
      <!-- 100 -->
      <g style="fill: #262626" transform="translate(469.736544 44.721484) scale(0.1 -0.1)">
       <use xlink:href="#DejaVuSerif-31"/>
       <use xlink:href="#DejaVuSerif-30" transform="translate(63.623047 0)"/>
       <use xlink:href="#DejaVuSerif-30" transform="translate(127.246094 0)"/>
      </g>
     </g>
    </g>
    <g id="text_34">
     <!-- Distance to Optimal (%) -->
     <g style="fill: #262626" transform="translate(463.240919 244.52182) rotate(-90) scale(0.12 -0.12)">
      <defs>
       <path id="DejaVuSerif-73" d="M 359 184 
L 359 959 
L 691 959 
Q 703 588 923 403 
Q 1144 219 1575 219 
Q 1963 219 2166 364 
Q 2369 509 2369 788 
Q 2369 1006 2220 1140 
Q 2072 1275 1594 1428 
L 1178 1569 
Q 750 1706 558 1912 
Q 366 2119 366 2438 
Q 366 2894 700 3153 
Q 1034 3413 1625 3413 
Q 1888 3413 2178 3344 
Q 2469 3275 2778 3144 
L 2778 2419 
L 2447 2419 
Q 2434 2741 2221 2922 
Q 2009 3103 1644 3103 
Q 1281 3103 1095 2975 
Q 909 2847 909 2591 
Q 909 2381 1050 2254 
Q 1191 2128 1613 1997 
L 2069 1856 
Q 2541 1709 2748 1489 
Q 2956 1269 2956 922 
Q 2956 450 2595 179 
Q 2234 -91 1600 -91 
Q 1278 -91 972 -22 
Q 666 47 359 184 
z
" transform="scale(0.015625)"/>
       <path id="DejaVuSerif-4f" d="M 2625 244 
Q 3391 244 3781 770 
Q 4172 1297 4172 2328 
Q 4172 3363 3781 3889 
Q 3391 4416 2625 4416 
Q 1856 4416 1465 3889 
Q 1075 3363 1075 2328 
Q 1075 1297 1465 770 
Q 1856 244 2625 244 
z
M 2625 -91 
Q 2150 -91 1751 65 
Q 1353 222 1050 525 
Q 700 875 529 1319 
Q 359 1763 359 2328 
Q 359 2894 529 3339 
Q 700 3784 1050 4134 
Q 1356 4441 1750 4595 
Q 2144 4750 2625 4750 
Q 3641 4750 4266 4084 
Q 4891 3419 4891 2328 
Q 4891 1769 4719 1320 
Q 4547 872 4197 525 
Q 3891 219 3497 64 
Q 3103 -91 2625 -91 
z
" transform="scale(0.015625)"/>
       <path id="DejaVuSerif-25" d="M 1434 4459 
Q 1159 4459 1004 4200 
Q 850 3941 850 3475 
Q 850 3016 1008 2753 
Q 1166 2491 1434 2491 
Q 1700 2491 1854 2752 
Q 2009 3013 2009 3475 
Q 2009 3938 1854 4198 
Q 1700 4459 1434 4459 
z
M 4653 2169 
Q 4381 2169 4226 1906 
Q 4072 1644 4072 1178 
Q 4072 719 4228 458 
Q 4384 197 4653 197 
Q 4922 197 5075 458 
Q 5228 719 5228 1178 
Q 5228 1641 5073 1905 
Q 4919 2169 4653 2169 
z
M 4653 2450 
Q 5147 2450 5437 2106 
Q 5728 1763 5728 1178 
Q 5728 594 5436 251 
Q 5144 -91 4653 -91 
Q 4153 -91 3862 251 
Q 3572 594 3572 1178 
Q 3572 1766 3864 2108 
Q 4156 2450 4653 2450 
z
M 4263 4750 
L 4738 4750 
L 1819 -91 
L 1344 -91 
L 4263 4750 
z
M 1428 4750 
Q 1922 4750 2215 4408 
Q 2509 4066 2509 3481 
Q 2509 2891 2217 2550 
Q 1925 2209 1428 2209 
Q 931 2209 642 2551 
Q 353 2894 353 3481 
Q 353 4063 643 4406 
Q 934 4750 1428 4750 
z
" transform="scale(0.015625)"/>
      </defs>
      <use xlink:href="#DejaVuSerif-44"/>
      <use xlink:href="#DejaVuSerif-69" transform="translate(80.175781 0)"/>
      <use xlink:href="#DejaVuSerif-73" transform="translate(112.158203 0)"/>
      <use xlink:href="#DejaVuSerif-74" transform="translate(163.476562 0)"/>
      <use xlink:href="#DejaVuSerif-61" transform="translate(203.662109 0)"/>
      <use xlink:href="#DejaVuSerif-6e" transform="translate(263.28125 0)"/>
      <use xlink:href="#DejaVuSerif-63" transform="translate(327.685547 0)"/>
      <use xlink:href="#DejaVuSerif-65" transform="translate(383.691406 0)"/>
      <use xlink:href="#DejaVuSerif-20" transform="translate(442.871094 0)"/>
      <use xlink:href="#DejaVuSerif-74" transform="translate(474.658203 0)"/>
      <use xlink:href="#DejaVuSerif-6f" transform="translate(514.84375 0)"/>
      <use xlink:href="#DejaVuSerif-20" transform="translate(575.048828 0)"/>
      <use xlink:href="#DejaVuSerif-4f" transform="translate(606.835938 0)"/>
      <use xlink:href="#DejaVuSerif-70" transform="translate(688.818359 0)"/>
      <use xlink:href="#DejaVuSerif-74" transform="translate(752.832031 0)"/>
      <use xlink:href="#DejaVuSerif-69" transform="translate(793.017578 0)"/>
      <use xlink:href="#DejaVuSerif-6d" transform="translate(825 0)"/>
      <use xlink:href="#DejaVuSerif-61" transform="translate(919.824219 0)"/>
      <use xlink:href="#DejaVuSerif-6c" transform="translate(979.443359 0)"/>
      <use xlink:href="#DejaVuSerif-20" transform="translate(1011.425781 0)"/>
      <use xlink:href="#DejaVuSerif-28" transform="translate(1043.212891 0)"/>
      <use xlink:href="#DejaVuSerif-25" transform="translate(1082.226562 0)"/>
      <use xlink:href="#DejaVuSerif-29" transform="translate(1177.246094 0)"/>
     </g>
    </g>
   </g>
   <g id="FillBetweenPolyCollection_2">
    <defs>
     <path id="m7de19e2577" d="M 508.47704 -35.991875 
L 508.47704 -276.195855 
L 511.020819 -250.118018 
L 513.564598 -229.901416 
L 516.108377 -213.807661 
L 518.652156 -200.719392 
L 521.195935 -189.886755 
L 523.739713 -180.788382 
L 526.283492 -173.050884 
L 528.827271 -166.400043 
L 531.37105 -160.630075 
L 533.914829 -155.583629 
L 536.458608 -151.138389 
L 539.002387 -147.197877 
L 541.546165 -143.685007 
L 544.089944 -140.537463 
L 546.633723 -137.704337 
L 549.177502 -135.14365 
L 551.721281 -132.820478 
L 554.26506 -130.705543 
L 556.808839 -128.774114 
L 559.352617 -127.005169 
L 561.896396 -125.380721 
L 564.440175 -123.885297 
L 566.983954 -122.505512 
L 569.527733 -121.229732 
L 572.071512 -120.047799 
L 574.615291 -118.950804 
L 577.159069 -117.930899 
L 579.702848 -116.98115 
L 582.246627 -116.095407 
L 584.790406 -115.268192 
L 587.334185 -114.494617 
L 589.877964 -113.770304 
L 592.421743 -113.09132 
L 594.965522 -112.454124 
L 597.5093 -111.855518 
L 600.053079 -111.29261 
L 602.596858 -110.762774 
L 605.140637 -110.263624 
L 607.684416 -109.792987 
L 610.228195 -109.348878 
L 612.771974 -108.929483 
L 615.315752 -108.533141 
L 617.859531 -108.158324 
L 620.40331 -107.80363 
L 622.947089 -107.467769 
L 625.490868 -107.14955 
L 628.034647 -106.847873 
L 630.578426 -106.561721 
L 633.122204 -106.290154 
L 635.665983 -106.032297 
L 638.209762 -105.787341 
L 640.753541 -105.554534 
L 643.29732 -105.333173 
L 645.841099 -105.122608 
L 648.384878 -104.922229 
L 650.928657 -104.731469 
L 653.472435 -104.549798 
L 656.016214 -104.376718 
L 658.559993 -104.211767 
L 661.103772 -104.05451 
L 663.647551 -103.904537 
L 666.19133 -103.761469 
L 668.735109 -103.624944 
L 671.278887 -103.494626 
L 673.822666 -103.370197 
L 676.366445 -103.251359 
L 678.910224 -103.137831 
L 681.454003 -103.029347 
L 683.997782 -102.925658 
L 686.541561 -102.826528 
L 689.085339 -102.731735 
L 691.629118 -102.641069 
L 694.172897 -102.554331 
L 696.716676 -102.471334 
L 699.260455 -102.391899 
L 701.804234 -102.31586 
L 704.348013 -102.243056 
L 706.891792 -102.173338 
L 709.43557 -102.106561 
L 711.979349 -102.042591 
L 714.523128 -101.9813 
L 717.066907 -101.922565 
L 719.610686 -101.866271 
L 722.154465 -101.812307 
L 724.698244 -101.760569 
L 727.242022 -101.710959 
L 729.785801 -101.66338 
L 732.32958 -101.617745 
L 734.873359 -101.573967 
L 737.417138 -101.531966 
L 739.960917 -101.491663 
L 742.504696 -101.452985 
L 745.048474 -101.415862 
L 747.592253 -101.380227 
L 750.136032 -101.346017 
L 752.679811 -101.31317 
L 755.22359 -101.281629 
L 757.767369 -101.251339 
L 760.311148 -101.222246 
L 762.854926 -101.1943 
L 765.398705 -101.167454 
L 767.942484 -101.141661 
L 770.486263 -101.116878 
L 773.030042 -101.093062 
L 775.573821 -101.070175 
L 778.1176 -101.048177 
L 780.661379 -101.027033 
L 783.205157 -101.006706 
L 785.748936 -100.987165 
L 788.292715 -100.968376 
L 790.836494 -100.95031 
L 793.380273 -100.932938 
L 795.924052 -100.91623 
L 798.467831 -100.900161 
L 801.011609 -100.884706 
L 803.555388 -100.869838 
L 806.099167 -100.855536 
L 808.642946 -100.841776 
L 811.186725 -100.828537 
L 813.730504 -100.815798 
L 816.274283 -100.80354 
L 818.818061 -100.791744 
L 821.36184 -100.780391 
L 823.905619 -100.769464 
L 826.449398 -100.758947 
L 828.993177 -100.748823 
L 831.536956 -100.739077 
L 831.536956 -35.991875 
L 831.536956 -35.991875 
L 828.993177 -35.991875 
L 826.449398 -35.991875 
L 823.905619 -35.991875 
L 821.36184 -35.991875 
L 818.818061 -35.991875 
L 816.274283 -35.991875 
L 813.730504 -35.991875 
L 811.186725 -35.991875 
L 808.642946 -35.991875 
L 806.099167 -35.991875 
L 803.555388 -35.991875 
L 801.011609 -35.991875 
L 798.467831 -35.991875 
L 795.924052 -35.991875 
L 793.380273 -35.991875 
L 790.836494 -35.991875 
L 788.292715 -35.991875 
L 785.748936 -35.991875 
L 783.205157 -35.991875 
L 780.661379 -35.991875 
L 778.1176 -35.991875 
L 775.573821 -35.991875 
L 773.030042 -35.991875 
L 770.486263 -35.991875 
L 767.942484 -35.991875 
L 765.398705 -35.991875 
L 762.854926 -35.991875 
L 760.311148 -35.991875 
L 757.767369 -35.991875 
L 755.22359 -35.991875 
L 752.679811 -35.991875 
L 750.136032 -35.991875 
L 747.592253 -35.991875 
L 745.048474 -35.991875 
L 742.504696 -35.991875 
L 739.960917 -35.991875 
L 737.417138 -35.991875 
L 734.873359 -35.991875 
L 732.32958 -35.991875 
L 729.785801 -35.991875 
L 727.242022 -35.991875 
L 724.698244 -35.991875 
L 722.154465 -35.991875 
L 719.610686 -35.991875 
L 717.066907 -35.991875 
L 714.523128 -35.991875 
L 711.979349 -35.991875 
L 709.43557 -35.991875 
L 706.891792 -35.991875 
L 704.348013 -35.991875 
L 701.804234 -35.991875 
L 699.260455 -35.991875 
L 696.716676 -35.991875 
L 694.172897 -35.991875 
L 691.629118 -35.991875 
L 689.085339 -35.991875 
L 686.541561 -35.991875 
L 683.997782 -35.991875 
L 681.454003 -35.991875 
L 678.910224 -35.991875 
L 676.366445 -35.991875 
L 673.822666 -35.991875 
L 671.278887 -35.991875 
L 668.735109 -35.991875 
L 666.19133 -35.991875 
L 663.647551 -35.991875 
L 661.103772 -35.991875 
L 658.559993 -35.991875 
L 656.016214 -35.991875 
L 653.472435 -35.991875 
L 650.928657 -35.991875 
L 648.384878 -35.991875 
L 645.841099 -35.991875 
L 643.29732 -35.991875 
L 640.753541 -35.991875 
L 638.209762 -35.991875 
L 635.665983 -35.991875 
L 633.122204 -35.991875 
L 630.578426 -35.991875 
L 628.034647 -35.991875 
L 625.490868 -35.991875 
L 622.947089 -35.991875 
L 620.40331 -35.991875 
L 617.859531 -35.991875 
L 615.315752 -35.991875 
L 612.771974 -35.991875 
L 610.228195 -35.991875 
L 607.684416 -35.991875 
L 605.140637 -35.991875 
L 602.596858 -35.991875 
L 600.053079 -35.991875 
L 597.5093 -35.991875 
L 594.965522 -35.991875 
L 592.421743 -35.991875 
L 589.877964 -35.991875 
L 587.334185 -35.991875 
L 584.790406 -35.991875 
L 582.246627 -35.991875 
L 579.702848 -35.991875 
L 577.159069 -35.991875 
L 574.615291 -35.991875 
L 572.071512 -35.991875 
L 569.527733 -35.991875 
L 566.983954 -35.991875 
L 564.440175 -35.991875 
L 561.896396 -35.991875 
L 559.352617 -35.991875 
L 556.808839 -35.991875 
L 554.26506 -35.991875 
L 551.721281 -35.991875 
L 549.177502 -35.991875 
L 546.633723 -35.991875 
L 544.089944 -35.991875 
L 541.546165 -35.991875 
L 539.002387 -35.991875 
L 536.458608 -35.991875 
L 533.914829 -35.991875 
L 531.37105 -35.991875 
L 528.827271 -35.991875 
L 526.283492 -35.991875 
L 523.739713 -35.991875 
L 521.195935 -35.991875 
L 518.652156 -35.991875 
L 516.108377 -35.991875 
L 513.564598 -35.991875 
L 511.020819 -35.991875 
L 508.47704 -35.991875 
z
" style="stroke: #2d6a4f; stroke-opacity: 0.2"/>
    </defs>
    <g clip-path="url(#pf5539569ef)">
     <use xlink:href="#m7de19e2577" x="0" y="351.91123" style="fill: #2d6a4f; fill-opacity: 0.2; stroke: #2d6a4f; stroke-opacity: 0.2"/>
    </g>
   </g>
   <g id="line2d_72">
    <path d="M 508.47704 75.715375 
L 511.020819 101.793213 
L 513.564598 122.009814 
L 516.108377 138.10357 
L 518.652156 151.191838 
L 521.195935 162.024476 
L 523.739713 171.122848 
L 526.283492 178.860346 
L 528.827271 185.511187 
L 531.37105 191.281155 
L 533.914829 196.327601 
L 536.458608 200.772842 
L 539.002387 204.713353 
L 541.546165 208.226223 
L 544.089944 211.373768 
L 546.633723 214.206893 
L 549.177502 216.767581 
L 551.721281 219.090752 
L 554.26506 221.205687 
L 556.808839 223.137116 
L 559.352617 224.906061 
L 564.440175 228.025934 
L 569.527733 230.681498 
L 574.615291 232.960427 
L 579.702848 234.93008 
L 584.790406 236.643038 
L 589.877964 238.140926 
L 594.965522 239.457106 
L 602.596858 241.148457 
L 610.228195 242.562352 
L 617.859531 243.752907 
L 628.034647 245.063357 
L 638.209762 246.123889 
L 650.928657 247.179761 
L 663.647551 248.006693 
L 678.910224 248.7734 
L 696.716676 249.439897 
L 719.610686 250.04496 
L 747.592253 250.531003 
L 783.205157 250.904524 
L 831.536956 251.172153 
L 831.536956 251.172153 
" clip-path="url(#pf5539569ef)" style="fill: none; stroke: #2d6a4f; stroke-width: 2.5; stroke-linecap: round"/>
   </g>
   <g id="line2d_73">
    <path d="M 492.324044 178.42081 
L 847.689952 178.42081 
" clip-path="url(#pf5539569ef)" style="fill: none; stroke-dasharray: 5.55,2.4; stroke-dashoffset: 0; stroke: #e9c46a; stroke-opacity: 0.7; stroke-width: 1.5"/>
   </g>
   <g id="line2d_74">
    <path d="M 492.324044 288.419646 
L 847.689952 288.419646 
" clip-path="url(#pf5539569ef)" style="fill: none; stroke-dasharray: 5.55,2.4; stroke-dashoffset: 0; stroke: #e9c46a; stroke-opacity: 0.7; stroke-width: 1.5"/>
   </g>
   <g id="line2d_75">
    <path d="M 492.324044 313.169384 
L 847.689952 313.169384 
" clip-path="url(#pf5539569ef)" style="fill: none; stroke-dasharray: 5.55,2.4; stroke-dashoffset: 0; stroke: #e9c46a; stroke-opacity: 0.7; stroke-width: 1.5"/>
   </g>
   <g id="patch_12">
    <path d="M 492.324044 315.919355 
L 492.324044 27.172411 
" style="fill: none; stroke: #cccccc; stroke-linejoin: miter; stroke-linecap: square"/>
   </g>
   <g id="patch_13">
    <path d="M 492.324044 315.919355 
L 847.689952 315.919355 
" style="fill: none; stroke: #cccccc; stroke-linejoin: miter; stroke-linecap: square"/>
   </g>
   <g id="text_35">
    <!-- 50% remaining -->
    <g style="fill: #e9c46a" transform="translate(531.37105 172.920868) scale(0.09 -0.09)">
     <use xlink:href="#DejaVuSerif-35"/>
     <use xlink:href="#DejaVuSerif-30" transform="translate(63.623047 0)"/>
     <use xlink:href="#DejaVuSerif-25" transform="translate(127.246094 0)"/>
     <use xlink:href="#DejaVuSerif-20" transform="translate(222.265625 0)"/>
     <use xlink:href="#DejaVuSerif-72" transform="translate(254.052734 0)"/>
     <use xlink:href="#DejaVuSerif-65" transform="translate(301.855469 0)"/>
     <use xlink:href="#DejaVuSerif-6d" transform="translate(361.035156 0)"/>
     <use xlink:href="#DejaVuSerif-61" transform="translate(455.859375 0)"/>
     <use xlink:href="#DejaVuSerif-69" transform="translate(515.478516 0)"/>
     <use xlink:href="#DejaVuSerif-6e" transform="translate(547.460938 0)"/>
     <use xlink:href="#DejaVuSerif-69" transform="translate(611.865234 0)"/>
     <use xlink:href="#DejaVuSerif-6e" transform="translate(643.847656 0)"/>
     <use xlink:href="#DejaVuSerif-67" transform="translate(708.251953 0)"/>
    </g>
   </g>
   <g id="text_36">
    <!-- 10% remaining -->
    <g style="fill: #e9c46a" transform="translate(633.122204 282.919704) scale(0.09 -0.09)">
     <use xlink:href="#DejaVuSerif-31"/>
     <use xlink:href="#DejaVuSerif-30" transform="translate(63.623047 0)"/>
     <use xlink:href="#DejaVuSerif-25" transform="translate(127.246094 0)"/>
     <use xlink:href="#DejaVuSerif-20" transform="translate(222.265625 0)"/>
     <use xlink:href="#DejaVuSerif-72" transform="translate(254.052734 0)"/>
     <use xlink:href="#DejaVuSerif-65" transform="translate(301.855469 0)"/>
     <use xlink:href="#DejaVuSerif-6d" transform="translate(361.035156 0)"/>
     <use xlink:href="#DejaVuSerif-61" transform="translate(455.859375 0)"/>
     <use xlink:href="#DejaVuSerif-69" transform="translate(515.478516 0)"/>
     <use xlink:href="#DejaVuSerif-6e" transform="translate(547.460938 0)"/>
     <use xlink:href="#DejaVuSerif-69" transform="translate(611.865234 0)"/>
     <use xlink:href="#DejaVuSerif-6e" transform="translate(643.847656 0)"/>
     <use xlink:href="#DejaVuSerif-67" transform="translate(708.251953 0)"/>
    </g>
   </g>
   <g id="text_37">
    <!-- 1% remaining -->
    <g style="fill: #e9c46a" transform="translate(760.311148 307.669443) scale(0.09 -0.09)">
     <use xlink:href="#DejaVuSerif-31"/>
     <use xlink:href="#DejaVuSerif-25" transform="translate(63.623047 0)"/>
     <use xlink:href="#DejaVuSerif-20" transform="translate(158.642578 0)"/>
     <use xlink:href="#DejaVuSerif-72" transform="translate(190.429688 0)"/>
     <use xlink:href="#DejaVuSerif-65" transform="translate(238.232422 0)"/>
     <use xlink:href="#DejaVuSerif-6d" transform="translate(297.412109 0)"/>
     <use xlink:href="#DejaVuSerif-61" transform="translate(392.236328 0)"/>
     <use xlink:href="#DejaVuSerif-69" transform="translate(451.855469 0)"/>
     <use xlink:href="#DejaVuSerif-6e" transform="translate(483.837891 0)"/>
     <use xlink:href="#DejaVuSerif-69" transform="translate(548.242188 0)"/>
     <use xlink:href="#DejaVuSerif-6e" transform="translate(580.224609 0)"/>
     <use xlink:href="#DejaVuSerif-67" transform="translate(644.628906 0)"/>
    </g>
   </g>
   <g id="text_38">
    <!-- Guaranteed Convergence to Fixed Point -->
    <g style="fill: #262626" transform="translate(527.60731 21.172411) scale(0.14 -0.14)">
     <defs>
      <path id="DejaVuSerif-47" d="M 4097 3272 
Q 3988 3856 3641 4136 
Q 3294 4416 2675 4416 
Q 1869 4416 1472 3897 
Q 1075 3378 1075 2328 
Q 1075 1300 1484 772 
Q 1894 244 2688 244 
Q 3041 244 3362 331 
Q 3684 419 3975 594 
L 3975 1797 
L 3097 1797 
L 3097 2131 
L 4609 2131 
L 4609 391 
Q 4194 150 3714 29 
Q 3234 -91 2688 -91 
Q 1631 -91 995 570 
Q 359 1231 359 2328 
Q 359 3434 996 4092 
Q 1634 4750 2713 4750 
Q 3113 4750 3539 4658 
Q 3966 4566 4447 4378 
L 4447 3272 
L 4097 3272 
z
" transform="scale(0.015625)"/>
      <path id="DejaVuSerif-46" d="M 353 0 
L 353 331 
L 947 331 
L 947 4331 
L 353 4331 
L 353 4666 
L 4172 4666 
L 4172 3628 
L 3788 3628 
L 3788 4281 
L 1581 4281 
L 1581 2719 
L 3175 2719 
L 3175 3303 
L 3559 3303 
L 3559 1753 
L 3175 1753 
L 3175 2338 
L 1581 2338 
L 1581 331 
L 2328 331 
L 2328 0 
L 353 0 
z
" transform="scale(0.015625)"/>
      <path id="DejaVuSerif-78" d="M 1863 2028 
L 2559 2988 
L 2113 2988 
L 2113 3322 
L 3391 3322 
L 3391 2988 
L 2950 2988 
L 2059 1759 
L 3097 331 
L 3531 331 
L 3531 0 
L 1997 0 
L 1997 331 
L 2419 331 
L 1697 1325 
L 972 331 
L 1403 331 
L 1403 0 
L 141 0 
L 141 331 
L 581 331 
L 1497 1594 
L 488 2988 
L 78 2988 
L 78 3322 
L 1563 3322 
L 1563 2988 
L 1166 2988 
L 1863 2028 
z
" transform="scale(0.015625)"/>
      <path id="DejaVuSerif-50" d="M 1581 2375 
L 2406 2375 
Q 2872 2375 3115 2626 
Q 3359 2878 3359 3353 
Q 3359 3831 3115 4081 
Q 2872 4331 2406 4331 
L 1581 4331 
L 1581 2375 
z
M 353 0 
L 353 331 
L 947 331 
L 947 4331 
L 353 4331 
L 353 4666 
L 2559 4666 
Q 3259 4666 3668 4311 
Q 4078 3956 4078 3353 
Q 4078 2753 3668 2397 
Q 3259 2041 2559 2041 
L 1581 2041 
L 1581 331 
L 2303 331 
L 2303 0 
L 353 0 
z
" transform="scale(0.015625)"/>
     </defs>
     <use xlink:href="#DejaVuSerif-47"/>
     <use xlink:href="#DejaVuSerif-75" transform="translate(79.882812 0)"/>
     <use xlink:href="#DejaVuSerif-61" transform="translate(144.287109 0)"/>
     <use xlink:href="#DejaVuSerif-72" transform="translate(203.90625 0)"/>
     <use xlink:href="#DejaVuSerif-61" transform="translate(251.708984 0)"/>
     <use xlink:href="#DejaVuSerif-6e" transform="translate(311.328125 0)"/>
     <use xlink:href="#DejaVuSerif-74" transform="translate(375.732422 0)"/>
     <use xlink:href="#DejaVuSerif-65" transform="translate(415.917969 0)"/>
     <use xlink:href="#DejaVuSerif-65" transform="translate(475.097656 0)"/>
     <use xlink:href="#DejaVuSerif-64" transform="translate(534.277344 0)"/>
     <use xlink:href="#DejaVuSerif-20" transform="translate(598.291016 0)"/>
     <use xlink:href="#DejaVuSerif-43" transform="translate(630.078125 0)"/>
     <use xlink:href="#DejaVuSerif-6f" transform="translate(706.591797 0)"/>
     <use xlink:href="#DejaVuSerif-6e" transform="translate(766.796875 0)"/>
     <use xlink:href="#DejaVuSerif-76" transform="translate(831.201172 0)"/>
     <use xlink:href="#DejaVuSerif-65" transform="translate(887.695312 0)"/>
     <use xlink:href="#DejaVuSerif-72" transform="translate(946.875 0)"/>
     <use xlink:href="#DejaVuSerif-67" transform="translate(994.677734 0)"/>
     <use xlink:href="#DejaVuSerif-65" transform="translate(1058.691406 0)"/>
     <use xlink:href="#DejaVuSerif-6e" transform="translate(1117.871094 0)"/>
     <use xlink:href="#DejaVuSerif-63" transform="translate(1182.275391 0)"/>
     <use xlink:href="#DejaVuSerif-65" transform="translate(1238.28125 0)"/>
     <use xlink:href="#DejaVuSerif-20" transform="translate(1297.460938 0)"/>
     <use xlink:href="#DejaVuSerif-74" transform="translate(1329.248047 0)"/>
     <use xlink:href="#DejaVuSerif-6f" transform="translate(1369.433594 0)"/>
     <use xlink:href="#DejaVuSerif-20" transform="translate(1429.638672 0)"/>
     <use xlink:href="#DejaVuSerif-46" transform="translate(1461.425781 0)"/>
     <use xlink:href="#DejaVuSerif-69" transform="translate(1530.810547 0)"/>
     <use xlink:href="#DejaVuSerif-78" transform="translate(1562.792969 0)"/>
     <use xlink:href="#DejaVuSerif-65" transform="translate(1619.189453 0)"/>
     <use xlink:href="#DejaVuSerif-64" transform="translate(1678.369141 0)"/>
     <use xlink:href="#DejaVuSerif-20" transform="translate(1742.382812 0)"/>
     <use xlink:href="#DejaVuSerif-50" transform="translate(1774.169922 0)"/>
     <use xlink:href="#DejaVuSerif-6f" transform="translate(1837.455078 0)"/>
     <use xlink:href="#DejaVuSerif-69" transform="translate(1897.660156 0)"/>
     <use xlink:href="#DejaVuSerif-6e" transform="translate(1929.642578 0)"/>
     <use xlink:href="#DejaVuSerif-74" transform="translate(1994.046875 0)"/>
    </g>
   </g>
  </g>
 </g>
 <defs>
  <clipPath id="pa5bc246778">
   <rect x="49.884375" y="27.172411" width="355.365907" height="288.746945"/>
  </clipPath>
  <clipPath id="pf5539569ef">
   <rect x="492.324044" y="27.172411" width="355.365907" height="288.746945"/>
  </clipPath>
 </defs>
</svg>
