<?xml version="1.0" encoding="utf-8" standalone="no"?>
<!DOCTYPE svg PUBLIC "-//W3C//DTD SVG 1.1//EN"
  "http://www.w3.org/Graphics/SVG/1.1/DTD/svg11.dtd">
<svg xmlns:xlink="http://www.w3.org/1999/xlink" width="790.56pt" height="568.8pt" viewBox="0 0 790.56 568.8" xmlns="http://www.w3.org/2000/svg" version="1.1">
 <metadata>
  <rdf:RDF xmlns:dc="http://purl.org/dc/elements/1.1/" xmlns:cc="http://creativecommons.org/ns#" xmlns:rdf="http://www.w3.org/1999/02/22-rdf-syntax-ns#">
   <cc:Work>
    <dc:type rdf:resource="http://purl.org/dc/dcmitype/StillImage"/>
    <dc:date>2026-01-03T19:26:46.233768</dc:date>
    <dc:format>image/svg+xml</dc:format>
    <dc:creator>
     <cc:Agent>
      <dc:title>Matplotlib v3.10.8, https://matplotlib.org/</dc:title>
     </cc:Agent>
    </dc:creator>
   </cc:Work>
  </rdf:RDF>
 </metadata>
 <defs>
  <style type="text/css">*{stroke-linejoin: round; stroke-linecap: butt}</style>
 </defs>
 <g id="figure_1">
  <g id="patch_1">
   <path d="M 0 568.8 
L 790.56 568.8 
L 790.56 0 
L 0 0 
z
" style="fill: #ffffff"/>
  </g>
  <g id="axes_1">
   <g id="patch_2">
    <path d="M 43.236 314.892 
L 137.484 314.892 
Q 148.572 314.892 148.572 303.804 
L 148.572 264.996 
Q 148.572 253.908 137.484 253.908 
L 43.236 253.908 
Q 32.148 253.908 32.148 264.996 
L 32.148 303.804 
Q 32.148 314.892 43.236 314.892 
z
" clip-path="url(#p79503b4882)" style="fill: #0f3460; stroke: #ffffff; stroke-width: 2; stroke-linejoin: miter"/>
   </g>
   <g id="patch_3">
    <path d="M 181.836 314.892 
L 276.084 314.892 
Q 287.172 314.892 287.172 303.804 
L 287.172 264.996 
Q 287.172 253.908 276.084 253.908 
L 181.836 253.908 
Q 170.748 253.908 170.748 264.996 
L 170.748 303.804 
Q 170.748 314.892 181.836 314.892 
z
" clip-path="url(#p79503b4882)" style="fill: #1a1a2e; stroke: #ffffff; stroke-width: 2; stroke-linejoin: miter"/>
   </g>
   <g id="patch_4">
    <path d="M 181.836 176.292 
L 276.084 176.292 
Q 287.172 176.292 287.172 165.204 
L 287.172 137.484 
Q 287.172 126.396 276.084 126.396 
L 181.836 126.396 
Q 170.748 126.396 170.748 137.484 
L 170.748 165.204 
Q 170.748 176.292 181.836 176.292 
z
" clip-path="url(#p79503b4882)" style="fill: #16213e; stroke: #ffffff; stroke-width: 2; stroke-linejoin: miter"/>
   </g>
   <g id="patch_5">
    <path d="M 181.836 442.404 
L 276.084 442.404 
Q 287.172 442.404 287.172 431.316 
L 287.172 403.596 
Q 287.172 392.508 276.084 392.508 
L 181.836 392.508 
Q 170.748 392.508 170.748 403.596 
L 170.748 431.316 
Q 170.748 442.404 181.836 442.404 
z
" clip-path="url(#p79503b4882)" style="fill: #16213e; stroke: #ffffff; stroke-width: 2; stroke-linejoin: miter"/>
   </g>
   <g id="patch_6">
    <path d="M 350.928 483.984 
L 578.232 483.984 
Q 594.864 483.984 594.864 467.352 
L 594.864 101.448 
Q 594.864 84.816 578.232 84.816 
L 350.928 84.816 
Q 334.296 84.816 334.296 101.448 
L 334.296 467.352 
Q 334.296 483.984 350.928 483.984 
L 350.928 483.984 
z
" clip-path="url(#p79503b4882)" style="fill: none; stroke-dasharray: 11.1,4.8; stroke-dashoffset: 0; stroke: #e94560; stroke-width: 3; stroke-linejoin: miter"/>
   </g>
   <g id="patch_7">
    <path d="M 375.876 231.732 
L 553.284 231.732 
Q 564.372 231.732 564.372 220.644 
L 564.372 170.748 
Q 564.372 159.66 553.284 159.66 
L 375.876 159.66 
Q 364.788 159.66 364.788 170.748 
L 364.788 220.644 
Q 364.788 231.732 375.876 231.732 
z
" clip-path="url(#p79503b4882)" style="fill: #1a1a2e; stroke: #ffffff; stroke-width: 2; stroke-linejoin: miter"/>
   </g>
   <g id="patch_8">
    <path d="M 375.876 342.612 
L 553.284 342.612 
Q 564.372 342.612 564.372 331.524 
L 564.372 281.628 
Q 564.372 270.54 553.284 270.54 
L 375.876 270.54 
Q 364.788 270.54 364.788 281.628 
L 364.788 331.524 
Q 364.788 342.612 375.876 342.612 
z
" clip-path="url(#p79503b4882)" style="fill: #2d6a4f; stroke: #ffffff; stroke-width: 2; stroke-linejoin: miter"/>
   </g>
   <g id="patch_9">
    <path d="M 375.876 453.492 
L 553.284 453.492 
Q 564.372 453.492 564.372 442.404 
L 564.372 392.508 
Q 564.372 381.42 553.284 381.42 
L 375.876 381.42 
Q 364.788 381.42 364.788 392.508 
L 364.788 442.404 
Q 364.788 453.492 375.876 453.492 
z
" clip-path="url(#p79503b4882)" style="fill: #2d6a4f; stroke: #ffffff; stroke-width: 2; stroke-linejoin: miter"/>
   </g>
   <g id="patch_10">
    <path d="M 653.076 314.892 
L 747.324 314.892 
Q 758.412 314.892 758.412 303.804 
L 758.412 264.996 
Q 758.412 253.908 747.324 253.908 
L 653.076 253.908 
Q 641.988 253.908 641.988 264.996 
L 641.988 303.804 
Q 641.988 314.892 653.076 314.892 
z
" clip-path="url(#p79503b4882)" style="fill: #1a1a2e; stroke: #ffffff; stroke-width: 2; stroke-linejoin: miter"/>
   </g>
   <g id="text_1">
    <!-- Input Tokens -->
    <g style="fill: #ffffff" transform="translate(53.627969 281.560469) scale(0.1 -0.1)">
     <defs>
      <path id="DejaVuSerif-Bold-49" d="M 300 0 
L 300 378 
L 897 378 
L 897 4288 
L 300 4288 
L 300 4666 
L 2700 4666 
L 2700 4288 
L 2100 4288 
L 2100 378 
L 2700 378 
L 2700 0 
L 300 0 
z
" transform="scale(0.015625)"/>
      <path id="DejaVuSerif-Bold-6e" d="M 219 0 
L 219 378 
L 691 378 
L 691 2944 
L 219 2944 
L 219 3322 
L 1797 3322 
L 1797 2853 
Q 1997 3150 2253 3281 
Q 2509 3413 2900 3413 
Q 3459 3413 3745 3083 
Q 4031 2753 4031 2113 
L 4031 378 
L 4506 378 
L 4506 0 
L 2522 0 
L 2522 378 
L 2925 378 
L 2925 2144 
Q 2925 2566 2817 2730 
Q 2709 2894 2444 2894 
Q 2109 2894 1953 2648 
Q 1797 2403 1797 1869 
L 1797 378 
L 2203 378 
L 2203 0 
L 219 0 
z
" transform="scale(0.015625)"/>
      <path id="DejaVuSerif-Bold-70" d="M 1728 1825 
L 1728 1497 
Q 1728 916 1876 656 
Q 2025 397 2356 397 
Q 2697 397 2836 672 
Q 2975 947 2975 1663 
Q 2975 2378 2836 2651 
Q 2697 2925 2356 2925 
Q 2025 2925 1876 2665 
Q 1728 2406 1728 1825 
z
M 622 2944 
L 147 2944 
L 147 3322 
L 1728 3322 
L 1728 2900 
Q 1869 3159 2106 3286 
Q 2344 3413 2694 3413 
Q 3403 3413 3811 2945 
Q 4219 2478 4219 1663 
Q 4219 847 3811 378 
Q 3403 -91 2694 -91 
Q 2344 -91 2106 36 
Q 1869 163 1728 422 
L 1728 -953 
L 2241 -953 
L 2241 -1331 
L 147 -1331 
L 147 -953 
L 622 -953 
L 622 2944 
z
" transform="scale(0.015625)"/>
      <path id="DejaVuSerif-Bold-75" d="M 3963 3322 
L 3963 378 
L 4434 378 
L 4434 0 
L 2853 0 
L 2853 469 
Q 2656 172 2400 40 
Q 2144 -91 1753 -91 
Q 1194 -91 908 239 
Q 622 569 622 1209 
L 622 2944 
L 147 2944 
L 147 3322 
L 1728 3322 
L 1728 1381 
Q 1728 763 1831 595 
Q 1934 428 2209 428 
Q 2544 428 2698 675 
Q 2853 922 2853 1459 
L 2853 2944 
L 2450 2944 
L 2450 3322 
L 3963 3322 
z
" transform="scale(0.015625)"/>
      <path id="DejaVuSerif-Bold-74" d="M 634 2944 
L 153 2944 
L 153 3322 
L 634 3322 
L 634 4353 
L 1741 4353 
L 1741 3322 
L 2663 3322 
L 2663 2944 
L 1741 2944 
L 1741 909 
Q 1741 475 1809 369 
Q 1878 263 2059 263 
Q 2259 263 2356 397 
Q 2453 531 2459 813 
L 2925 813 
Q 2897 313 2651 111 
Q 2406 -91 1806 -91 
Q 1122 -91 878 123 
Q 634 338 634 909 
L 634 2944 
z
" transform="scale(0.015625)"/>
      <path id="DejaVuSerif-Bold-20" transform="scale(0.015625)"/>
      <path id="DejaVuSerif-Bold-54" d="M 1159 0 
L 1159 378 
L 1778 378 
L 1778 4238 
L 500 4238 
L 500 3500 
L 72 3500 
L 72 4666 
L 4697 4666 
L 4697 3500 
L 4275 3500 
L 4275 4238 
L 2988 4238 
L 2988 378 
L 3609 378 
L 3609 0 
L 1159 0 
z
" transform="scale(0.015625)"/>
      <path id="DejaVuSerif-Bold-6f" d="M 2138 263 
Q 2488 263 2630 563 
Q 2772 863 2772 1663 
Q 2772 2463 2631 2761 
Q 2491 3059 2138 3059 
Q 1784 3059 1640 2757 
Q 1497 2456 1497 1663 
Q 1497 869 1640 566 
Q 1784 263 2138 263 
z
M 2138 -91 
Q 1259 -91 761 376 
Q 263 844 263 1663 
Q 263 2484 761 2948 
Q 1259 3413 2138 3413 
Q 3019 3413 3516 2948 
Q 4013 2484 4013 1663 
Q 4013 844 3514 376 
Q 3016 -91 2138 -91 
z
" transform="scale(0.015625)"/>
      <path id="DejaVuSerif-Bold-6b" d="M 2216 0 
L 219 0 
L 219 378 
L 691 378 
L 691 4488 
L 219 4488 
L 219 4863 
L 1797 4863 
L 1797 1741 
L 3138 2944 
L 2741 2944 
L 2741 3322 
L 4256 3322 
L 4256 2944 
L 3641 2944 
L 2784 2175 
L 4184 378 
L 4544 378 
L 4544 0 
L 2638 0 
L 2638 378 
L 3028 378 
L 2106 1563 
L 1797 1288 
L 1797 378 
L 2216 378 
L 2216 0 
z
" transform="scale(0.015625)"/>
      <path id="DejaVuSerif-Bold-65" d="M 2566 1875 
Q 2566 2531 2444 2795 
Q 2322 3059 2028 3059 
Q 1744 3059 1620 2800 
Q 1497 2541 1497 1931 
L 1497 1875 
L 2566 1875 
z
M 3781 1503 
L 1497 1503 
L 1497 1478 
Q 1497 834 1690 548 
Q 1884 263 2316 263 
Q 2675 263 2897 453 
Q 3119 644 3181 1006 
L 3700 1006 
Q 3566 441 3166 175 
Q 2766 -91 2047 -91 
Q 1184 -91 723 364 
Q 263 819 263 1663 
Q 263 2488 734 2950 
Q 1206 3413 2047 3413 
Q 2872 3413 3312 2927 
Q 3753 2441 3781 1503 
z
" transform="scale(0.015625)"/>
      <path id="DejaVuSerif-Bold-73" d="M 300 97 
L 300 1025 
L 653 1025 
Q 697 653 931 458 
Q 1166 263 1569 263 
Q 1906 263 2086 380 
Q 2266 497 2266 716 
Q 2266 916 2152 1025 
Q 2038 1134 1709 1216 
L 1253 1331 
Q 738 1459 506 1698 
Q 275 1938 275 2344 
Q 275 2884 650 3148 
Q 1025 3413 1806 3413 
Q 2100 3413 2433 3364 
Q 2766 3316 3169 3213 
L 3169 2375 
L 2816 2375 
Q 2788 2716 2573 2887 
Q 2359 3059 1959 3059 
Q 1622 3059 1448 2951 
Q 1275 2844 1275 2638 
Q 1275 2469 1375 2372 
Q 1475 2275 1734 2209 
L 2188 2094 
Q 2841 1928 3091 1684 
Q 3341 1441 3341 1006 
Q 3341 444 2939 176 
Q 2538 -91 1691 -91 
Q 1381 -91 1034 -44 
Q 688 3 300 97 
z
" transform="scale(0.015625)"/>
     </defs>
     <use xlink:href="#DejaVuSerif-Bold-49"/>
     <use xlink:href="#DejaVuSerif-Bold-6e" transform="translate(46.777344 0)"/>
     <use xlink:href="#DejaVuSerif-Bold-70" transform="translate(119.482422 0)"/>
     <use xlink:href="#DejaVuSerif-Bold-75" transform="translate(189.404297 0)"/>
     <use xlink:href="#DejaVuSerif-Bold-74" transform="translate(262.109375 0)"/>
     <use xlink:href="#DejaVuSerif-Bold-20" transform="translate(308.300781 0)"/>
     <use xlink:href="#DejaVuSerif-Bold-54" transform="translate(343.115234 0)"/>
     <use xlink:href="#DejaVuSerif-Bold-6f" transform="translate(406.029297 0)"/>
     <use xlink:href="#DejaVuSerif-Bold-6b" transform="translate(472.728516 0)"/>
     <use xlink:href="#DejaVuSerif-Bold-65" transform="translate(542.015625 0)"/>
     <use xlink:href="#DejaVuSerif-Bold-6e" transform="translate(605.638672 0)"/>
     <use xlink:href="#DejaVuSerif-Bold-73" transform="translate(678.34375 0)"/>
    </g>
    <!-- (x) -->
    <g style="fill: #ffffff" transform="translate(82.6475 292.758281) scale(0.1 -0.1)">
     <defs>
      <path id="DejaVuSerif-Bold-28" d="M 2694 -997 
Q 1641 -606 1122 122 
Q 603 850 603 1931 
Q 603 3013 1115 3731 
Q 1628 4450 2694 4863 
L 2694 4488 
Q 2200 4188 1983 3598 
Q 1766 3009 1766 1931 
Q 1766 856 1983 267 
Q 2200 -322 2694 -622 
L 2694 -997 
z
" transform="scale(0.015625)"/>
      <path id="DejaVuSerif-Bold-78" d="M 2247 2119 
L 2834 2944 
L 2425 2944 
L 2425 3322 
L 3719 3322 
L 3719 2944 
L 3278 2944 
L 2431 1759 
L 3419 378 
L 3859 378 
L 3859 0 
L 1747 0 
L 1747 378 
L 2175 378 
L 1550 1253 
L 922 378 
L 1369 378 
L 1369 0 
L 0 0 
L 0 378 
L 475 378 
L 1356 1619 
L 403 2944 
L 31 2944 
L 31 3322 
L 2059 3322 
L 2059 2944 
L 1656 2944 
L 2247 2119 
z
" transform="scale(0.015625)"/>
      <path id="DejaVuSerif-Bold-29" d="M 325 -997 
L 325 -622 
Q 819 -322 1036 267 
Q 1253 856 1253 1931 
Q 1253 3009 1036 3598 
Q 819 4188 325 4488 
L 325 4863 
Q 1391 4450 1905 3731 
Q 2419 3013 2419 1931 
Q 2419 850 1898 122 
Q 1378 -606 325 -997 
z
" transform="scale(0.015625)"/>
     </defs>
     <use xlink:href="#DejaVuSerif-Bold-28"/>
     <use xlink:href="#DejaVuSerif-Bold-78" transform="translate(47.314453 0)"/>
     <use xlink:href="#DejaVuSerif-Bold-29" transform="translate(106.933594 0)"/>
    </g>
   </g>
   <g id="text_2">
    <!-- Token -->
    <g style="fill: #ffffff" transform="translate(212.198281 281.489375) scale(0.1 -0.1)">
     <use xlink:href="#DejaVuSerif-Bold-54"/>
     <use xlink:href="#DejaVuSerif-Bold-6f" transform="translate(62.914062 0)"/>
     <use xlink:href="#DejaVuSerif-Bold-6b" transform="translate(129.613281 0)"/>
     <use xlink:href="#DejaVuSerif-Bold-65" transform="translate(198.900391 0)"/>
     <use xlink:href="#DejaVuSerif-Bold-6e" transform="translate(262.523438 0)"/>
    </g>
    <!-- Embedding -->
    <g style="fill: #ffffff" transform="translate(197.158437 292.687188) scale(0.1 -0.1)">
     <defs>
      <path id="DejaVuSerif-Bold-45" d="M 300 0 
L 300 378 
L 897 378 
L 897 4288 
L 300 4288 
L 300 4666 
L 4494 4666 
L 4494 3566 
L 4063 3566 
L 4063 4238 
L 2100 4238 
L 2100 2741 
L 3322 2741 
L 3322 3334 
L 3750 3334 
L 3750 1722 
L 3322 1722 
L 3322 2316 
L 2100 2316 
L 2100 428 
L 4122 428 
L 4122 1100 
L 4550 1100 
L 4550 0 
L 300 0 
z
" transform="scale(0.015625)"/>
      <path id="DejaVuSerif-Bold-6d" d="M 3884 2778 
Q 4116 3109 4384 3261 
Q 4653 3413 5013 3413 
Q 5584 3413 5867 3089 
Q 6150 2766 6150 2113 
L 6150 378 
L 6625 378 
L 6625 0 
L 4647 0 
L 4647 378 
L 5044 378 
L 5044 1947 
Q 5044 2569 4948 2731 
Q 4853 2894 4594 2894 
Q 4300 2894 4137 2667 
Q 3975 2441 3975 2022 
L 3975 378 
L 4372 378 
L 4372 0 
L 2472 0 
L 2472 378 
L 2869 378 
L 2869 1947 
Q 2869 2569 2772 2731 
Q 2675 2894 2419 2894 
Q 2122 2894 1959 2667 
Q 1797 2441 1797 2022 
L 1797 378 
L 2194 378 
L 2194 0 
L 219 0 
L 219 378 
L 691 378 
L 691 2944 
L 219 2944 
L 219 3322 
L 1797 3322 
L 1797 2853 
Q 1991 3144 2241 3278 
Q 2491 3413 2834 3413 
Q 3241 3413 3494 3258 
Q 3747 3103 3884 2778 
z
" transform="scale(0.015625)"/>
      <path id="DejaVuSerif-Bold-62" d="M 622 378 
L 622 4488 
L 147 4488 
L 147 4863 
L 1728 4863 
L 1728 2900 
Q 1869 3159 2106 3286 
Q 2344 3413 2694 3413 
Q 3403 3413 3811 2945 
Q 4219 2478 4219 1663 
Q 4219 847 3811 378 
Q 3403 -91 2694 -91 
Q 2344 -91 2106 36 
Q 1869 163 1728 422 
L 1728 0 
L 147 0 
L 147 378 
L 622 378 
z
M 1728 1497 
Q 1728 916 1876 656 
Q 2025 397 2356 397 
Q 2697 397 2836 672 
Q 2975 947 2975 1663 
Q 2975 2378 2836 2651 
Q 2697 2925 2356 2925 
Q 2025 2925 1876 2665 
Q 1728 2406 1728 1825 
L 1728 1497 
z
" transform="scale(0.015625)"/>
      <path id="DejaVuSerif-Bold-64" d="M 2747 1497 
L 2747 1825 
Q 2747 2406 2597 2665 
Q 2447 2925 2119 2925 
Q 1775 2925 1636 2651 
Q 1497 2378 1497 1663 
Q 1497 947 1637 672 
Q 1778 397 2119 397 
Q 2447 397 2597 656 
Q 2747 916 2747 1497 
z
M 3853 378 
L 4325 378 
L 4325 0 
L 2747 0 
L 2747 422 
Q 2606 163 2367 36 
Q 2128 -91 1778 -91 
Q 1072 -91 667 378 
Q 263 847 263 1663 
Q 263 2481 667 2947 
Q 1072 3413 1778 3413 
Q 2128 3413 2367 3286 
Q 2606 3159 2747 2900 
L 2747 4488 
L 2272 4488 
L 2272 4863 
L 3853 4863 
L 3853 378 
z
" transform="scale(0.015625)"/>
      <path id="DejaVuSerif-Bold-69" d="M 588 4263 
Q 588 4516 763 4689 
Q 938 4863 1191 4863 
Q 1438 4863 1611 4689 
Q 1784 4516 1784 4263 
Q 1784 4016 1611 3842 
Q 1438 3669 1191 3669 
Q 938 3669 763 3841 
Q 588 4013 588 4263 
z
M 1797 378 
L 2272 378 
L 2272 0 
L 219 0 
L 219 378 
L 691 378 
L 691 2944 
L 219 2944 
L 219 3322 
L 1797 3322 
L 1797 378 
z
" transform="scale(0.015625)"/>
      <path id="DejaVuSerif-Bold-67" d="M 3853 2944 
L 3853 44 
Q 3853 -656 3354 -1039 
Q 2856 -1422 1947 -1422 
Q 1616 -1422 1275 -1370 
Q 934 -1319 575 -1216 
L 575 -422 
L 928 -422 
Q 975 -750 1192 -909 
Q 1409 -1069 1813 -1069 
Q 2325 -1069 2536 -823 
Q 2747 -578 2747 44 
L 2747 422 
Q 2606 163 2367 36 
Q 2128 -91 1778 -91 
Q 1072 -91 667 378 
Q 263 847 263 1663 
Q 263 2481 667 2947 
Q 1072 3413 1778 3413 
Q 2128 3413 2367 3286 
Q 2606 3159 2747 2900 
L 2747 3322 
L 4325 3322 
L 4325 2944 
L 3853 2944 
z
M 2747 1825 
Q 2747 2406 2597 2665 
Q 2447 2925 2119 2925 
Q 1775 2925 1636 2651 
Q 1497 2378 1497 1663 
Q 1497 947 1637 672 
Q 1778 397 2119 397 
Q 2447 397 2597 656 
Q 2747 916 2747 1497 
L 2747 1825 
z
" transform="scale(0.015625)"/>
     </defs>
     <use xlink:href="#DejaVuSerif-Bold-45"/>
     <use xlink:href="#DejaVuSerif-Bold-6d" transform="translate(76.220703 0)"/>
     <use xlink:href="#DejaVuSerif-Bold-62" transform="translate(182.03125 0)"/>
     <use xlink:href="#DejaVuSerif-Bold-65" transform="translate(251.953125 0)"/>
     <use xlink:href="#DejaVuSerif-Bold-64" transform="translate(315.576172 0)"/>
     <use xlink:href="#DejaVuSerif-Bold-64" transform="translate(385.498047 0)"/>
     <use xlink:href="#DejaVuSerif-Bold-69" transform="translate(455.419922 0)"/>
     <use xlink:href="#DejaVuSerif-Bold-6e" transform="translate(493.408203 0)"/>
     <use xlink:href="#DejaVuSerif-Bold-67" transform="translate(566.113281 0)"/>
    </g>
   </g>
   <g id="text_3">
    <!-- Output Init (y₀) -->
    <g style="fill: #ffffff" transform="translate(185.72875 154.032281) scale(0.1 -0.1)">
     <defs>
      <path id="DejaVuSerif-Bold-4f" d="M 2784 288 
Q 3381 288 3672 791 
Q 3963 1294 3963 2328 
Q 3963 3366 3672 3869 
Q 3381 4372 2784 4372 
Q 2191 4372 1898 3864 
Q 1606 3356 1606 2328 
Q 1606 1303 1898 795 
Q 2191 288 2784 288 
z
M 2784 -91 
Q 1606 -91 937 553 
Q 269 1197 269 2328 
Q 269 3459 939 4104 
Q 1609 4750 2784 4750 
Q 3963 4750 4631 4106 
Q 5300 3463 5300 2328 
Q 5300 1197 4629 553 
Q 3959 -91 2784 -91 
z
" transform="scale(0.015625)"/>
      <path id="DejaVuSerif-Bold-79" d="M 1997 -750 
Q 1847 -1116 1634 -1269 
Q 1422 -1422 1063 -1422 
Q 909 -1422 721 -1387 
Q 534 -1353 313 -1288 
L 313 -594 
L 666 -597 
Q 675 -838 779 -953 
Q 884 -1069 1094 -1069 
Q 1297 -1069 1422 -958 
Q 1547 -847 1672 -538 
L 1722 -422 
L 275 2944 
L -84 2944 
L -84 3322 
L 1831 3322 
L 1831 2944 
L 1434 2944 
L 2278 978 
L 3066 2944 
L 2625 2944 
L 2625 3322 
L 3872 3322 
L 3872 2944 
L 3469 2944 
L 1997 -750 
z
" transform="scale(0.015625)"/>
      <path id="DejaVuSerif-Bold-2080" d="M 1409 176 
Q 1644 176 1734 363 
Q 1822 551 1822 1307 
Q 1822 2057 1734 2247 
Q 1644 2438 1409 2438 
Q 1172 2438 1084 2251 
Q 994 2063 994 1307 
Q 994 551 1084 363 
Q 1172 176 1409 176 
z
M 1409 -24 
Q 819 -24 503 319 
Q 191 663 191 1307 
Q 191 1951 503 2294 
Q 819 2638 1409 2638 
Q 1997 2638 2309 2294 
Q 2625 1951 2625 1307 
Q 2625 663 2309 319 
Q 1997 -24 1409 -24 
z
" transform="scale(0.015625)"/>
     </defs>
     <use xlink:href="#DejaVuSerif-Bold-4f"/>
     <use xlink:href="#DejaVuSerif-Bold-75" transform="translate(87.109375 0)"/>
     <use xlink:href="#DejaVuSerif-Bold-74" transform="translate(159.814453 0)"/>
     <use xlink:href="#DejaVuSerif-Bold-70" transform="translate(206.005859 0)"/>
     <use xlink:href="#DejaVuSerif-Bold-75" transform="translate(275.927734 0)"/>
     <use xlink:href="#DejaVuSerif-Bold-74" transform="translate(348.632812 0)"/>
     <use xlink:href="#DejaVuSerif-Bold-20" transform="translate(394.824219 0)"/>
     <use xlink:href="#DejaVuSerif-Bold-49" transform="translate(429.638672 0)"/>
     <use xlink:href="#DejaVuSerif-Bold-6e" transform="translate(476.416016 0)"/>
     <use xlink:href="#DejaVuSerif-Bold-69" transform="translate(549.121094 0)"/>
     <use xlink:href="#DejaVuSerif-Bold-74" transform="translate(587.109375 0)"/>
     <use xlink:href="#DejaVuSerif-Bold-20" transform="translate(633.300781 0)"/>
     <use xlink:href="#DejaVuSerif-Bold-28" transform="translate(668.115234 0)"/>
     <use xlink:href="#DejaVuSerif-Bold-79" transform="translate(715.429688 0)"/>
     <use xlink:href="#DejaVuSerif-Bold-2080" transform="translate(773.535156 0)"/>
     <use xlink:href="#DejaVuSerif-Bold-29" transform="translate(817.333984 0)"/>
    </g>
   </g>
   <g id="text_4">
    <!-- Latent Init (z₀) -->
    <g style="fill: #ffffff" transform="translate(187.345156 420.215375) scale(0.1 -0.1)">
     <defs>
      <path id="DejaVuSerif-Bold-4c" d="M 300 0 
L 300 378 
L 897 378 
L 897 4288 
L 300 4288 
L 300 4666 
L 2700 4666 
L 2700 4288 
L 2100 4288 
L 2100 428 
L 3938 428 
L 3938 1166 
L 4359 1166 
L 4359 0 
L 300 0 
z
" transform="scale(0.015625)"/>
      <path id="DejaVuSerif-Bold-61" d="M 3525 2041 
L 3525 378 
L 4000 378 
L 4000 0 
L 2419 0 
L 2419 422 
Q 2200 159 1931 34 
Q 1663 -91 1319 -91 
Q 809 -91 536 182 
Q 263 456 263 966 
Q 263 1525 655 1803 
Q 1047 2081 1838 2081 
L 2419 2081 
L 2419 2278 
Q 2419 2681 2228 2873 
Q 2038 3066 1638 3066 
Q 1306 3066 1126 2930 
Q 947 2794 872 2484 
L 519 2484 
L 519 3200 
Q 816 3306 1134 3359 
Q 1453 3413 1806 3413 
Q 2697 3413 3111 3081 
Q 3525 2750 3525 2041 
z
M 2419 1044 
L 2419 1709 
L 2003 1709 
Q 1694 1709 1528 1540 
Q 1363 1372 1363 1056 
Q 1363 741 1483 584 
Q 1603 428 1850 428 
Q 2106 428 2262 597 
Q 2419 766 2419 1044 
z
" transform="scale(0.015625)"/>
      <path id="DejaVuSerif-Bold-7a" d="M 225 0 
L 225 378 
L 2131 2956 
L 697 2956 
L 697 2388 
L 325 2388 
L 325 3322 
L 3419 3322 
L 3419 2950 
L 1509 372 
L 3047 372 
L 3047 972 
L 3419 972 
L 3419 0 
L 225 0 
z
" transform="scale(0.015625)"/>
     </defs>
     <use xlink:href="#DejaVuSerif-Bold-4c"/>
     <use xlink:href="#DejaVuSerif-Bold-61" transform="translate(70.3125 0)"/>
     <use xlink:href="#DejaVuSerif-Bold-74" transform="translate(135.107422 0)"/>
     <use xlink:href="#DejaVuSerif-Bold-65" transform="translate(181.298828 0)"/>
     <use xlink:href="#DejaVuSerif-Bold-6e" transform="translate(244.921875 0)"/>
     <use xlink:href="#DejaVuSerif-Bold-74" transform="translate(317.626953 0)"/>
     <use xlink:href="#DejaVuSerif-Bold-20" transform="translate(363.818359 0)"/>
     <use xlink:href="#DejaVuSerif-Bold-49" transform="translate(398.632812 0)"/>
     <use xlink:href="#DejaVuSerif-Bold-6e" transform="translate(445.410156 0)"/>
     <use xlink:href="#DejaVuSerif-Bold-69" transform="translate(518.115234 0)"/>
     <use xlink:href="#DejaVuSerif-Bold-74" transform="translate(556.103516 0)"/>
     <use xlink:href="#DejaVuSerif-Bold-20" transform="translate(602.294922 0)"/>
     <use xlink:href="#DejaVuSerif-Bold-28" transform="translate(637.109375 0)"/>
     <use xlink:href="#DejaVuSerif-Bold-7a" transform="translate(684.423828 0)"/>
     <use xlink:href="#DejaVuSerif-Bold-2080" transform="translate(741.210938 0)"/>
     <use xlink:href="#DejaVuSerif-Bold-29" transform="translate(785.009766 0)"/>
    </g>
   </g>
   <g id="text_5">
    <!-- Recursive Refinement (K iterations) -->
    <g style="fill: #e94560" transform="translate(342.62625 62.64) scale(0.12 -0.12)">
     <defs>
      <path id="DejaVuSerif-Bold-52" d="M 3397 2278 
Q 3675 2238 3865 2094 
Q 4056 1950 4197 1678 
L 4878 378 
L 5356 378 
L 5356 0 
L 3822 0 
L 3078 1409 
Q 2863 1847 2711 1967 
Q 2559 2088 2291 2088 
L 2100 2088 
L 2100 378 
L 2700 378 
L 2700 0 
L 300 0 
L 300 378 
L 897 378 
L 897 4288 
L 300 4288 
L 300 4666 
L 2963 4666 
Q 3775 4666 4217 4339 
Q 4659 4013 4659 3413 
Q 4659 2925 4345 2642 
Q 4031 2359 3397 2278 
z
M 2100 2463 
L 2509 2463 
Q 2947 2463 3183 2700 
Q 3419 2938 3419 3378 
Q 3419 3819 3183 4053 
Q 2947 4288 2509 4288 
L 2100 4288 
L 2100 2463 
z
" transform="scale(0.015625)"/>
      <path id="DejaVuSerif-Bold-63" d="M 3609 1038 
Q 3491 469 3123 189 
Q 2756 -91 2125 -91 
Q 1238 -91 750 368 
Q 263 828 263 1663 
Q 263 2488 744 2950 
Q 1225 3413 2081 3413 
Q 2428 3413 2781 3347 
Q 3134 3281 3500 3150 
L 3500 2228 
L 3150 2228 
Q 3100 2650 2903 2854 
Q 2706 3059 2350 3059 
Q 1888 3059 1692 2746 
Q 1497 2434 1497 1663 
Q 1497 909 1687 586 
Q 1878 263 2309 263 
Q 2644 263 2845 463 
Q 3047 663 3091 1038 
L 3609 1038 
z
" transform="scale(0.015625)"/>
      <path id="DejaVuSerif-Bold-72" d="M 3438 3359 
L 3438 2369 
L 3084 2369 
Q 3066 2634 2941 2764 
Q 2816 2894 2578 2894 
Q 2216 2894 2006 2575 
Q 1797 2256 1797 1691 
L 1797 378 
L 2400 378 
L 2400 0 
L 219 0 
L 219 378 
L 691 378 
L 691 2944 
L 184 2944 
L 184 3322 
L 1797 3322 
L 1797 2731 
Q 1959 3078 2226 3245 
Q 2494 3413 2881 3413 
Q 2978 3413 3117 3398 
Q 3256 3384 3438 3359 
z
" transform="scale(0.015625)"/>
      <path id="DejaVuSerif-Bold-76" d="M 1428 0 
L 250 2944 
L -116 2944 
L -116 3322 
L 1791 3322 
L 1791 2944 
L 1388 2944 
L 2228 844 
L 3066 2944 
L 2631 2944 
L 2631 3322 
L 3878 3322 
L 3878 2944 
L 3494 2944 
L 2316 0 
L 1428 0 
z
" transform="scale(0.015625)"/>
      <path id="DejaVuSerif-Bold-66" d="M 3097 4031 
L 2747 4031 
Q 2722 4275 2605 4394 
Q 2488 4513 2272 4513 
Q 2022 4513 1909 4333 
Q 1797 4153 1797 3750 
L 1797 3322 
L 2631 3322 
L 2631 2944 
L 1797 2944 
L 1797 378 
L 2438 378 
L 2438 0 
L 219 0 
L 219 378 
L 691 378 
L 691 2944 
L 197 2944 
L 197 3322 
L 691 3322 
L 691 3738 
Q 691 4291 1044 4577 
Q 1397 4863 2081 4863 
Q 2347 4863 2600 4833 
Q 2853 4803 3097 4744 
L 3097 4031 
z
" transform="scale(0.015625)"/>
      <path id="DejaVuSerif-Bold-4b" d="M 300 0 
L 300 378 
L 897 378 
L 897 4288 
L 300 4288 
L 300 4666 
L 2700 4666 
L 2700 4288 
L 2100 4288 
L 2100 2584 
L 4078 4288 
L 3578 4288 
L 3578 4666 
L 5319 4666 
L 5319 4288 
L 4697 4288 
L 3022 2847 
L 5300 378 
L 5759 378 
L 5759 0 
L 4178 0 
L 2100 2266 
L 2100 378 
L 2700 378 
L 2700 0 
L 300 0 
z
" transform="scale(0.015625)"/>
     </defs>
     <use xlink:href="#DejaVuSerif-Bold-52"/>
     <use xlink:href="#DejaVuSerif-Bold-65" transform="translate(83.105469 0)"/>
     <use xlink:href="#DejaVuSerif-Bold-63" transform="translate(146.728516 0)"/>
     <use xlink:href="#DejaVuSerif-Bold-75" transform="translate(207.617188 0)"/>
     <use xlink:href="#DejaVuSerif-Bold-72" transform="translate(280.322266 0)"/>
     <use xlink:href="#DejaVuSerif-Bold-73" transform="translate(333.007812 0)"/>
     <use xlink:href="#DejaVuSerif-Bold-69" transform="translate(389.306641 0)"/>
     <use xlink:href="#DejaVuSerif-Bold-76" transform="translate(427.294922 0)"/>
     <use xlink:href="#DejaVuSerif-Bold-65" transform="translate(485.400391 0)"/>
     <use xlink:href="#DejaVuSerif-Bold-20" transform="translate(549.023438 0)"/>
     <use xlink:href="#DejaVuSerif-Bold-52" transform="translate(583.837891 0)"/>
     <use xlink:href="#DejaVuSerif-Bold-65" transform="translate(666.943359 0)"/>
     <use xlink:href="#DejaVuSerif-Bold-66" transform="translate(730.566406 0)"/>
     <use xlink:href="#DejaVuSerif-Bold-69" transform="translate(773.583984 0)"/>
     <use xlink:href="#DejaVuSerif-Bold-6e" transform="translate(811.572266 0)"/>
     <use xlink:href="#DejaVuSerif-Bold-65" transform="translate(884.277344 0)"/>
     <use xlink:href="#DejaVuSerif-Bold-6d" transform="translate(947.900391 0)"/>
     <use xlink:href="#DejaVuSerif-Bold-65" transform="translate(1053.710938 0)"/>
     <use xlink:href="#DejaVuSerif-Bold-6e" transform="translate(1117.333984 0)"/>
     <use xlink:href="#DejaVuSerif-Bold-74" transform="translate(1190.039062 0)"/>
     <use xlink:href="#DejaVuSerif-Bold-20" transform="translate(1236.230469 0)"/>
     <use xlink:href="#DejaVuSerif-Bold-28" transform="translate(1271.044922 0)"/>
     <use xlink:href="#DejaVuSerif-Bold-4b" transform="translate(1318.359375 0)"/>
     <use xlink:href="#DejaVuSerif-Bold-20" transform="translate(1405.273438 0)"/>
     <use xlink:href="#DejaVuSerif-Bold-69" transform="translate(1440.087891 0)"/>
     <use xlink:href="#DejaVuSerif-Bold-74" transform="translate(1478.076172 0)"/>
     <use xlink:href="#DejaVuSerif-Bold-65" transform="translate(1524.267578 0)"/>
     <use xlink:href="#DejaVuSerif-Bold-72" transform="translate(1587.890625 0)"/>
     <use xlink:href="#DejaVuSerif-Bold-61" transform="translate(1640.576172 0)"/>
     <use xlink:href="#DejaVuSerif-Bold-74" transform="translate(1705.371094 0)"/>
     <use xlink:href="#DejaVuSerif-Bold-69" transform="translate(1751.5625 0)"/>
     <use xlink:href="#DejaVuSerif-Bold-6f" transform="translate(1789.550781 0)"/>
     <use xlink:href="#DejaVuSerif-Bold-6e" transform="translate(1856.25 0)"/>
     <use xlink:href="#DejaVuSerif-Bold-73" transform="translate(1928.955078 0)"/>
     <use xlink:href="#DejaVuSerif-Bold-29" transform="translate(1985.253906 0)"/>
    </g>
   </g>
   <g id="text_6">
    <!-- TinyNetwork -->
    <g style="fill: #ffffff" transform="translate(428.620625 192.785375) scale(0.1 -0.1)">
     <defs>
      <path id="DejaVuSerif-Bold-4e" d="M 281 0 
L 281 378 
L 878 378 
L 878 4288 
L 281 4288 
L 281 4666 
L 1741 4666 
L 4556 1363 
L 4556 4288 
L 3963 4288 
L 3963 4666 
L 5594 4666 
L 5594 4288 
L 4997 4288 
L 4997 0 
L 4178 0 
L 1319 3372 
L 1319 378 
L 1913 378 
L 1913 0 
L 281 0 
z
" transform="scale(0.015625)"/>
      <path id="DejaVuSerif-Bold-77" d="M 3450 3322 
L 4206 1106 
L 4831 2944 
L 4397 2944 
L 4397 3322 
L 5638 3322 
L 5638 2944 
L 5247 2944 
L 4244 0 
L 3481 0 
L 2778 2081 
L 2069 0 
L 1313 0 
L 306 2944 
L -56 2944 
L -56 3322 
L 1825 3322 
L 1825 2944 
L 1434 2944 
L 2047 1147 
L 2791 3322 
L 3450 3322 
z
" transform="scale(0.015625)"/>
     </defs>
     <use xlink:href="#DejaVuSerif-Bold-54"/>
     <use xlink:href="#DejaVuSerif-Bold-69" transform="translate(74.414062 0)"/>
     <use xlink:href="#DejaVuSerif-Bold-6e" transform="translate(112.402344 0)"/>
     <use xlink:href="#DejaVuSerif-Bold-79" transform="translate(185.107422 0)"/>
     <use xlink:href="#DejaVuSerif-Bold-4e" transform="translate(243.212891 0)"/>
     <use xlink:href="#DejaVuSerif-Bold-65" transform="translate(334.619141 0)"/>
     <use xlink:href="#DejaVuSerif-Bold-74" transform="translate(398.242188 0)"/>
     <use xlink:href="#DejaVuSerif-Bold-77" transform="translate(444.433594 0)"/>
     <use xlink:href="#DejaVuSerif-Bold-6f" transform="translate(530.517578 0)"/>
     <use xlink:href="#DejaVuSerif-Bold-72" transform="translate(597.216797 0)"/>
     <use xlink:href="#DejaVuSerif-Bold-6b" transform="translate(649.902344 0)"/>
    </g>
    <!-- (Transformer) -->
    <g style="fill: #ffffff" transform="translate(424.939375 204.125375) scale(0.1 -0.1)">
     <use xlink:href="#DejaVuSerif-Bold-28"/>
     <use xlink:href="#DejaVuSerif-Bold-54" transform="translate(47.314453 0)"/>
     <use xlink:href="#DejaVuSerif-Bold-72" transform="translate(114.478516 0)"/>
     <use xlink:href="#DejaVuSerif-Bold-61" transform="translate(167.164062 0)"/>
     <use xlink:href="#DejaVuSerif-Bold-6e" transform="translate(231.958984 0)"/>
     <use xlink:href="#DejaVuSerif-Bold-73" transform="translate(304.664062 0)"/>
     <use xlink:href="#DejaVuSerif-Bold-66" transform="translate(360.962891 0)"/>
     <use xlink:href="#DejaVuSerif-Bold-6f" transform="translate(403.980469 0)"/>
     <use xlink:href="#DejaVuSerif-Bold-72" transform="translate(470.679688 0)"/>
     <use xlink:href="#DejaVuSerif-Bold-6d" transform="translate(523.365234 0)"/>
     <use xlink:href="#DejaVuSerif-Bold-65" transform="translate(629.175781 0)"/>
     <use xlink:href="#DejaVuSerif-Bold-72" transform="translate(692.798828 0)"/>
     <use xlink:href="#DejaVuSerif-Bold-29" transform="translate(745.484375 0)"/>
    </g>
   </g>
   <g id="text_7">
    <!-- Output Refiner -->
    <g style="fill: #ffffff" transform="translate(422.26125 303.736469) scale(0.1 -0.1)">
     <use xlink:href="#DejaVuSerif-Bold-4f"/>
     <use xlink:href="#DejaVuSerif-Bold-75" transform="translate(87.109375 0)"/>
     <use xlink:href="#DejaVuSerif-Bold-74" transform="translate(159.814453 0)"/>
     <use xlink:href="#DejaVuSerif-Bold-70" transform="translate(206.005859 0)"/>
     <use xlink:href="#DejaVuSerif-Bold-75" transform="translate(275.927734 0)"/>
     <use xlink:href="#DejaVuSerif-Bold-74" transform="translate(348.632812 0)"/>
     <use xlink:href="#DejaVuSerif-Bold-20" transform="translate(394.824219 0)"/>
     <use xlink:href="#DejaVuSerif-Bold-52" transform="translate(429.638672 0)"/>
     <use xlink:href="#DejaVuSerif-Bold-65" transform="translate(512.744141 0)"/>
     <use xlink:href="#DejaVuSerif-Bold-66" transform="translate(576.367188 0)"/>
     <use xlink:href="#DejaVuSerif-Bold-69" transform="translate(619.384766 0)"/>
     <use xlink:href="#DejaVuSerif-Bold-6e" transform="translate(657.373047 0)"/>
     <use xlink:href="#DejaVuSerif-Bold-65" transform="translate(730.078125 0)"/>
     <use xlink:href="#DejaVuSerif-Bold-72" transform="translate(793.701172 0)"/>
    </g>
    <!-- (Contractive) -->
    <g style="fill: #ffffff" transform="translate(427.375312 314.934281) scale(0.1 -0.1)">
     <defs>
      <path id="DejaVuSerif-Bold-43" d="M 4769 1331 
Q 4584 609 4106 259 
Q 3628 -91 2822 -91 
Q 1641 -91 955 561 
Q 269 1213 269 2328 
Q 269 3447 955 4098 
Q 1641 4750 2822 4750 
Q 3238 4750 3688 4650 
Q 4138 4550 4641 4347 
L 4641 3200 
L 4244 3200 
Q 4122 3788 3800 4080 
Q 3478 4372 2950 4372 
Q 2269 4372 1937 3870 
Q 1606 3369 1606 2328 
Q 1606 1288 1937 788 
Q 2269 288 2956 288 
Q 3422 288 3717 547 
Q 4013 806 4147 1331 
L 4769 1331 
z
" transform="scale(0.015625)"/>
     </defs>
     <use xlink:href="#DejaVuSerif-Bold-28"/>
     <use xlink:href="#DejaVuSerif-Bold-43" transform="translate(47.314453 0)"/>
     <use xlink:href="#DejaVuSerif-Bold-6f" transform="translate(126.904297 0)"/>
     <use xlink:href="#DejaVuSerif-Bold-6e" transform="translate(193.603516 0)"/>
     <use xlink:href="#DejaVuSerif-Bold-74" transform="translate(266.308594 0)"/>
     <use xlink:href="#DejaVuSerif-Bold-72" transform="translate(312.5 0)"/>
     <use xlink:href="#DejaVuSerif-Bold-61" transform="translate(365.185547 0)"/>
     <use xlink:href="#DejaVuSerif-Bold-63" transform="translate(429.980469 0)"/>
     <use xlink:href="#DejaVuSerif-Bold-74" transform="translate(490.869141 0)"/>
     <use xlink:href="#DejaVuSerif-Bold-69" transform="translate(537.060547 0)"/>
     <use xlink:href="#DejaVuSerif-Bold-76" transform="translate(575.048828 0)"/>
     <use xlink:href="#DejaVuSerif-Bold-65" transform="translate(633.154297 0)"/>
     <use xlink:href="#DejaVuSerif-Bold-29" transform="translate(696.777344 0)"/>
    </g>
   </g>
   <g id="text_8">
    <!-- Latent Refiner -->
    <g style="fill: #ffffff" transform="translate(423.81125 414.616469) scale(0.1 -0.1)">
     <use xlink:href="#DejaVuSerif-Bold-4c"/>
     <use xlink:href="#DejaVuSerif-Bold-61" transform="translate(70.3125 0)"/>
     <use xlink:href="#DejaVuSerif-Bold-74" transform="translate(135.107422 0)"/>
     <use xlink:href="#DejaVuSerif-Bold-65" transform="translate(181.298828 0)"/>
     <use xlink:href="#DejaVuSerif-Bold-6e" transform="translate(244.921875 0)"/>
     <use xlink:href="#DejaVuSerif-Bold-74" transform="translate(317.626953 0)"/>
     <use xlink:href="#DejaVuSerif-Bold-20" transform="translate(363.818359 0)"/>
     <use xlink:href="#DejaVuSerif-Bold-52" transform="translate(398.632812 0)"/>
     <use xlink:href="#DejaVuSerif-Bold-65" transform="translate(481.738281 0)"/>
     <use xlink:href="#DejaVuSerif-Bold-66" transform="translate(545.361328 0)"/>
     <use xlink:href="#DejaVuSerif-Bold-69" transform="translate(588.378906 0)"/>
     <use xlink:href="#DejaVuSerif-Bold-6e" transform="translate(626.367188 0)"/>
     <use xlink:href="#DejaVuSerif-Bold-65" transform="translate(699.072266 0)"/>
     <use xlink:href="#DejaVuSerif-Bold-72" transform="translate(762.695312 0)"/>
    </g>
    <!-- (Contractive) -->
    <g style="fill: #ffffff" transform="translate(427.375312 425.814281) scale(0.1 -0.1)">
     <use xlink:href="#DejaVuSerif-Bold-28"/>
     <use xlink:href="#DejaVuSerif-Bold-43" transform="translate(47.314453 0)"/>
     <use xlink:href="#DejaVuSerif-Bold-6f" transform="translate(126.904297 0)"/>
     <use xlink:href="#DejaVuSerif-Bold-6e" transform="translate(193.603516 0)"/>
     <use xlink:href="#DejaVuSerif-Bold-74" transform="translate(266.308594 0)"/>
     <use xlink:href="#DejaVuSerif-Bold-72" transform="translate(312.5 0)"/>
     <use xlink:href="#DejaVuSerif-Bold-61" transform="translate(365.185547 0)"/>
     <use xlink:href="#DejaVuSerif-Bold-63" transform="translate(429.980469 0)"/>
     <use xlink:href="#DejaVuSerif-Bold-74" transform="translate(490.869141 0)"/>
     <use xlink:href="#DejaVuSerif-Bold-69" transform="translate(537.060547 0)"/>
     <use xlink:href="#DejaVuSerif-Bold-76" transform="translate(575.048828 0)"/>
     <use xlink:href="#DejaVuSerif-Bold-65" transform="translate(633.154297 0)"/>
     <use xlink:href="#DejaVuSerif-Bold-29" transform="translate(696.777344 0)"/>
    </g>
   </g>
   <g id="text_9">
    <!-- LM Head -->
    <g style="fill: #ffffff" transform="translate(674.767969 281.489375) scale(0.1 -0.1)">
     <defs>
      <path id="DejaVuSerif-Bold-4d" d="M 269 0 
L 269 378 
L 863 378 
L 863 4288 
L 269 4288 
L 269 4666 
L 2194 4666 
L 3525 1672 
L 4863 4666 
L 6784 4666 
L 6784 4288 
L 6188 4288 
L 6188 378 
L 6784 378 
L 6784 0 
L 4384 0 
L 4384 378 
L 4978 378 
L 4978 3938 
L 3531 684 
L 2741 684 
L 1300 3938 
L 1300 378 
L 1894 378 
L 1894 0 
L 269 0 
z
" transform="scale(0.015625)"/>
      <path id="DejaVuSerif-Bold-48" d="M 300 0 
L 300 378 
L 897 378 
L 897 4288 
L 300 4288 
L 300 4666 
L 2700 4666 
L 2700 4288 
L 2100 4288 
L 2100 2719 
L 3956 2719 
L 3956 4288 
L 3359 4288 
L 3359 4666 
L 5759 4666 
L 5759 4288 
L 5159 4288 
L 5159 378 
L 5759 378 
L 5759 0 
L 3359 0 
L 3359 378 
L 3956 378 
L 3956 2291 
L 2100 2291 
L 2100 378 
L 2700 378 
L 2700 0 
L 300 0 
z
" transform="scale(0.015625)"/>
     </defs>
     <use xlink:href="#DejaVuSerif-Bold-4c"/>
     <use xlink:href="#DejaVuSerif-Bold-4d" transform="translate(70.3125 0)"/>
     <use xlink:href="#DejaVuSerif-Bold-20" transform="translate(181.005859 0)"/>
     <use xlink:href="#DejaVuSerif-Bold-48" transform="translate(215.820312 0)"/>
     <use xlink:href="#DejaVuSerif-Bold-65" transform="translate(310.302734 0)"/>
     <use xlink:href="#DejaVuSerif-Bold-61" transform="translate(373.925781 0)"/>
     <use xlink:href="#DejaVuSerif-Bold-64" transform="translate(438.720703 0)"/>
    </g>
    <!-- (logits) -->
    <g style="fill: #ffffff" transform="translate(679.714844 292.687188) scale(0.1 -0.1)">
     <defs>
      <path id="DejaVuSerif-Bold-6c" d="M 1797 378 
L 2272 378 
L 2272 0 
L 219 0 
L 219 378 
L 691 378 
L 691 4488 
L 219 4488 
L 219 4863 
L 1797 4863 
L 1797 378 
z
" transform="scale(0.015625)"/>
     </defs>
     <use xlink:href="#DejaVuSerif-Bold-28"/>
     <use xlink:href="#DejaVuSerif-Bold-6c" transform="translate(47.314453 0)"/>
     <use xlink:href="#DejaVuSerif-Bold-6f" transform="translate(85.302734 0)"/>
     <use xlink:href="#DejaVuSerif-Bold-67" transform="translate(152.001953 0)"/>
     <use xlink:href="#DejaVuSerif-Bold-69" transform="translate(221.923828 0)"/>
     <use xlink:href="#DejaVuSerif-Bold-74" transform="translate(259.912109 0)"/>
     <use xlink:href="#DejaVuSerif-Bold-73" transform="translate(306.103516 0)"/>
     <use xlink:href="#DejaVuSerif-Bold-29" transform="translate(362.402344 0)"/>
    </g>
   </g>
   <g id="patch_11">
    <path d="M 147.799819 284.4 
Q 159.659925 284.4 169.283962 284.4 
" style="fill: none; stroke: #1a1a2e; stroke-width: 2; stroke-linecap: round"/>
    <path d="M 164.883962 282.2 
L 169.283962 284.4 
L 164.883962 286.6 
" style="fill: none; stroke: #1a1a2e; stroke-width: 2; stroke-linecap: round"/>
   </g>
   <g id="patch_12">
    <path d="M 286.402357 284.4 
Q 325.983055 284.4 363.327684 284.4 
" style="fill: none; stroke: #1a1a2e; stroke-width: 2; stroke-linecap: round"/>
    <path d="M 358.927684 282.2 
L 363.327684 284.4 
L 358.927684 286.6 
" style="fill: none; stroke: #1a1a2e; stroke-width: 2; stroke-linecap: round"/>
   </g>
   <g id="patch_13">
    <path d="M 286.113043 152.371826 
Q 325.980245 176.292147 363.930034 199.06202 
" style="fill: none; stroke: #1a1a2e; stroke-width: 2; stroke-linecap: round"/>
    <path d="M 361.288956 194.911755 
L 363.930034 199.06202 
L 359.025174 198.684724 
" style="fill: none; stroke: #1a1a2e; stroke-width: 2; stroke-linecap: round"/>
   </g>
   <g id="patch_14">
    <path d="M 286.397281 417.589152 
Q 325.980454 420.22803 363.332512 422.718167 
" style="fill: none; stroke: #1a1a2e; stroke-width: 2; stroke-linecap: round"/>
    <path d="M 359.088599 420.230356 
L 363.332512 422.718167 
L 358.795915 424.620611 
" style="fill: none; stroke: #1a1a2e; stroke-width: 2; stroke-linecap: round"/>
   </g>
   <g id="patch_15">
    <path d="M 464.58 271.311504 
Q 464.58 251.134828 464.58 233.194219 
" style="fill: none; stroke: #1a1a2e; stroke-width: 2; stroke-linecap: round"/>
    <path d="M 462.38 237.594219 
L 464.58 233.194219 
L 466.78 237.594219 
" style="fill: none; stroke: #1a1a2e; stroke-width: 2; stroke-linecap: round"/>
   </g>
   <g id="patch_16">
    <path d="M 464.58 382.191504 
Q 464.58 362.014828 464.58 344.074219 
" style="fill: none; stroke: #1a1a2e; stroke-width: 2; stroke-linecap: round"/>
    <path d="M 462.38 348.474219 
L 464.58 344.074219 
L 466.78 348.474219 
" style="fill: none; stroke: #1a1a2e; stroke-width: 2; stroke-linecap: round"/>
   </g>
   <g id="patch_17">
    <path d="M 560.86561 310.26192 
Q 508.862386 179.875226 371.766114 162.945139 
" style="fill: none; stroke: #e94560; stroke-width: 2; stroke-linecap: round"/>
    <path d="M 375.863312 165.667816 
L 371.766114 162.945139 
L 376.402574 161.300987 
" style="fill: none; stroke: #e94560; stroke-width: 2; stroke-linecap: round"/>
   </g>
   <g id="patch_18">
    <path d="M 563.602357 284.4 
Q 603.183055 284.4 640.527684 284.4 
" style="fill: none; stroke: #1a1a2e; stroke-width: 2; stroke-linecap: round"/>
    <path d="M 636.127684 282.2 
L 640.527684 284.4 
L 636.127684 286.6 
" style="fill: none; stroke: #1a1a2e; stroke-width: 2; stroke-linecap: round"/>
   </g>
   <g id="text_10">
    <g id="patch_19">
     <path d="M 572.688 123.667656 
L 621.26675 123.667656 
Q 624.56675 123.667656 624.56675 120.367656 
L 624.56675 109.721719 
Q 624.56675 106.421719 621.26675 106.421719 
L 572.688 106.421719 
Q 569.388 106.421719 569.388 109.721719 
L 569.388 120.367656 
Q 569.388 123.667656 572.688 123.667656 
z
" style="fill: #ffffff; stroke: #e94560; stroke-linejoin: miter"/>
    </g>
    <!-- k = 1...K -->
    <g style="fill: #e94560" transform="translate(572.688 118.08) scale(0.11 -0.11)">
     <defs>
      <path id="DejaVuSerif-6b" d="M 1831 0 
L 219 0 
L 219 331 
L 738 331 
L 738 4531 
L 184 4531 
L 184 4863 
L 1313 4863 
L 1313 1697 
L 2713 2988 
L 2234 2988 
L 2234 3322 
L 3738 3322 
L 3738 2988 
L 3169 2988 
L 2181 2075 
L 3444 331 
L 3922 331 
L 3922 0 
L 2284 0 
L 2284 331 
L 2759 331 
L 1766 1697 
L 1313 1275 
L 1313 331 
L 1831 331 
L 1831 0 
z
" transform="scale(0.015625)"/>
      <path id="DejaVuSerif-20" transform="scale(0.015625)"/>
      <path id="DejaVuSerif-3d" d="M 678 2894 
L 4684 2894 
L 4684 2394 
L 678 2394 
L 678 2894 
z
M 678 1619 
L 4684 1619 
L 4684 1119 
L 678 1119 
L 678 1619 
z
" transform="scale(0.015625)"/>
      <path id="DejaVuSerif-31" d="M 909 0 
L 909 331 
L 1722 331 
L 1722 4213 
L 781 3603 
L 781 4013 
L 1919 4750 
L 2350 4750 
L 2350 331 
L 3163 331 
L 3163 0 
L 909 0 
z
" transform="scale(0.015625)"/>
      <path id="DejaVuSerif-2e" d="M 603 325 
Q 603 500 722 622 
Q 841 744 1019 744 
Q 1191 744 1312 622 
Q 1434 500 1434 325 
Q 1434 153 1312 31 
Q 1191 -91 1019 -91 
Q 841 -91 722 29 
Q 603 150 603 325 
z
" transform="scale(0.015625)"/>
      <path id="DejaVuSerif-4b" d="M 353 0 
L 353 331 
L 947 331 
L 947 4331 
L 353 4331 
L 353 4666 
L 2175 4666 
L 2175 4331 
L 1581 4331 
L 1581 2566 
L 3591 4331 
L 3084 4331 
L 3084 4666 
L 4634 4666 
L 4634 4331 
L 4109 4331 
L 2106 2572 
L 4347 331 
L 4878 331 
L 4878 0 
L 3794 0 
L 1581 2216 
L 1581 331 
L 2175 331 
L 2175 0 
L 353 0 
z
" transform="scale(0.015625)"/>
     </defs>
     <use xlink:href="#DejaVuSerif-6b"/>
     <use xlink:href="#DejaVuSerif-20" transform="translate(60.595703 0)"/>
     <use xlink:href="#DejaVuSerif-3d" transform="translate(92.382812 0)"/>
     <use xlink:href="#DejaVuSerif-20" transform="translate(176.171875 0)"/>
     <use xlink:href="#DejaVuSerif-31" transform="translate(207.958984 0)"/>
     <use xlink:href="#DejaVuSerif-2e" transform="translate(271.582031 0)"/>
     <use xlink:href="#DejaVuSerif-2e" transform="translate(303.369141 0)"/>
     <use xlink:href="#DejaVuSerif-2e" transform="translate(335.15625 0)"/>
     <use xlink:href="#DejaVuSerif-4b" transform="translate(366.943359 0)"/>
    </g>
   </g>
   <g id="text_11">
    <g id="patch_20">
     <path d="M 589.32 372.259688 
L 681.017344 372.259688 
Q 683.717344 372.259688 683.717344 369.559688 
L 683.717344 360.721406 
Q 683.717344 358.021406 681.017344 358.021406 
L 589.32 358.021406 
Q 586.62 358.021406 586.62 360.721406 
L 586.62 369.559688 
Q 586.62 372.259688 589.32 372.259688 
z
" style="fill: #ffffff; stroke: #2d6a4f; stroke-linejoin: miter"/>
    </g>
    <!-- α = 0.15 × decay(k) -->
    <g style="fill: #2d6a4f" transform="translate(589.32 367.56) scale(0.09 -0.09)">
     <defs>
      <path id="DejaVuSerif-3b1" d="M 2763 819 
L 2638 472 
Q 2541 203 2244 31 
Q 2050 -81 1706 -78 
Q 1091 -72 706 406 
Q 319 894 319 1675 
Q 319 2441 706 2941 
Q 1072 3413 1844 3409 
Q 2375 3409 2644 3200 
Q 2881 3016 2972 2613 
L 2997 2497 
L 3119 2844 
Q 3231 3172 3553 3334 
L 3869 3334 
L 3869 3150 
Q 3569 3056 3463 2763 
L 3138 1875 
L 3356 919 
Q 3469 428 3588 375 
Q 3759 297 4150 531 
L 4150 153 
Q 3516 -213 3069 169 
Q 2866 344 2809 597 
L 2763 819 
z
M 2628 1431 
L 2431 2350 
Q 2275 3081 1850 3084 
Q 1491 3088 1219 2703 
Q 991 2388 991 1663 
Q 991 975 1219 622 
Q 1463 238 1884 269 
Q 2244 297 2503 1063 
L 2628 1431 
z
" transform="scale(0.015625)"/>
      <path id="DejaVuSerif-30" d="M 2034 219 
Q 2513 219 2750 744 
Q 2988 1269 2988 2328 
Q 2988 3391 2750 3916 
Q 2513 4441 2034 4441 
Q 1556 4441 1318 3916 
Q 1081 3391 1081 2328 
Q 1081 1269 1318 744 
Q 1556 219 2034 219 
z
M 2034 -91 
Q 1275 -91 848 546 
Q 422 1184 422 2328 
Q 422 3475 848 4112 
Q 1275 4750 2034 4750 
Q 2797 4750 3222 4112 
Q 3647 3475 3647 2328 
Q 3647 1184 3222 546 
Q 2797 -91 2034 -91 
z
" transform="scale(0.015625)"/>
      <path id="DejaVuSerif-35" d="M 3219 4666 
L 3219 4153 
L 1081 4153 
L 1081 2816 
Q 1244 2928 1461 2984 
Q 1678 3041 1947 3041 
Q 2703 3041 3140 2622 
Q 3578 2203 3578 1478 
Q 3578 738 3136 323 
Q 2694 -91 1894 -91 
Q 1572 -91 1234 -12 
Q 897 66 544 225 
L 544 1131 
L 897 1131 
Q 925 688 1179 453 
Q 1434 219 1894 219 
Q 2388 219 2653 544 
Q 2919 869 2919 1478 
Q 2919 2084 2655 2407 
Q 2391 2731 1894 2731 
Q 1613 2731 1398 2631 
Q 1184 2531 1019 2322 
L 750 2322 
L 750 4666 
L 3219 4666 
z
" transform="scale(0.015625)"/>
      <path id="DejaVuSerif-d7" d="M 4481 3450 
L 3034 2003 
L 4481 563 
L 4122 213 
L 2681 1650 
L 1241 213 
L 884 563 
L 2322 2003 
L 884 3450 
L 1241 3803 
L 2681 2363 
L 4122 3803 
L 4481 3450 
z
" transform="scale(0.015625)"/>
      <path id="DejaVuSerif-64" d="M 3359 331 
L 3909 331 
L 3909 0 
L 2784 0 
L 2784 519 
Q 2616 206 2355 57 
Q 2094 -91 1709 -91 
Q 1097 -91 708 395 
Q 319 881 319 1663 
Q 319 2444 706 2928 
Q 1094 3413 1709 3413 
Q 2094 3413 2355 3264 
Q 2616 3116 2784 2803 
L 2784 4531 
L 2241 4531 
L 2241 4863 
L 3359 4863 
L 3359 331 
z
M 2784 1497 
L 2784 1825 
Q 2784 2422 2554 2737 
Q 2325 3053 1888 3053 
Q 1444 3053 1217 2703 
Q 991 2353 991 1663 
Q 991 975 1217 622 
Q 1444 269 1888 269 
Q 2325 269 2554 583 
Q 2784 897 2784 1497 
z
" transform="scale(0.015625)"/>
      <path id="DejaVuSerif-65" d="M 3469 1600 
L 991 1600 
L 991 1575 
Q 991 903 1244 561 
Q 1497 219 1991 219 
Q 2369 219 2611 417 
Q 2853 616 2950 1006 
L 3413 1006 
Q 3275 459 2904 184 
Q 2534 -91 1931 -91 
Q 1203 -91 761 389 
Q 319 869 319 1663 
Q 319 2450 753 2931 
Q 1188 3413 1894 3413 
Q 2647 3413 3050 2948 
Q 3453 2484 3469 1600 
z
M 2791 1931 
Q 2772 2513 2545 2808 
Q 2319 3103 1894 3103 
Q 1497 3103 1269 2806 
Q 1041 2509 991 1931 
L 2791 1931 
z
" transform="scale(0.015625)"/>
      <path id="DejaVuSerif-63" d="M 3291 997 
Q 3169 466 2822 187 
Q 2475 -91 1925 -91 
Q 1200 -91 759 389 
Q 319 869 319 1663 
Q 319 2459 759 2936 
Q 1200 3413 1925 3413 
Q 2241 3413 2553 3339 
Q 2866 3266 3181 3116 
L 3181 2266 
L 2847 2266 
Q 2781 2703 2561 2903 
Q 2341 3103 1931 3103 
Q 1466 3103 1228 2742 
Q 991 2381 991 1663 
Q 991 944 1227 581 
Q 1463 219 1931 219 
Q 2303 219 2525 412 
Q 2747 606 2828 997 
L 3291 997 
z
" transform="scale(0.015625)"/>
      <path id="DejaVuSerif-61" d="M 2547 1044 
L 2547 1747 
L 1806 1747 
Q 1378 1747 1168 1562 
Q 959 1378 959 997 
Q 959 650 1171 447 
Q 1384 244 1747 244 
Q 2106 244 2326 466 
Q 2547 688 2547 1044 
z
M 3122 2075 
L 3122 331 
L 3634 331 
L 3634 0 
L 2547 0 
L 2547 359 
Q 2356 128 2106 18 
Q 1856 -91 1522 -91 
Q 969 -91 644 203 
Q 319 497 319 997 
Q 319 1513 691 1797 
Q 1063 2081 1741 2081 
L 2547 2081 
L 2547 2309 
Q 2547 2688 2317 2895 
Q 2088 3103 1672 3103 
Q 1328 3103 1125 2947 
Q 922 2791 872 2484 
L 575 2484 
L 575 3156 
Q 875 3284 1158 3348 
Q 1441 3413 1709 3413 
Q 2400 3413 2761 3070 
Q 3122 2728 3122 2075 
z
" transform="scale(0.015625)"/>
      <path id="DejaVuSerif-79" d="M 1381 -609 
L 1600 -56 
L 359 2988 
L -19 2988 
L -19 3322 
L 1509 3322 
L 1509 2988 
L 978 2988 
L 1913 703 
L 2847 2988 
L 2350 2988 
L 2350 3322 
L 3597 3322 
L 3597 2988 
L 3225 2988 
L 1703 -750 
Q 1547 -1138 1356 -1280 
Q 1166 -1422 819 -1422 
Q 672 -1422 517 -1397 
Q 363 -1372 206 -1325 
L 206 -691 
L 500 -691 
Q 519 -903 608 -995 
Q 697 -1088 884 -1088 
Q 1056 -1088 1161 -992 
Q 1266 -897 1381 -609 
z
" transform="scale(0.015625)"/>
      <path id="DejaVuSerif-28" d="M 2041 -997 
Q 1281 -656 893 83 
Q 506 822 506 1931 
Q 506 3044 893 3783 
Q 1281 4522 2041 4863 
L 2041 4556 
Q 1559 4225 1350 3623 
Q 1141 3022 1141 1931 
Q 1141 844 1350 242 
Q 1559 -359 2041 -691 
L 2041 -997 
z
" transform="scale(0.015625)"/>
      <path id="DejaVuSerif-29" d="M 453 -997 
L 453 -691 
Q 934 -359 1145 242 
Q 1356 844 1356 1931 
Q 1356 3022 1145 3623 
Q 934 4225 453 4556 
L 453 4863 
Q 1216 4522 1603 3783 
Q 1991 3044 1991 1931 
Q 1991 822 1603 83 
Q 1216 -656 453 -997 
z
" transform="scale(0.015625)"/>
     </defs>
     <use xlink:href="#DejaVuSerif-3b1"/>
     <use xlink:href="#DejaVuSerif-20" transform="translate(67.529297 0)"/>
     <use xlink:href="#DejaVuSerif-3d" transform="translate(99.316406 0)"/>
     <use xlink:href="#DejaVuSerif-20" transform="translate(183.105469 0)"/>
     <use xlink:href="#DejaVuSerif-30" transform="translate(214.892578 0)"/>
     <use xlink:href="#DejaVuSerif-2e" transform="translate(278.515625 0)"/>
     <use xlink:href="#DejaVuSerif-31" transform="translate(310.302734 0)"/>
     <use xlink:href="#DejaVuSerif-35" transform="translate(373.925781 0)"/>
     <use xlink:href="#DejaVuSerif-20" transform="translate(437.548828 0)"/>
     <use xlink:href="#DejaVuSerif-d7" transform="translate(469.335938 0)"/>
     <use xlink:href="#DejaVuSerif-20" transform="translate(553.125 0)"/>
     <use xlink:href="#DejaVuSerif-64" transform="translate(584.912109 0)"/>
     <use xlink:href="#DejaVuSerif-65" transform="translate(648.925781 0)"/>
     <use xlink:href="#DejaVuSerif-63" transform="translate(708.105469 0)"/>
     <use xlink:href="#DejaVuSerif-61" transform="translate(764.111328 0)"/>
     <use xlink:href="#DejaVuSerif-79" transform="translate(823.730469 0)"/>
     <use xlink:href="#DejaVuSerif-28" transform="translate(880.224609 0)"/>
     <use xlink:href="#DejaVuSerif-6b" transform="translate(919.238281 0)"/>
     <use xlink:href="#DejaVuSerif-29" transform="translate(979.833984 0)"/>
    </g>
   </g>
   <g id="text_12">
    <!-- ISRM: Infinitely Scalable Recursive Model -->
    <g style="fill: #1a1a2e" transform="translate(228.944687 533.88) scale(0.14 -0.14)">
     <defs>
      <path id="DejaVuSerif-Bold-53" d="M 494 225 
L 494 1331 
L 891 1331 
Q 981 806 1318 547 
Q 1656 288 2253 288 
Q 2738 288 2991 472 
Q 3244 656 3244 1013 
Q 3244 1294 3072 1450 
Q 2900 1606 2363 1741 
L 1663 1913 
Q 978 2088 700 2398 
Q 422 2709 422 3284 
Q 422 3978 883 4364 
Q 1344 4750 2175 4750 
Q 2584 4750 3026 4681 
Q 3469 4613 3944 4475 
L 3944 3444 
L 3547 3444 
Q 3456 3925 3150 4148 
Q 2844 4372 2278 4372 
Q 1816 4372 1580 4211 
Q 1344 4050 1344 3731 
Q 1344 3441 1506 3289 
Q 1669 3138 2303 2975 
L 3003 2803 
Q 3653 2641 3945 2297 
Q 4238 1953 4238 1350 
Q 4238 644 3750 276 
Q 3263 -91 2316 -91 
Q 1859 -91 1409 -12 
Q 959 66 494 225 
z
" transform="scale(0.015625)"/>
      <path id="DejaVuSerif-Bold-3a" d="M 588 2541 
Q 588 2788 761 2963 
Q 934 3138 1178 3138 
Q 1422 3138 1597 2961 
Q 1772 2784 1772 2541 
Q 1772 2297 1598 2125 
Q 1425 1953 1178 1953 
Q 931 1953 759 2125 
Q 588 2297 588 2541 
z
M 588 506 
Q 588 750 761 925 
Q 934 1100 1178 1100 
Q 1422 1100 1597 925 
Q 1772 750 1772 506 
Q 1772 259 1597 84 
Q 1422 -91 1178 -91 
Q 934 -91 761 84 
Q 588 259 588 506 
z
" transform="scale(0.015625)"/>
     </defs>
     <use xlink:href="#DejaVuSerif-Bold-49"/>
     <use xlink:href="#DejaVuSerif-Bold-53" transform="translate(46.777344 0)"/>
     <use xlink:href="#DejaVuSerif-Bold-52" transform="translate(118.994141 0)"/>
     <use xlink:href="#DejaVuSerif-Bold-4d" transform="translate(202.099609 0)"/>
     <use xlink:href="#DejaVuSerif-Bold-3a" transform="translate(312.792969 0)"/>
     <use xlink:href="#DejaVuSerif-Bold-20" transform="translate(349.707031 0)"/>
     <use xlink:href="#DejaVuSerif-Bold-49" transform="translate(384.521484 0)"/>
     <use xlink:href="#DejaVuSerif-Bold-6e" transform="translate(431.298828 0)"/>
     <use xlink:href="#DejaVuSerif-Bold-66" transform="translate(504.003906 0)"/>
     <use xlink:href="#DejaVuSerif-Bold-69" transform="translate(547.021484 0)"/>
     <use xlink:href="#DejaVuSerif-Bold-6e" transform="translate(585.009766 0)"/>
     <use xlink:href="#DejaVuSerif-Bold-69" transform="translate(657.714844 0)"/>
     <use xlink:href="#DejaVuSerif-Bold-74" transform="translate(695.703125 0)"/>
     <use xlink:href="#DejaVuSerif-Bold-65" transform="translate(741.894531 0)"/>
     <use xlink:href="#DejaVuSerif-Bold-6c" transform="translate(805.517578 0)"/>
     <use xlink:href="#DejaVuSerif-Bold-79" transform="translate(843.505859 0)"/>
     <use xlink:href="#DejaVuSerif-Bold-20" transform="translate(901.611328 0)"/>
     <use xlink:href="#DejaVuSerif-Bold-53" transform="translate(936.425781 0)"/>
     <use xlink:href="#DejaVuSerif-Bold-63" transform="translate(1008.642578 0)"/>
     <use xlink:href="#DejaVuSerif-Bold-61" transform="translate(1069.53125 0)"/>
     <use xlink:href="#DejaVuSerif-Bold-6c" transform="translate(1134.326172 0)"/>
     <use xlink:href="#DejaVuSerif-Bold-61" transform="translate(1172.314453 0)"/>
     <use xlink:href="#DejaVuSerif-Bold-62" transform="translate(1237.109375 0)"/>
     <use xlink:href="#DejaVuSerif-Bold-6c" transform="translate(1307.03125 0)"/>
     <use xlink:href="#DejaVuSerif-Bold-65" transform="translate(1345.019531 0)"/>
     <use xlink:href="#DejaVuSerif-Bold-20" transform="translate(1408.642578 0)"/>
     <use xlink:href="#DejaVuSerif-Bold-52" transform="translate(1443.457031 0)"/>
     <use xlink:href="#DejaVuSerif-Bold-65" transform="translate(1526.5625 0)"/>
     <use xlink:href="#DejaVuSerif-Bold-63" transform="translate(1590.185547 0)"/>
     <use xlink:href="#DejaVuSerif-Bold-75" transform="translate(1651.074219 0)"/>
     <use xlink:href="#DejaVuSerif-Bold-72" transform="translate(1723.779297 0)"/>
     <use xlink:href="#DejaVuSerif-Bold-73" transform="translate(1776.464844 0)"/>
     <use xlink:href="#DejaVuSerif-Bold-69" transform="translate(1832.763672 0)"/>
     <use xlink:href="#DejaVuSerif-Bold-76" transform="translate(1870.751953 0)"/>
     <use xlink:href="#DejaVuSerif-Bold-65" transform="translate(1928.857422 0)"/>
     <use xlink:href="#DejaVuSerif-Bold-20" transform="translate(1992.480469 0)"/>
     <use xlink:href="#DejaVuSerif-Bold-4d" transform="translate(2027.294922 0)"/>
     <use xlink:href="#DejaVuSerif-Bold-6f" transform="translate(2137.988281 0)"/>
     <use xlink:href="#DejaVuSerif-Bold-64" transform="translate(2204.6875 0)"/>
     <use xlink:href="#DejaVuSerif-Bold-65" transform="translate(2274.609375 0)"/>
     <use xlink:href="#DejaVuSerif-Bold-6c" transform="translate(2338.232422 0)"/>
    </g>
   </g>
  </g>
 </g>
 <defs>
  <clipPath id="p79503b4882">
   <rect x="7.2" y="7.2" width="776.16" height="554.4"/>
  </clipPath>
 </defs>
</svg>
