<?xml version="1.0" encoding="utf-8" standalone="no"?>
<!DOCTYPE svg PUBLIC "-//W3C//DTD SVG 1.1//EN"
  "http://www.w3.org/Graphics/SVG/1.1/DTD/svg11.dtd">
<svg xmlns:xlink="http://www.w3.org/1999/xlink" width="711.096875pt" height="419.314182pt" viewBox="0 0 711.096875 419.314182" xmlns="http://www.w3.org/2000/svg" version="1.1">
 <metadata>
  <rdf:RDF xmlns:dc="http://purl.org/dc/elements/1.1/" xmlns:cc="http://creativecommons.org/ns#" xmlns:rdf="http://www.w3.org/1999/02/22-rdf-syntax-ns#">
   <cc:Work>
    <dc:type rdf:resource="http://purl.org/dc/dcmitype/StillImage"/>
    <dc:date>2026-01-03T19:26:46.511909</dc:date>
    <dc:format>image/svg+xml</dc:format>
    <dc:creator>
     <cc:Agent>
      <dc:title>Matplotlib v3.10.8, https://matplotlib.org/</dc:title>
     </cc:Agent>
    </dc:creator>
   </cc:Work>
  </rdf:RDF>
 </metadata>
 <defs>
  <style type="text/css">*{stroke-linejoin: round; stroke-linecap: butt}</style>
 </defs>
 <g id="figure_1">
  <g id="patch_1">
   <path d="M 0 419.314182 
L 711.096875 419.314182 
L 711.096875 0 
L 0 0 
z
" style="fill: #ffffff"/>
  </g>
  <g id="axes_1">
   <g id="patch_2">
    <path d="M 42.216875 383.322307 
L 703.896875 383.322307 
L 703.896875 67.221307 
L 42.216875 67.221307 
z
" style="fill: #ffffff"/>
   </g>
   <g id="matplotlib.axis_1">
    <g id="xtick_1">
     <g id="line2d_1">
      <path d="M 72.293239 383.322307 
L 72.293239 67.221307 
" clip-path="url(#pb392382798)" style="fill: none; stroke: #cccccc; stroke-width: 0.8; stroke-linecap: round"/>
     </g>
     <g id="line2d_2"/>
     <g id="text_1">
      <!-- $\mathdefault{10^{0}}$ -->
      <g style="fill: #262626" transform="translate(63.493239 394.420744) scale(0.1 -0.1)">
       <defs>
        <path id="DejaVuSerif-31" d="M 909 0 
L 909 331 
L 1722 331 
L 1722 4213 
L 781 3603 
L 781 4013 
L 1919 4750 
L 2350 4750 
L 2350 331 
L 3163 331 
L 3163 0 
L 909 0 
z
" transform="scale(0.015625)"/>
        <path id="DejaVuSerif-30" d="M 2034 219 
Q 2513 219 2750 744 
Q 2988 1269 2988 2328 
Q 2988 3391 2750 3916 
Q 2513 4441 2034 4441 
Q 1556 4441 1318 3916 
Q 1081 3391 1081 2328 
Q 1081 1269 1318 744 
Q 1556 219 2034 219 
z
M 2034 -91 
Q 1275 -91 848 546 
Q 422 1184 422 2328 
Q 422 3475 848 4112 
Q 1275 4750 2034 4750 
Q 2797 4750 3222 4112 
Q 3647 3475 3647 2328 
Q 3647 1184 3222 546 
Q 2797 -91 2034 -91 
z
" transform="scale(0.015625)"/>
       </defs>
       <use xlink:href="#DejaVuSerif-31" transform="translate(0 0.7125)"/>
       <use xlink:href="#DejaVuSerif-30" transform="translate(63.623047 0.7125)"/>
       <use xlink:href="#DejaVuSerif-30" transform="translate(128.154453 37.046875) scale(0.7)"/>
      </g>
     </g>
    </g>
    <g id="xtick_2">
     <g id="line2d_3">
      <path d="M 315.126435 383.322307 
L 315.126435 67.221307 
" clip-path="url(#pb392382798)" style="fill: none; stroke: #cccccc; stroke-width: 0.8; stroke-linecap: round"/>
     </g>
     <g id="line2d_4"/>
     <g id="text_2">
      <!-- $\mathdefault{10^{1}}$ -->
      <g style="fill: #262626" transform="translate(306.326435 394.420744) scale(0.1 -0.1)">
       <use xlink:href="#DejaVuSerif-31" transform="translate(0 0.7125)"/>
       <use xlink:href="#DejaVuSerif-30" transform="translate(63.623047 0.7125)"/>
       <use xlink:href="#DejaVuSerif-31" transform="translate(128.154453 37.046875) scale(0.7)"/>
      </g>
     </g>
    </g>
    <g id="xtick_3">
     <g id="line2d_5">
      <path d="M 557.959632 383.322307 
L 557.959632 67.221307 
" clip-path="url(#pb392382798)" style="fill: none; stroke: #cccccc; stroke-width: 0.8; stroke-linecap: round"/>
     </g>
     <g id="line2d_6"/>
     <g id="text_3">
      <!-- $\mathdefault{10^{2}}$ -->
      <g style="fill: #262626" transform="translate(549.159632 394.420744) scale(0.1 -0.1)">
       <defs>
        <path id="DejaVuSerif-32" d="M 819 3553 
L 469 3553 
L 469 4384 
Q 803 4563 1142 4656 
Q 1481 4750 1806 4750 
Q 2534 4750 2956 4397 
Q 3378 4044 3378 3438 
Q 3378 2753 2422 1800 
Q 2347 1728 2309 1691 
L 1131 513 
L 3078 513 
L 3078 1088 
L 3444 1088 
L 3444 0 
L 434 0 
L 434 341 
L 1850 1753 
Q 2319 2222 2519 2614 
Q 2719 3006 2719 3438 
Q 2719 3909 2473 4175 
Q 2228 4441 1797 4441 
Q 1350 4441 1106 4219 
Q 863 3997 819 3553 
z
" transform="scale(0.015625)"/>
       </defs>
       <use xlink:href="#DejaVuSerif-31" transform="translate(0 0.7125)"/>
       <use xlink:href="#DejaVuSerif-30" transform="translate(63.623047 0.7125)"/>
       <use xlink:href="#DejaVuSerif-32" transform="translate(128.154453 37.046875) scale(0.7)"/>
      </g>
     </g>
    </g>
    <g id="xtick_4">
     <g id="line2d_7"/>
    </g>
    <g id="xtick_5">
     <g id="line2d_8"/>
    </g>
    <g id="xtick_6">
     <g id="line2d_9"/>
    </g>
    <g id="xtick_7">
     <g id="line2d_10"/>
    </g>
    <g id="xtick_8">
     <g id="line2d_11"/>
    </g>
    <g id="xtick_9">
     <g id="line2d_12"/>
    </g>
    <g id="xtick_10">
     <g id="line2d_13"/>
    </g>
    <g id="xtick_11">
     <g id="line2d_14"/>
    </g>
    <g id="xtick_12">
     <g id="line2d_15"/>
    </g>
    <g id="xtick_13">
     <g id="line2d_16"/>
    </g>
    <g id="xtick_14">
     <g id="line2d_17"/>
    </g>
    <g id="xtick_15">
     <g id="line2d_18"/>
    </g>
    <g id="xtick_16">
     <g id="line2d_19"/>
    </g>
    <g id="xtick_17">
     <g id="line2d_20"/>
    </g>
    <g id="xtick_18">
     <g id="line2d_21"/>
    </g>
    <g id="xtick_19">
     <g id="line2d_22"/>
    </g>
    <g id="xtick_20">
     <g id="line2d_23"/>
    </g>
    <g id="xtick_21">
     <g id="line2d_24"/>
    </g>
    <g id="xtick_22">
     <g id="line2d_25"/>
    </g>
    <g id="xtick_23">
     <g id="line2d_26"/>
    </g>
    <g id="text_4">
     <!-- Inference Compute (relative) -->
     <g style="fill: #262626" transform="translate(284.612188 409.618557) scale(0.12 -0.12)">
      <defs>
       <path id="DejaVuSerif-49" d="M 1581 331 
L 2175 331 
L 2175 0 
L 353 0 
L 353 331 
L 947 331 
L 947 4331 
L 353 4331 
L 353 4666 
L 2175 4666 
L 2175 4331 
L 1581 4331 
L 1581 331 
z
" transform="scale(0.015625)"/>
       <path id="DejaVuSerif-6e" d="M 263 0 
L 263 331 
L 781 331 
L 781 2988 
L 231 2988 
L 231 3322 
L 1356 3322 
L 1356 2731 
Q 1516 3069 1770 3241 
Q 2025 3413 2363 3413 
Q 2913 3413 3172 3097 
Q 3431 2781 3431 2113 
L 3431 331 
L 3944 331 
L 3944 0 
L 2356 0 
L 2356 331 
L 2853 331 
L 2853 1931 
Q 2853 2541 2703 2767 
Q 2553 2994 2175 2994 
Q 1775 2994 1565 2701 
Q 1356 2409 1356 1850 
L 1356 331 
L 1856 331 
L 1856 0 
L 263 0 
z
" transform="scale(0.015625)"/>
       <path id="DejaVuSerif-66" d="M 2753 4078 
L 2450 4078 
Q 2447 4313 2317 4434 
Q 2188 4556 1941 4556 
Q 1619 4556 1487 4379 
Q 1356 4203 1356 3750 
L 1356 3322 
L 2284 3322 
L 2284 2988 
L 1356 2988 
L 1356 331 
L 2094 331 
L 2094 0 
L 231 0 
L 231 331 
L 781 331 
L 781 2988 
L 231 2988 
L 231 3322 
L 781 3322 
L 781 3738 
Q 781 4294 1070 4578 
Q 1359 4863 1919 4863 
Q 2128 4863 2337 4825 
Q 2547 4788 2753 4709 
L 2753 4078 
z
" transform="scale(0.015625)"/>
       <path id="DejaVuSerif-65" d="M 3469 1600 
L 991 1600 
L 991 1575 
Q 991 903 1244 561 
Q 1497 219 1991 219 
Q 2369 219 2611 417 
Q 2853 616 2950 1006 
L 3413 1006 
Q 3275 459 2904 184 
Q 2534 -91 1931 -91 
Q 1203 -91 761 389 
Q 319 869 319 1663 
Q 319 2450 753 2931 
Q 1188 3413 1894 3413 
Q 2647 3413 3050 2948 
Q 3453 2484 3469 1600 
z
M 2791 1931 
Q 2772 2513 2545 2808 
Q 2319 3103 1894 3103 
Q 1497 3103 1269 2806 
Q 1041 2509 991 1931 
L 2791 1931 
z
" transform="scale(0.015625)"/>
       <path id="DejaVuSerif-72" d="M 3059 3328 
L 3059 2497 
L 2728 2497 
Q 2713 2744 2591 2866 
Q 2469 2988 2234 2988 
Q 1809 2988 1582 2694 
Q 1356 2400 1356 1850 
L 1356 331 
L 2022 331 
L 2022 0 
L 263 0 
L 263 331 
L 781 331 
L 781 2994 
L 231 2994 
L 231 3322 
L 1356 3322 
L 1356 2731 
Q 1525 3078 1790 3245 
Q 2056 3413 2438 3413 
Q 2578 3413 2733 3391 
Q 2888 3369 3059 3328 
z
" transform="scale(0.015625)"/>
       <path id="DejaVuSerif-63" d="M 3291 997 
Q 3169 466 2822 187 
Q 2475 -91 1925 -91 
Q 1200 -91 759 389 
Q 319 869 319 1663 
Q 319 2459 759 2936 
Q 1200 3413 1925 3413 
Q 2241 3413 2553 3339 
Q 2866 3266 3181 3116 
L 3181 2266 
L 2847 2266 
Q 2781 2703 2561 2903 
Q 2341 3103 1931 3103 
Q 1466 3103 1228 2742 
Q 991 2381 991 1663 
Q 991 944 1227 581 
Q 1463 219 1931 219 
Q 2303 219 2525 412 
Q 2747 606 2828 997 
L 3291 997 
z
" transform="scale(0.015625)"/>
       <path id="DejaVuSerif-20" transform="scale(0.015625)"/>
       <path id="DejaVuSerif-43" d="M 4513 1234 
Q 4306 581 3820 245 
Q 3334 -91 2591 -91 
Q 2134 -91 1743 65 
Q 1353 222 1050 525 
Q 700 875 529 1320 
Q 359 1766 359 2328 
Q 359 3416 987 4083 
Q 1616 4750 2644 4750 
Q 3025 4750 3456 4650 
Q 3888 4550 4384 4347 
L 4384 3272 
L 4031 3272 
Q 3916 3859 3567 4137 
Q 3219 4416 2591 4416 
Q 1844 4416 1459 3886 
Q 1075 3356 1075 2328 
Q 1075 1303 1459 773 
Q 1844 244 2591 244 
Q 3113 244 3450 492 
Q 3788 741 3938 1234 
L 4513 1234 
z
" transform="scale(0.015625)"/>
       <path id="DejaVuSerif-6f" d="M 1925 219 
Q 2388 219 2623 584 
Q 2859 950 2859 1663 
Q 2859 2375 2623 2739 
Q 2388 3103 1925 3103 
Q 1463 3103 1227 2739 
Q 991 2375 991 1663 
Q 991 950 1228 584 
Q 1466 219 1925 219 
z
M 1925 -91 
Q 1200 -91 759 389 
Q 319 869 319 1663 
Q 319 2456 758 2934 
Q 1197 3413 1925 3413 
Q 2653 3413 3092 2934 
Q 3531 2456 3531 1663 
Q 3531 869 3092 389 
Q 2653 -91 1925 -91 
z
" transform="scale(0.015625)"/>
       <path id="DejaVuSerif-6d" d="M 3316 2675 
Q 3481 3041 3739 3227 
Q 3997 3413 4341 3413 
Q 4863 3413 5119 3089 
Q 5375 2766 5375 2113 
L 5375 331 
L 5894 331 
L 5894 0 
L 4300 0 
L 4300 331 
L 4800 331 
L 4800 2047 
Q 4800 2556 4650 2772 
Q 4500 2988 4153 2988 
Q 3769 2988 3567 2697 
Q 3366 2406 3366 1850 
L 3366 331 
L 3866 331 
L 3866 0 
L 2291 0 
L 2291 331 
L 2791 331 
L 2791 2069 
Q 2791 2566 2641 2777 
Q 2491 2988 2144 2988 
Q 1759 2988 1557 2697 
Q 1356 2406 1356 1850 
L 1356 331 
L 1856 331 
L 1856 0 
L 263 0 
L 263 331 
L 781 331 
L 781 2994 
L 231 2994 
L 231 3322 
L 1356 3322 
L 1356 2731 
Q 1516 3063 1762 3238 
Q 2009 3413 2322 3413 
Q 2709 3413 2968 3220 
Q 3228 3028 3316 2675 
z
" transform="scale(0.015625)"/>
       <path id="DejaVuSerif-70" d="M 1313 1825 
L 1313 1497 
Q 1313 897 1542 583 
Q 1772 269 2209 269 
Q 2650 269 2876 622 
Q 3103 975 3103 1663 
Q 3103 2353 2876 2703 
Q 2650 3053 2209 3053 
Q 1772 3053 1542 2737 
Q 1313 2422 1313 1825 
z
M 738 2988 
L 184 2988 
L 184 3322 
L 1313 3322 
L 1313 2803 
Q 1481 3116 1742 3264 
Q 2003 3413 2388 3413 
Q 3000 3413 3387 2928 
Q 3775 2444 3775 1663 
Q 3775 881 3387 395 
Q 3000 -91 2388 -91 
Q 2003 -91 1742 57 
Q 1481 206 1313 519 
L 1313 -997 
L 1856 -997 
L 1856 -1331 
L 184 -1331 
L 184 -997 
L 738 -997 
L 738 2988 
z
" transform="scale(0.015625)"/>
       <path id="DejaVuSerif-75" d="M 2266 3322 
L 3341 3322 
L 3341 331 
L 3884 331 
L 3884 0 
L 2766 0 
L 2766 588 
Q 2606 256 2353 82 
Q 2100 -91 1766 -91 
Q 1213 -91 952 223 
Q 691 538 691 1209 
L 691 2988 
L 172 2988 
L 172 3322 
L 1269 3322 
L 1269 1388 
Q 1269 781 1417 556 
Q 1566 331 1947 331 
Q 2347 331 2556 625 
Q 2766 919 2766 1478 
L 2766 2988 
L 2266 2988 
L 2266 3322 
z
" transform="scale(0.015625)"/>
       <path id="DejaVuSerif-74" d="M 691 2988 
L 184 2988 
L 184 3322 
L 691 3322 
L 691 4353 
L 1269 4353 
L 1269 3322 
L 2350 3322 
L 2350 2988 
L 1269 2988 
L 1269 878 
Q 1269 456 1350 337 
Q 1431 219 1650 219 
Q 1875 219 1978 351 
Q 2081 484 2088 781 
L 2522 781 
Q 2497 328 2275 118 
Q 2053 -91 1600 -91 
Q 1103 -91 897 129 
Q 691 350 691 878 
L 691 2988 
z
" transform="scale(0.015625)"/>
       <path id="DejaVuSerif-28" d="M 2041 -997 
Q 1281 -656 893 83 
Q 506 822 506 1931 
Q 506 3044 893 3783 
Q 1281 4522 2041 4863 
L 2041 4556 
Q 1559 4225 1350 3623 
Q 1141 3022 1141 1931 
Q 1141 844 1350 242 
Q 1559 -359 2041 -691 
L 2041 -997 
z
" transform="scale(0.015625)"/>
       <path id="DejaVuSerif-6c" d="M 1313 331 
L 1856 331 
L 1856 0 
L 184 0 
L 184 331 
L 738 331 
L 738 4531 
L 184 4531 
L 184 4863 
L 1313 4863 
L 1313 331 
z
" transform="scale(0.015625)"/>
       <path id="DejaVuSerif-61" d="M 2547 1044 
L 2547 1747 
L 1806 1747 
Q 1378 1747 1168 1562 
Q 959 1378 959 997 
Q 959 650 1171 447 
Q 1384 244 1747 244 
Q 2106 244 2326 466 
Q 2547 688 2547 1044 
z
M 3122 2075 
L 3122 331 
L 3634 331 
L 3634 0 
L 2547 0 
L 2547 359 
Q 2356 128 2106 18 
Q 1856 -91 1522 -91 
Q 969 -91 644 203 
Q 319 497 319 997 
Q 319 1513 691 1797 
Q 1063 2081 1741 2081 
L 2547 2081 
L 2547 2309 
Q 2547 2688 2317 2895 
Q 2088 3103 1672 3103 
Q 1328 3103 1125 2947 
Q 922 2791 872 2484 
L 575 2484 
L 575 3156 
Q 875 3284 1158 3348 
Q 1441 3413 1709 3413 
Q 2400 3413 2761 3070 
Q 3122 2728 3122 2075 
z
" transform="scale(0.015625)"/>
       <path id="DejaVuSerif-69" d="M 622 4353 
Q 622 4497 726 4603 
Q 831 4709 978 4709 
Q 1122 4709 1226 4603 
Q 1331 4497 1331 4353 
Q 1331 4206 1228 4103 
Q 1125 4000 978 4000 
Q 831 4000 726 4103 
Q 622 4206 622 4353 
z
M 1356 331 
L 1900 331 
L 1900 0 
L 231 0 
L 231 331 
L 781 331 
L 781 2988 
L 231 2988 
L 231 3322 
L 1356 3322 
L 1356 331 
z
" transform="scale(0.015625)"/>
       <path id="DejaVuSerif-76" d="M 1581 0 
L 359 2988 
L -19 2988 
L -19 3322 
L 1509 3322 
L 1509 2988 
L 978 2988 
L 1913 703 
L 2847 2988 
L 2350 2988 
L 2350 3322 
L 3597 3322 
L 3597 2988 
L 3225 2988 
L 2003 0 
L 1581 0 
z
" transform="scale(0.015625)"/>
       <path id="DejaVuSerif-29" d="M 453 -997 
L 453 -691 
Q 934 -359 1145 242 
Q 1356 844 1356 1931 
Q 1356 3022 1145 3623 
Q 934 4225 453 4556 
L 453 4863 
Q 1216 4522 1603 3783 
Q 1991 3044 1991 1931 
Q 1991 822 1603 83 
Q 1216 -656 453 -997 
z
" transform="scale(0.015625)"/>
      </defs>
      <use xlink:href="#DejaVuSerif-49"/>
      <use xlink:href="#DejaVuSerif-6e" transform="translate(39.501953 0)"/>
      <use xlink:href="#DejaVuSerif-66" transform="translate(103.90625 0)"/>
      <use xlink:href="#DejaVuSerif-65" transform="translate(140.917969 0)"/>
      <use xlink:href="#DejaVuSerif-72" transform="translate(200.097656 0)"/>
      <use xlink:href="#DejaVuSerif-65" transform="translate(247.900391 0)"/>
      <use xlink:href="#DejaVuSerif-6e" transform="translate(307.080078 0)"/>
      <use xlink:href="#DejaVuSerif-63" transform="translate(371.484375 0)"/>
      <use xlink:href="#DejaVuSerif-65" transform="translate(427.490234 0)"/>
      <use xlink:href="#DejaVuSerif-20" transform="translate(486.669922 0)"/>
      <use xlink:href="#DejaVuSerif-43" transform="translate(518.457031 0)"/>
      <use xlink:href="#DejaVuSerif-6f" transform="translate(594.970703 0)"/>
      <use xlink:href="#DejaVuSerif-6d" transform="translate(655.175781 0)"/>
      <use xlink:href="#DejaVuSerif-70" transform="translate(750 0)"/>
      <use xlink:href="#DejaVuSerif-75" transform="translate(814.013672 0)"/>
      <use xlink:href="#DejaVuSerif-74" transform="translate(878.417969 0)"/>
      <use xlink:href="#DejaVuSerif-65" transform="translate(918.603516 0)"/>
      <use xlink:href="#DejaVuSerif-20" transform="translate(977.783203 0)"/>
      <use xlink:href="#DejaVuSerif-28" transform="translate(1009.570312 0)"/>
      <use xlink:href="#DejaVuSerif-72" transform="translate(1048.583984 0)"/>
      <use xlink:href="#DejaVuSerif-65" transform="translate(1096.386719 0)"/>
      <use xlink:href="#DejaVuSerif-6c" transform="translate(1155.566406 0)"/>
      <use xlink:href="#DejaVuSerif-61" transform="translate(1187.548828 0)"/>
      <use xlink:href="#DejaVuSerif-74" transform="translate(1247.167969 0)"/>
      <use xlink:href="#DejaVuSerif-69" transform="translate(1287.353516 0)"/>
      <use xlink:href="#DejaVuSerif-76" transform="translate(1319.335938 0)"/>
      <use xlink:href="#DejaVuSerif-65" transform="translate(1375.830078 0)"/>
      <use xlink:href="#DejaVuSerif-29" transform="translate(1435.009766 0)"/>
     </g>
    </g>
   </g>
   <g id="matplotlib.axis_2">
    <g id="ytick_1">
     <g id="line2d_27">
      <path d="M 42.216875 368.95408 
L 703.896875 368.95408 
" clip-path="url(#pb392382798)" style="fill: none; stroke: #cccccc; stroke-width: 0.8; stroke-linecap: round"/>
     </g>
     <g id="line2d_28"/>
     <g id="text_5">
      <!-- 4.0 -->
      <g style="fill: #262626" transform="translate(22.81375 372.753298) scale(0.1 -0.1)">
       <defs>
        <path id="DejaVuSerif-34" d="M 2234 1581 
L 2234 4063 
L 641 1581 
L 2234 1581 
z
M 3609 0 
L 1484 0 
L 1484 331 
L 2234 331 
L 2234 1247 
L 197 1247 
L 197 1588 
L 2241 4750 
L 2859 4750 
L 2859 1581 
L 3750 1581 
L 3750 1247 
L 2859 1247 
L 2859 331 
L 3609 331 
L 3609 0 
z
" transform="scale(0.015625)"/>
        <path id="DejaVuSerif-2e" d="M 603 325 
Q 603 500 722 622 
Q 841 744 1019 744 
Q 1191 744 1312 622 
Q 1434 500 1434 325 
Q 1434 153 1312 31 
Q 1191 -91 1019 -91 
Q 841 -91 722 29 
Q 603 150 603 325 
z
" transform="scale(0.015625)"/>
       </defs>
       <use xlink:href="#DejaVuSerif-34"/>
       <use xlink:href="#DejaVuSerif-2e" transform="translate(63.623047 0)"/>
       <use xlink:href="#DejaVuSerif-30" transform="translate(95.410156 0)"/>
      </g>
     </g>
    </g>
    <g id="ytick_2">
     <g id="line2d_29">
      <path d="M 42.216875 330.638807 
L 703.896875 330.638807 
" clip-path="url(#pb392382798)" style="fill: none; stroke: #cccccc; stroke-width: 0.8; stroke-linecap: round"/>
     </g>
     <g id="line2d_30"/>
     <g id="text_6">
      <!-- 4.2 -->
      <g style="fill: #262626" transform="translate(22.81375 334.438026) scale(0.1 -0.1)">
       <use xlink:href="#DejaVuSerif-34"/>
       <use xlink:href="#DejaVuSerif-2e" transform="translate(63.623047 0)"/>
       <use xlink:href="#DejaVuSerif-32" transform="translate(95.410156 0)"/>
      </g>
     </g>
    </g>
    <g id="ytick_3">
     <g id="line2d_31">
      <path d="M 42.216875 292.323534 
L 703.896875 292.323534 
" clip-path="url(#pb392382798)" style="fill: none; stroke: #cccccc; stroke-width: 0.8; stroke-linecap: round"/>
     </g>
     <g id="line2d_32"/>
     <g id="text_7">
      <!-- 4.4 -->
      <g style="fill: #262626" transform="translate(22.81375 296.122753) scale(0.1 -0.1)">
       <use xlink:href="#DejaVuSerif-34"/>
       <use xlink:href="#DejaVuSerif-2e" transform="translate(63.623047 0)"/>
       <use xlink:href="#DejaVuSerif-34" transform="translate(95.410156 0)"/>
      </g>
     </g>
    </g>
    <g id="ytick_4">
     <g id="line2d_33">
      <path d="M 42.216875 254.008261 
L 703.896875 254.008261 
" clip-path="url(#pb392382798)" style="fill: none; stroke: #cccccc; stroke-width: 0.8; stroke-linecap: round"/>
     </g>
     <g id="line2d_34"/>
     <g id="text_8">
      <!-- 4.6 -->
      <g style="fill: #262626" transform="translate(22.81375 257.80748) scale(0.1 -0.1)">
       <defs>
        <path id="DejaVuSerif-36" d="M 2094 219 
Q 2534 219 2771 542 
Q 3009 866 3009 1472 
Q 3009 2078 2771 2401 
Q 2534 2725 2094 2725 
Q 1647 2725 1412 2412 
Q 1178 2100 1178 1509 
Q 1178 888 1415 553 
Q 1653 219 2094 219 
z
M 1075 2569 
Q 1288 2803 1556 2918 
Q 1825 3034 2163 3034 
Q 2859 3034 3264 2615 
Q 3669 2197 3669 1472 
Q 3669 763 3233 336 
Q 2797 -91 2069 -91 
Q 1278 -91 853 498 
Q 428 1088 428 2181 
Q 428 3406 931 4078 
Q 1434 4750 2350 4750 
Q 2597 4750 2869 4703 
Q 3141 4656 3425 4563 
L 3425 3794 
L 3072 3794 
Q 3034 4109 2831 4275 
Q 2628 4441 2284 4441 
Q 1678 4441 1381 3981 
Q 1084 3522 1075 2569 
z
" transform="scale(0.015625)"/>
       </defs>
       <use xlink:href="#DejaVuSerif-34"/>
       <use xlink:href="#DejaVuSerif-2e" transform="translate(63.623047 0)"/>
       <use xlink:href="#DejaVuSerif-36" transform="translate(95.410156 0)"/>
      </g>
     </g>
    </g>
    <g id="ytick_5">
     <g id="line2d_35">
      <path d="M 42.216875 215.692989 
L 703.896875 215.692989 
" clip-path="url(#pb392382798)" style="fill: none; stroke: #cccccc; stroke-width: 0.8; stroke-linecap: round"/>
     </g>
     <g id="line2d_36"/>
     <g id="text_9">
      <!-- 4.8 -->
      <g style="fill: #262626" transform="translate(22.81375 219.492207) scale(0.1 -0.1)">
       <defs>
        <path id="DejaVuSerif-38" d="M 2981 1275 
Q 2981 1775 2732 2051 
Q 2484 2328 2034 2328 
Q 1584 2328 1336 2051 
Q 1088 1775 1088 1275 
Q 1088 772 1336 495 
Q 1584 219 2034 219 
Q 2484 219 2732 495 
Q 2981 772 2981 1275 
z
M 2853 3541 
Q 2853 3966 2637 4203 
Q 2422 4441 2034 4441 
Q 1650 4441 1433 4203 
Q 1216 3966 1216 3541 
Q 1216 3113 1433 2875 
Q 1650 2638 2034 2638 
Q 2422 2638 2637 2875 
Q 2853 3113 2853 3541 
z
M 2516 2484 
Q 3047 2413 3344 2092 
Q 3641 1772 3641 1275 
Q 3641 619 3225 264 
Q 2809 -91 2034 -91 
Q 1263 -91 845 264 
Q 428 619 428 1275 
Q 428 1772 725 2092 
Q 1022 2413 1556 2484 
Q 1084 2569 832 2842 
Q 581 3116 581 3541 
Q 581 4103 968 4426 
Q 1356 4750 2034 4750 
Q 2713 4750 3100 4426 
Q 3488 4103 3488 3541 
Q 3488 3116 3236 2842 
Q 2984 2569 2516 2484 
z
" transform="scale(0.015625)"/>
       </defs>
       <use xlink:href="#DejaVuSerif-34"/>
       <use xlink:href="#DejaVuSerif-2e" transform="translate(63.623047 0)"/>
       <use xlink:href="#DejaVuSerif-38" transform="translate(95.410156 0)"/>
      </g>
     </g>
    </g>
    <g id="ytick_6">
     <g id="line2d_37">
      <path d="M 42.216875 177.377716 
L 703.896875 177.377716 
" clip-path="url(#pb392382798)" style="fill: none; stroke: #cccccc; stroke-width: 0.8; stroke-linecap: round"/>
     </g>
     <g id="line2d_38"/>
     <g id="text_10">
      <!-- 5.0 -->
      <g style="fill: #262626" transform="translate(22.81375 181.176935) scale(0.1 -0.1)">
       <defs>
        <path id="DejaVuSerif-35" d="M 3219 4666 
L 3219 4153 
L 1081 4153 
L 1081 2816 
Q 1244 2928 1461 2984 
Q 1678 3041 1947 3041 
Q 2703 3041 3140 2622 
Q 3578 2203 3578 1478 
Q 3578 738 3136 323 
Q 2694 -91 1894 -91 
Q 1572 -91 1234 -12 
Q 897 66 544 225 
L 544 1131 
L 897 1131 
Q 925 688 1179 453 
Q 1434 219 1894 219 
Q 2388 219 2653 544 
Q 2919 869 2919 1478 
Q 2919 2084 2655 2407 
Q 2391 2731 1894 2731 
Q 1613 2731 1398 2631 
Q 1184 2531 1019 2322 
L 750 2322 
L 750 4666 
L 3219 4666 
z
" transform="scale(0.015625)"/>
       </defs>
       <use xlink:href="#DejaVuSerif-35"/>
       <use xlink:href="#DejaVuSerif-2e" transform="translate(63.623047 0)"/>
       <use xlink:href="#DejaVuSerif-30" transform="translate(95.410156 0)"/>
      </g>
     </g>
    </g>
    <g id="ytick_7">
     <g id="line2d_39">
      <path d="M 42.216875 139.062443 
L 703.896875 139.062443 
" clip-path="url(#pb392382798)" style="fill: none; stroke: #cccccc; stroke-width: 0.8; stroke-linecap: round"/>
     </g>
     <g id="line2d_40"/>
     <g id="text_11">
      <!-- 5.2 -->
      <g style="fill: #262626" transform="translate(22.81375 142.861662) scale(0.1 -0.1)">
       <use xlink:href="#DejaVuSerif-35"/>
       <use xlink:href="#DejaVuSerif-2e" transform="translate(63.623047 0)"/>
       <use xlink:href="#DejaVuSerif-32" transform="translate(95.410156 0)"/>
      </g>
     </g>
    </g>
    <g id="ytick_8">
     <g id="line2d_41">
      <path d="M 42.216875 100.74717 
L 703.896875 100.74717 
" clip-path="url(#pb392382798)" style="fill: none; stroke: #cccccc; stroke-width: 0.8; stroke-linecap: round"/>
     </g>
     <g id="line2d_42"/>
     <g id="text_12">
      <!-- 5.4 -->
      <g style="fill: #262626" transform="translate(22.81375 104.546389) scale(0.1 -0.1)">
       <use xlink:href="#DejaVuSerif-35"/>
       <use xlink:href="#DejaVuSerif-2e" transform="translate(63.623047 0)"/>
       <use xlink:href="#DejaVuSerif-34" transform="translate(95.410156 0)"/>
      </g>
     </g>
    </g>
    <g id="text_13">
     <!-- Loss / Error Rate -->
     <g style="fill: #262626" transform="translate(16.318125 277.556182) rotate(-90) scale(0.12 -0.12)">
      <defs>
       <path id="DejaVuSerif-4c" d="M 353 0 
L 353 331 
L 947 331 
L 947 4331 
L 353 4331 
L 353 4666 
L 2175 4666 
L 2175 4331 
L 1581 4331 
L 1581 384 
L 3713 384 
L 3713 1166 
L 4097 1166 
L 4097 0 
L 353 0 
z
" transform="scale(0.015625)"/>
       <path id="DejaVuSerif-73" d="M 359 184 
L 359 959 
L 691 959 
Q 703 588 923 403 
Q 1144 219 1575 219 
Q 1963 219 2166 364 
Q 2369 509 2369 788 
Q 2369 1006 2220 1140 
Q 2072 1275 1594 1428 
L 1178 1569 
Q 750 1706 558 1912 
Q 366 2119 366 2438 
Q 366 2894 700 3153 
Q 1034 3413 1625 3413 
Q 1888 3413 2178 3344 
Q 2469 3275 2778 3144 
L 2778 2419 
L 2447 2419 
Q 2434 2741 2221 2922 
Q 2009 3103 1644 3103 
Q 1281 3103 1095 2975 
Q 909 2847 909 2591 
Q 909 2381 1050 2254 
Q 1191 2128 1613 1997 
L 2069 1856 
Q 2541 1709 2748 1489 
Q 2956 1269 2956 922 
Q 2956 450 2595 179 
Q 2234 -91 1600 -91 
Q 1278 -91 972 -22 
Q 666 47 359 184 
z
" transform="scale(0.015625)"/>
       <path id="DejaVuSerif-2f" d="M 1656 4666 
L 2156 4666 
L 500 -594 
L 0 -594 
L 1656 4666 
z
" transform="scale(0.015625)"/>
       <path id="DejaVuSerif-45" d="M 353 0 
L 353 331 
L 947 331 
L 947 4331 
L 353 4331 
L 353 4666 
L 4109 4666 
L 4109 3628 
L 3725 3628 
L 3725 4281 
L 1581 4281 
L 1581 2719 
L 3109 2719 
L 3109 3303 
L 3494 3303 
L 3494 1753 
L 3109 1753 
L 3109 2338 
L 1581 2338 
L 1581 384 
L 3775 384 
L 3775 1038 
L 4159 1038 
L 4159 0 
L 353 0 
z
" transform="scale(0.015625)"/>
       <path id="DejaVuSerif-52" d="M 3066 2316 
Q 3284 2256 3442 2114 
Q 3600 1972 3725 1716 
L 4403 331 
L 4972 331 
L 4972 0 
L 3872 0 
L 3144 1484 
Q 2934 1916 2759 2042 
Q 2584 2169 2278 2169 
L 1581 2169 
L 1581 331 
L 2241 331 
L 2241 0 
L 353 0 
L 353 331 
L 947 331 
L 947 4331 
L 353 4331 
L 353 4666 
L 2719 4666 
Q 3400 4666 3770 4341 
Q 4141 4016 4141 3419 
Q 4141 2938 3870 2661 
Q 3600 2384 3066 2316 
z
M 1581 2503 
L 2503 2503 
Q 2975 2503 3200 2726 
Q 3425 2950 3425 3419 
Q 3425 3888 3200 4109 
Q 2975 4331 2503 4331 
L 1581 4331 
L 1581 2503 
z
" transform="scale(0.015625)"/>
      </defs>
      <use xlink:href="#DejaVuSerif-4c"/>
      <use xlink:href="#DejaVuSerif-6f" transform="translate(66.40625 0)"/>
      <use xlink:href="#DejaVuSerif-73" transform="translate(126.611328 0)"/>
      <use xlink:href="#DejaVuSerif-73" transform="translate(177.929688 0)"/>
      <use xlink:href="#DejaVuSerif-20" transform="translate(229.248047 0)"/>
      <use xlink:href="#DejaVuSerif-2f" transform="translate(261.035156 0)"/>
      <use xlink:href="#DejaVuSerif-20" transform="translate(294.726562 0)"/>
      <use xlink:href="#DejaVuSerif-45" transform="translate(326.513672 0)"/>
      <use xlink:href="#DejaVuSerif-72" transform="translate(399.511719 0)"/>
      <use xlink:href="#DejaVuSerif-72" transform="translate(447.314453 0)"/>
      <use xlink:href="#DejaVuSerif-6f" transform="translate(495.117188 0)"/>
      <use xlink:href="#DejaVuSerif-72" transform="translate(555.322266 0)"/>
      <use xlink:href="#DejaVuSerif-20" transform="translate(603.125 0)"/>
      <use xlink:href="#DejaVuSerif-52" transform="translate(634.912109 0)"/>
      <use xlink:href="#DejaVuSerif-61" transform="translate(712.455078 0)"/>
      <use xlink:href="#DejaVuSerif-74" transform="translate(772.074219 0)"/>
      <use xlink:href="#DejaVuSerif-65" transform="translate(812.259766 0)"/>
     </g>
    </g>
   </g>
   <g id="patch_3">
    <path d="M 364.693543 383.322307 
L 673.820511 383.322307 
L 673.820511 67.221307 
L 364.693543 67.221307 
z
" clip-path="url(#pb392382798)" style="fill: #2d6a4f; opacity: 0.1; stroke: #2d6a4f; stroke-linejoin: miter"/>
   </g>
   <g id="line2d_43">
    <path d="M 72.293239 81.589534 
L 145.393315 81.589534 
L 218.493391 81.589534 
L 291.593467 81.589534 
L 364.693543 81.589534 
L 437.793619 81.589534 
L 510.893695 81.589534 
L 583.993772 81.589534 
L 657.093848 81.589534 
" clip-path="url(#pb392382798)" style="fill: none; stroke: #808080; stroke-opacity: 0.7; stroke-width: 2; stroke-linecap: round"/>
    <defs>
     <path id="m1ed340cc33" d="M -4 4 
L 4 4 
L 4 -4 
L -4 -4 
z
" style="stroke: #808080; stroke-opacity: 0.7; stroke-linejoin: miter"/>
    </defs>
    <g clip-path="url(#pb392382798)">
     <use xlink:href="#m1ed340cc33" x="72.293239" y="81.589534" style="fill: #808080; fill-opacity: 0.7; stroke: #808080; stroke-opacity: 0.7; stroke-linejoin: miter"/>
     <use xlink:href="#m1ed340cc33" x="145.393315" y="81.589534" style="fill: #808080; fill-opacity: 0.7; stroke: #808080; stroke-opacity: 0.7; stroke-linejoin: miter"/>
     <use xlink:href="#m1ed340cc33" x="218.493391" y="81.589534" style="fill: #808080; fill-opacity: 0.7; stroke: #808080; stroke-opacity: 0.7; stroke-linejoin: miter"/>
     <use xlink:href="#m1ed340cc33" x="291.593467" y="81.589534" style="fill: #808080; fill-opacity: 0.7; stroke: #808080; stroke-opacity: 0.7; stroke-linejoin: miter"/>
     <use xlink:href="#m1ed340cc33" x="364.693543" y="81.589534" style="fill: #808080; fill-opacity: 0.7; stroke: #808080; stroke-opacity: 0.7; stroke-linejoin: miter"/>
     <use xlink:href="#m1ed340cc33" x="437.793619" y="81.589534" style="fill: #808080; fill-opacity: 0.7; stroke: #808080; stroke-opacity: 0.7; stroke-linejoin: miter"/>
     <use xlink:href="#m1ed340cc33" x="510.893695" y="81.589534" style="fill: #808080; fill-opacity: 0.7; stroke: #808080; stroke-opacity: 0.7; stroke-linejoin: miter"/>
     <use xlink:href="#m1ed340cc33" x="583.993772" y="81.589534" style="fill: #808080; fill-opacity: 0.7; stroke: #808080; stroke-opacity: 0.7; stroke-linejoin: miter"/>
     <use xlink:href="#m1ed340cc33" x="657.093848" y="81.589534" style="fill: #808080; fill-opacity: 0.7; stroke: #808080; stroke-opacity: 0.7; stroke-linejoin: miter"/>
    </g>
   </g>
   <g id="line2d_44">
    <path d="M 72.293239 177.377716 
L 145.393315 233.41021 
L 218.493391 273.165898 
L 291.593467 273.165898 
L 364.693543 273.165898 
L 437.793619 273.165898 
L 510.893695 273.165898 
L 583.993772 273.165898 
L 657.093848 273.165898 
" clip-path="url(#pb392382798)" style="fill: none; stroke: #e9c46a; stroke-opacity: 0.9; stroke-width: 2; stroke-linecap: round"/>
    <defs>
     <path id="m053cbee340" d="M 0 -4 
L -4 4 
L 4 4 
z
" style="stroke: #e9c46a; stroke-opacity: 0.9; stroke-linejoin: miter"/>
    </defs>
    <g clip-path="url(#pb392382798)">
     <use xlink:href="#m053cbee340" x="72.293239" y="177.377716" style="fill: #e9c46a; fill-opacity: 0.9; stroke: #e9c46a; stroke-opacity: 0.9; stroke-linejoin: miter"/>
     <use xlink:href="#m053cbee340" x="145.393315" y="233.41021" style="fill: #e9c46a; fill-opacity: 0.9; stroke: #e9c46a; stroke-opacity: 0.9; stroke-linejoin: miter"/>
     <use xlink:href="#m053cbee340" x="218.493391" y="273.165898" style="fill: #e9c46a; fill-opacity: 0.9; stroke: #e9c46a; stroke-opacity: 0.9; stroke-linejoin: miter"/>
     <use xlink:href="#m053cbee340" x="291.593467" y="273.165898" style="fill: #e9c46a; fill-opacity: 0.9; stroke: #e9c46a; stroke-opacity: 0.9; stroke-linejoin: miter"/>
     <use xlink:href="#m053cbee340" x="364.693543" y="273.165898" style="fill: #e9c46a; fill-opacity: 0.9; stroke: #e9c46a; stroke-opacity: 0.9; stroke-linejoin: miter"/>
     <use xlink:href="#m053cbee340" x="437.793619" y="273.165898" style="fill: #e9c46a; fill-opacity: 0.9; stroke: #e9c46a; stroke-opacity: 0.9; stroke-linejoin: miter"/>
     <use xlink:href="#m053cbee340" x="510.893695" y="273.165898" style="fill: #e9c46a; fill-opacity: 0.9; stroke: #e9c46a; stroke-opacity: 0.9; stroke-linejoin: miter"/>
     <use xlink:href="#m053cbee340" x="583.993772" y="273.165898" style="fill: #e9c46a; fill-opacity: 0.9; stroke: #e9c46a; stroke-opacity: 0.9; stroke-linejoin: miter"/>
     <use xlink:href="#m053cbee340" x="657.093848" y="273.165898" style="fill: #e9c46a; fill-opacity: 0.9; stroke: #e9c46a; stroke-opacity: 0.9; stroke-linejoin: miter"/>
    </g>
   </g>
   <g id="line2d_45">
    <path d="M 72.293239 239.640034 
L 145.393315 320.862358 
L 218.493391 368.95408 
L 291.593467 368.95408 
L 364.693543 368.95408 
L 437.793619 368.95408 
L 510.893695 368.95408 
L 583.993772 368.95408 
L 657.093848 368.95408 
" clip-path="url(#pb392382798)" style="fill: none; stroke: #e94560; stroke-width: 3; stroke-linecap: round"/>
    <defs>
     <path id="mcc3cb14e25" d="M 0 5 
C 1.326016 5 2.597899 4.473168 3.535534 3.535534 
C 4.473168 2.597899 5 1.326016 5 0 
C 5 -1.326016 4.473168 -2.597899 3.535534 -3.535534 
C 2.597899 -4.473168 1.326016 -5 0 -5 
C -1.326016 -5 -2.597899 -4.473168 -3.535534 -3.535534 
C -4.473168 -2.597899 -5 -1.326016 -5 0 
C -5 1.326016 -4.473168 2.597899 -3.535534 3.535534 
C -2.597899 4.473168 -1.326016 5 0 5 
z
" style="stroke: #e94560"/>
    </defs>
    <g clip-path="url(#pb392382798)">
     <use xlink:href="#mcc3cb14e25" x="72.293239" y="239.640034" style="fill: #e94560; stroke: #e94560"/>
     <use xlink:href="#mcc3cb14e25" x="145.393315" y="320.862358" style="fill: #e94560; stroke: #e94560"/>
     <use xlink:href="#mcc3cb14e25" x="218.493391" y="368.95408" style="fill: #e94560; stroke: #e94560"/>
     <use xlink:href="#mcc3cb14e25" x="291.593467" y="368.95408" style="fill: #e94560; stroke: #e94560"/>
     <use xlink:href="#mcc3cb14e25" x="364.693543" y="368.95408" style="fill: #e94560; stroke: #e94560"/>
     <use xlink:href="#mcc3cb14e25" x="437.793619" y="368.95408" style="fill: #e94560; stroke: #e94560"/>
     <use xlink:href="#mcc3cb14e25" x="510.893695" y="368.95408" style="fill: #e94560; stroke: #e94560"/>
     <use xlink:href="#mcc3cb14e25" x="583.993772" y="368.95408" style="fill: #e94560; stroke: #e94560"/>
     <use xlink:href="#mcc3cb14e25" x="657.093848" y="368.95408" style="fill: #e94560; stroke: #e94560"/>
    </g>
   </g>
   <g id="patch_4">
    <path d="M 42.216875 383.322307 
L 42.216875 67.221307 
" style="fill: none; stroke: #cccccc; stroke-linejoin: miter; stroke-linecap: square"/>
   </g>
   <g id="patch_5">
    <path d="M 42.216875 383.322307 
L 703.896875 383.322307 
" style="fill: none; stroke: #cccccc; stroke-linejoin: miter; stroke-linecap: square"/>
   </g>
   <g id="patch_6">
    <path d="M 593.172392 221.65865 
Q 552.520795 294.433191 512.41443 366.231658 
" style="fill: none; stroke: #e94560; stroke-linecap: round"/>
    <path d="M 516.111167 363.714887 
L 512.41443 366.231658 
L 512.619055 361.764206 
" style="fill: none; stroke: #e94560; stroke-linecap: round"/>
   </g>
   <g id="text_14">
    <!-- Quality improves -->
    <g style="fill: #e94560" transform="translate(557.959632 204.352989) scale(0.1 -0.1)">
     <defs>
      <path id="DejaVuSerif-51" d="M 2700 -91 
Q 1628 -91 993 567 
Q 359 1225 359 2328 
Q 359 2894 529 3339 
Q 700 3784 1050 4134 
Q 1356 4441 1750 4595 
Q 2144 4750 2625 4750 
Q 3641 4750 4266 4084 
Q 4891 3419 4891 2328 
Q 4891 1403 4422 773 
Q 3953 144 3128 -38 
Q 3297 -247 3539 -347 
Q 3781 -447 4122 -447 
L 4219 -447 
L 4219 -1025 
Q 3691 -1000 3314 -767 
Q 2938 -534 2700 -91 
z
M 2625 244 
Q 3391 244 3781 770 
Q 4172 1297 4172 2328 
Q 4172 3363 3781 3889 
Q 3391 4416 2625 4416 
Q 1856 4416 1465 3889 
Q 1075 3363 1075 2328 
Q 1075 1297 1465 770 
Q 1856 244 2625 244 
z
" transform="scale(0.015625)"/>
      <path id="DejaVuSerif-79" d="M 1381 -609 
L 1600 -56 
L 359 2988 
L -19 2988 
L -19 3322 
L 1509 3322 
L 1509 2988 
L 978 2988 
L 1913 703 
L 2847 2988 
L 2350 2988 
L 2350 3322 
L 3597 3322 
L 3597 2988 
L 3225 2988 
L 1703 -750 
Q 1547 -1138 1356 -1280 
Q 1166 -1422 819 -1422 
Q 672 -1422 517 -1397 
Q 363 -1372 206 -1325 
L 206 -691 
L 500 -691 
Q 519 -903 608 -995 
Q 697 -1088 884 -1088 
Q 1056 -1088 1161 -992 
Q 1266 -897 1381 -609 
z
" transform="scale(0.015625)"/>
     </defs>
     <use xlink:href="#DejaVuSerif-51"/>
     <use xlink:href="#DejaVuSerif-75" transform="translate(81.982422 0)"/>
     <use xlink:href="#DejaVuSerif-61" transform="translate(146.386719 0)"/>
     <use xlink:href="#DejaVuSerif-6c" transform="translate(206.005859 0)"/>
     <use xlink:href="#DejaVuSerif-69" transform="translate(237.988281 0)"/>
     <use xlink:href="#DejaVuSerif-74" transform="translate(269.970703 0)"/>
     <use xlink:href="#DejaVuSerif-79" transform="translate(310.15625 0)"/>
     <use xlink:href="#DejaVuSerif-20" transform="translate(366.650391 0)"/>
     <use xlink:href="#DejaVuSerif-69" transform="translate(398.4375 0)"/>
     <use xlink:href="#DejaVuSerif-6d" transform="translate(430.419922 0)"/>
     <use xlink:href="#DejaVuSerif-70" transform="translate(525.244141 0)"/>
     <use xlink:href="#DejaVuSerif-72" transform="translate(589.257812 0)"/>
     <use xlink:href="#DejaVuSerif-6f" transform="translate(637.060547 0)"/>
     <use xlink:href="#DejaVuSerif-76" transform="translate(697.265625 0)"/>
     <use xlink:href="#DejaVuSerif-65" transform="translate(753.759766 0)"/>
     <use xlink:href="#DejaVuSerif-73" transform="translate(812.939453 0)"/>
    </g>
    <!-- monotonically -->
    <g style="fill: #e94560" transform="translate(557.959632 215.692989) scale(0.1 -0.1)">
     <use xlink:href="#DejaVuSerif-6d"/>
     <use xlink:href="#DejaVuSerif-6f" transform="translate(94.824219 0)"/>
     <use xlink:href="#DejaVuSerif-6e" transform="translate(155.029297 0)"/>
     <use xlink:href="#DejaVuSerif-6f" transform="translate(219.433594 0)"/>
     <use xlink:href="#DejaVuSerif-74" transform="translate(279.638672 0)"/>
     <use xlink:href="#DejaVuSerif-6f" transform="translate(319.824219 0)"/>
     <use xlink:href="#DejaVuSerif-6e" transform="translate(380.029297 0)"/>
     <use xlink:href="#DejaVuSerif-69" transform="translate(444.433594 0)"/>
     <use xlink:href="#DejaVuSerif-63" transform="translate(476.416016 0)"/>
     <use xlink:href="#DejaVuSerif-61" transform="translate(532.421875 0)"/>
     <use xlink:href="#DejaVuSerif-6c" transform="translate(592.041016 0)"/>
     <use xlink:href="#DejaVuSerif-6c" transform="translate(624.023438 0)"/>
     <use xlink:href="#DejaVuSerif-79" transform="translate(656.005859 0)"/>
    </g>
   </g>
   <g id="patch_7">
    <path d="M 575.3068 144.929959 
Q 543.549418 208.153705 512.293874 270.378372 
" style="fill: none; stroke: #e9c46a; stroke-linecap: round"/>
    <path d="M 515.876512 267.701677 
L 512.293874 270.378372 
L 512.3021 265.906244 
" style="fill: none; stroke: #e9c46a; stroke-linecap: round"/>
   </g>
   <g id="text_15">
    <!-- Plateaus -->
    <g style="fill: #e9c46a" transform="translate(557.959632 139.062443) scale(0.1 -0.1)">
     <defs>
      <path id="DejaVuSerif-50" d="M 1581 2375 
L 2406 2375 
Q 2872 2375 3115 2626 
Q 3359 2878 3359 3353 
Q 3359 3831 3115 4081 
Q 2872 4331 2406 4331 
L 1581 4331 
L 1581 2375 
z
M 353 0 
L 353 331 
L 947 331 
L 947 4331 
L 353 4331 
L 353 4666 
L 2559 4666 
Q 3259 4666 3668 4311 
Q 4078 3956 4078 3353 
Q 4078 2753 3668 2397 
Q 3259 2041 2559 2041 
L 1581 2041 
L 1581 331 
L 2303 331 
L 2303 0 
L 353 0 
z
" transform="scale(0.015625)"/>
     </defs>
     <use xlink:href="#DejaVuSerif-50"/>
     <use xlink:href="#DejaVuSerif-6c" transform="translate(67.285156 0)"/>
     <use xlink:href="#DejaVuSerif-61" transform="translate(99.267578 0)"/>
     <use xlink:href="#DejaVuSerif-74" transform="translate(158.886719 0)"/>
     <use xlink:href="#DejaVuSerif-65" transform="translate(199.072266 0)"/>
     <use xlink:href="#DejaVuSerif-61" transform="translate(258.251953 0)"/>
     <use xlink:href="#DejaVuSerif-75" transform="translate(317.871094 0)"/>
     <use xlink:href="#DejaVuSerif-73" transform="translate(382.275391 0)"/>
    </g>
   </g>
   <g id="text_16">
    <!-- Extrapolation -->
    <g style="fill: #2d6a4f" transform="translate(453.827134 14.038594) scale(0.09 -0.09)">
     <defs>
      <path id="DejaVuSerif-78" d="M 1863 2028 
L 2559 2988 
L 2113 2988 
L 2113 3322 
L 3391 3322 
L 3391 2988 
L 2950 2988 
L 2059 1759 
L 3097 331 
L 3531 331 
L 3531 0 
L 1997 0 
L 1997 331 
L 2419 331 
L 1697 1325 
L 972 331 
L 1403 331 
L 1403 0 
L 141 0 
L 141 331 
L 581 331 
L 1497 1594 
L 488 2988 
L 78 2988 
L 78 3322 
L 1563 3322 
L 1563 2988 
L 1166 2988 
L 1863 2028 
z
" transform="scale(0.015625)"/>
     </defs>
     <use xlink:href="#DejaVuSerif-45"/>
     <use xlink:href="#DejaVuSerif-78" transform="translate(72.998047 0)"/>
     <use xlink:href="#DejaVuSerif-74" transform="translate(129.394531 0)"/>
     <use xlink:href="#DejaVuSerif-72" transform="translate(169.580078 0)"/>
     <use xlink:href="#DejaVuSerif-61" transform="translate(217.382812 0)"/>
     <use xlink:href="#DejaVuSerif-70" transform="translate(277.001953 0)"/>
     <use xlink:href="#DejaVuSerif-6f" transform="translate(341.015625 0)"/>
     <use xlink:href="#DejaVuSerif-6c" transform="translate(401.220703 0)"/>
     <use xlink:href="#DejaVuSerif-61" transform="translate(433.203125 0)"/>
     <use xlink:href="#DejaVuSerif-74" transform="translate(492.822266 0)"/>
     <use xlink:href="#DejaVuSerif-69" transform="translate(533.007812 0)"/>
     <use xlink:href="#DejaVuSerif-6f" transform="translate(564.990234 0)"/>
     <use xlink:href="#DejaVuSerif-6e" transform="translate(625.195312 0)"/>
    </g>
    <!-- (beyond training) -->
    <g style="fill: #2d6a4f" transform="translate(445.144946 24.116625) scale(0.09 -0.09)">
     <defs>
      <path id="DejaVuSerif-62" d="M 738 331 
L 738 4531 
L 184 4531 
L 184 4863 
L 1313 4863 
L 1313 2803 
Q 1481 3116 1742 3264 
Q 2003 3413 2388 3413 
Q 3000 3413 3387 2928 
Q 3775 2444 3775 1663 
Q 3775 881 3387 395 
Q 3000 -91 2388 -91 
Q 2003 -91 1742 57 
Q 1481 206 1313 519 
L 1313 0 
L 184 0 
L 184 331 
L 738 331 
z
M 1313 1497 
Q 1313 897 1542 583 
Q 1772 269 2209 269 
Q 2650 269 2876 622 
Q 3103 975 3103 1663 
Q 3103 2353 2876 2703 
Q 2650 3053 2209 3053 
Q 1772 3053 1542 2737 
Q 1313 2422 1313 1825 
L 1313 1497 
z
" transform="scale(0.015625)"/>
      <path id="DejaVuSerif-64" d="M 3359 331 
L 3909 331 
L 3909 0 
L 2784 0 
L 2784 519 
Q 2616 206 2355 57 
Q 2094 -91 1709 -91 
Q 1097 -91 708 395 
Q 319 881 319 1663 
Q 319 2444 706 2928 
Q 1094 3413 1709 3413 
Q 2094 3413 2355 3264 
Q 2616 3116 2784 2803 
L 2784 4531 
L 2241 4531 
L 2241 4863 
L 3359 4863 
L 3359 331 
z
M 2784 1497 
L 2784 1825 
Q 2784 2422 2554 2737 
Q 2325 3053 1888 3053 
Q 1444 3053 1217 2703 
Q 991 2353 991 1663 
Q 991 975 1217 622 
Q 1444 269 1888 269 
Q 2325 269 2554 583 
Q 2784 897 2784 1497 
z
" transform="scale(0.015625)"/>
      <path id="DejaVuSerif-67" d="M 3359 2988 
L 3359 72 
Q 3359 -644 2965 -1033 
Q 2572 -1422 1844 -1422 
Q 1516 -1422 1216 -1362 
Q 916 -1303 641 -1184 
L 641 -488 
L 941 -488 
Q 997 -813 1206 -963 
Q 1416 -1113 1806 -1113 
Q 2313 -1113 2548 -827 
Q 2784 -541 2784 72 
L 2784 519 
Q 2616 206 2355 57 
Q 2094 -91 1709 -91 
Q 1097 -91 708 395 
Q 319 881 319 1663 
Q 319 2444 706 2928 
Q 1094 3413 1709 3413 
Q 2094 3413 2355 3264 
Q 2616 3116 2784 2803 
L 2784 3322 
L 3909 3322 
L 3909 2988 
L 3359 2988 
z
M 2784 1825 
Q 2784 2422 2554 2737 
Q 2325 3053 1888 3053 
Q 1444 3053 1217 2703 
Q 991 2353 991 1663 
Q 991 975 1217 622 
Q 1444 269 1888 269 
Q 2325 269 2554 583 
Q 2784 897 2784 1497 
L 2784 1825 
z
" transform="scale(0.015625)"/>
     </defs>
     <use xlink:href="#DejaVuSerif-28"/>
     <use xlink:href="#DejaVuSerif-62" transform="translate(39.013672 0)"/>
     <use xlink:href="#DejaVuSerif-65" transform="translate(103.027344 0)"/>
     <use xlink:href="#DejaVuSerif-79" transform="translate(162.207031 0)"/>
     <use xlink:href="#DejaVuSerif-6f" transform="translate(218.701172 0)"/>
     <use xlink:href="#DejaVuSerif-6e" transform="translate(278.90625 0)"/>
     <use xlink:href="#DejaVuSerif-64" transform="translate(343.310547 0)"/>
     <use xlink:href="#DejaVuSerif-20" transform="translate(407.324219 0)"/>
     <use xlink:href="#DejaVuSerif-74" transform="translate(439.111328 0)"/>
     <use xlink:href="#DejaVuSerif-72" transform="translate(479.296875 0)"/>
     <use xlink:href="#DejaVuSerif-61" transform="translate(527.099609 0)"/>
     <use xlink:href="#DejaVuSerif-69" transform="translate(586.71875 0)"/>
     <use xlink:href="#DejaVuSerif-6e" transform="translate(618.701172 0)"/>
     <use xlink:href="#DejaVuSerif-69" transform="translate(683.105469 0)"/>
     <use xlink:href="#DejaVuSerif-6e" transform="translate(715.087891 0)"/>
     <use xlink:href="#DejaVuSerif-67" transform="translate(779.492188 0)"/>
     <use xlink:href="#DejaVuSerif-29" transform="translate(843.505859 0)"/>
    </g>
   </g>
   <g id="text_17">
    <!-- Inference-Time Scaling Paradigms -->
    <g style="fill: #262626" transform="translate(238.137344 61.221307) scale(0.14 -0.14)">
     <defs>
      <path id="DejaVuSerif-Bold-49" d="M 300 0 
L 300 378 
L 897 378 
L 897 4288 
L 300 4288 
L 300 4666 
L 2700 4666 
L 2700 4288 
L 2100 4288 
L 2100 378 
L 2700 378 
L 2700 0 
L 300 0 
z
" transform="scale(0.015625)"/>
      <path id="DejaVuSerif-Bold-6e" d="M 219 0 
L 219 378 
L 691 378 
L 691 2944 
L 219 2944 
L 219 3322 
L 1797 3322 
L 1797 2853 
Q 1997 3150 2253 3281 
Q 2509 3413 2900 3413 
Q 3459 3413 3745 3083 
Q 4031 2753 4031 2113 
L 4031 378 
L 4506 378 
L 4506 0 
L 2522 0 
L 2522 378 
L 2925 378 
L 2925 2144 
Q 2925 2566 2817 2730 
Q 2709 2894 2444 2894 
Q 2109 2894 1953 2648 
Q 1797 2403 1797 1869 
L 1797 378 
L 2203 378 
L 2203 0 
L 219 0 
z
" transform="scale(0.015625)"/>
      <path id="DejaVuSerif-Bold-66" d="M 3097 4031 
L 2747 4031 
Q 2722 4275 2605 4394 
Q 2488 4513 2272 4513 
Q 2022 4513 1909 4333 
Q 1797 4153 1797 3750 
L 1797 3322 
L 2631 3322 
L 2631 2944 
L 1797 2944 
L 1797 378 
L 2438 378 
L 2438 0 
L 219 0 
L 219 378 
L 691 378 
L 691 2944 
L 197 2944 
L 197 3322 
L 691 3322 
L 691 3738 
Q 691 4291 1044 4577 
Q 1397 4863 2081 4863 
Q 2347 4863 2600 4833 
Q 2853 4803 3097 4744 
L 3097 4031 
z
" transform="scale(0.015625)"/>
      <path id="DejaVuSerif-Bold-65" d="M 2566 1875 
Q 2566 2531 2444 2795 
Q 2322 3059 2028 3059 
Q 1744 3059 1620 2800 
Q 1497 2541 1497 1931 
L 1497 1875 
L 2566 1875 
z
M 3781 1503 
L 1497 1503 
L 1497 1478 
Q 1497 834 1690 548 
Q 1884 263 2316 263 
Q 2675 263 2897 453 
Q 3119 644 3181 1006 
L 3700 1006 
Q 3566 441 3166 175 
Q 2766 -91 2047 -91 
Q 1184 -91 723 364 
Q 263 819 263 1663 
Q 263 2488 734 2950 
Q 1206 3413 2047 3413 
Q 2872 3413 3312 2927 
Q 3753 2441 3781 1503 
z
" transform="scale(0.015625)"/>
      <path id="DejaVuSerif-Bold-72" d="M 3438 3359 
L 3438 2369 
L 3084 2369 
Q 3066 2634 2941 2764 
Q 2816 2894 2578 2894 
Q 2216 2894 2006 2575 
Q 1797 2256 1797 1691 
L 1797 378 
L 2400 378 
L 2400 0 
L 219 0 
L 219 378 
L 691 378 
L 691 2944 
L 184 2944 
L 184 3322 
L 1797 3322 
L 1797 2731 
Q 1959 3078 2226 3245 
Q 2494 3413 2881 3413 
Q 2978 3413 3117 3398 
Q 3256 3384 3438 3359 
z
" transform="scale(0.015625)"/>
      <path id="DejaVuSerif-Bold-63" d="M 3609 1038 
Q 3491 469 3123 189 
Q 2756 -91 2125 -91 
Q 1238 -91 750 368 
Q 263 828 263 1663 
Q 263 2488 744 2950 
Q 1225 3413 2081 3413 
Q 2428 3413 2781 3347 
Q 3134 3281 3500 3150 
L 3500 2228 
L 3150 2228 
Q 3100 2650 2903 2854 
Q 2706 3059 2350 3059 
Q 1888 3059 1692 2746 
Q 1497 2434 1497 1663 
Q 1497 909 1687 586 
Q 1878 263 2309 263 
Q 2644 263 2845 463 
Q 3047 663 3091 1038 
L 3609 1038 
z
" transform="scale(0.015625)"/>
      <path id="DejaVuSerif-Bold-2d" d="M 347 2138 
L 2309 2138 
L 2309 1294 
L 347 1294 
L 347 2138 
z
" transform="scale(0.015625)"/>
      <path id="DejaVuSerif-Bold-54" d="M 1159 0 
L 1159 378 
L 1778 378 
L 1778 4238 
L 500 4238 
L 500 3500 
L 72 3500 
L 72 4666 
L 4697 4666 
L 4697 3500 
L 4275 3500 
L 4275 4238 
L 2988 4238 
L 2988 378 
L 3609 378 
L 3609 0 
L 1159 0 
z
" transform="scale(0.015625)"/>
      <path id="DejaVuSerif-Bold-69" d="M 588 4263 
Q 588 4516 763 4689 
Q 938 4863 1191 4863 
Q 1438 4863 1611 4689 
Q 1784 4516 1784 4263 
Q 1784 4016 1611 3842 
Q 1438 3669 1191 3669 
Q 938 3669 763 3841 
Q 588 4013 588 4263 
z
M 1797 378 
L 2272 378 
L 2272 0 
L 219 0 
L 219 378 
L 691 378 
L 691 2944 
L 219 2944 
L 219 3322 
L 1797 3322 
L 1797 378 
z
" transform="scale(0.015625)"/>
      <path id="DejaVuSerif-Bold-6d" d="M 3884 2778 
Q 4116 3109 4384 3261 
Q 4653 3413 5013 3413 
Q 5584 3413 5867 3089 
Q 6150 2766 6150 2113 
L 6150 378 
L 6625 378 
L 6625 0 
L 4647 0 
L 4647 378 
L 5044 378 
L 5044 1947 
Q 5044 2569 4948 2731 
Q 4853 2894 4594 2894 
Q 4300 2894 4137 2667 
Q 3975 2441 3975 2022 
L 3975 378 
L 4372 378 
L 4372 0 
L 2472 0 
L 2472 378 
L 2869 378 
L 2869 1947 
Q 2869 2569 2772 2731 
Q 2675 2894 2419 2894 
Q 2122 2894 1959 2667 
Q 1797 2441 1797 2022 
L 1797 378 
L 2194 378 
L 2194 0 
L 219 0 
L 219 378 
L 691 378 
L 691 2944 
L 219 2944 
L 219 3322 
L 1797 3322 
L 1797 2853 
Q 1991 3144 2241 3278 
Q 2491 3413 2834 3413 
Q 3241 3413 3494 3258 
Q 3747 3103 3884 2778 
z
" transform="scale(0.015625)"/>
      <path id="DejaVuSerif-Bold-20" transform="scale(0.015625)"/>
      <path id="DejaVuSerif-Bold-53" d="M 494 225 
L 494 1331 
L 891 1331 
Q 981 806 1318 547 
Q 1656 288 2253 288 
Q 2738 288 2991 472 
Q 3244 656 3244 1013 
Q 3244 1294 3072 1450 
Q 2900 1606 2363 1741 
L 1663 1913 
Q 978 2088 700 2398 
Q 422 2709 422 3284 
Q 422 3978 883 4364 
Q 1344 4750 2175 4750 
Q 2584 4750 3026 4681 
Q 3469 4613 3944 4475 
L 3944 3444 
L 3547 3444 
Q 3456 3925 3150 4148 
Q 2844 4372 2278 4372 
Q 1816 4372 1580 4211 
Q 1344 4050 1344 3731 
Q 1344 3441 1506 3289 
Q 1669 3138 2303 2975 
L 3003 2803 
Q 3653 2641 3945 2297 
Q 4238 1953 4238 1350 
Q 4238 644 3750 276 
Q 3263 -91 2316 -91 
Q 1859 -91 1409 -12 
Q 959 66 494 225 
z
" transform="scale(0.015625)"/>
      <path id="DejaVuSerif-Bold-61" d="M 3525 2041 
L 3525 378 
L 4000 378 
L 4000 0 
L 2419 0 
L 2419 422 
Q 2200 159 1931 34 
Q 1663 -91 1319 -91 
Q 809 -91 536 182 
Q 263 456 263 966 
Q 263 1525 655 1803 
Q 1047 2081 1838 2081 
L 2419 2081 
L 2419 2278 
Q 2419 2681 2228 2873 
Q 2038 3066 1638 3066 
Q 1306 3066 1126 2930 
Q 947 2794 872 2484 
L 519 2484 
L 519 3200 
Q 816 3306 1134 3359 
Q 1453 3413 1806 3413 
Q 2697 3413 3111 3081 
Q 3525 2750 3525 2041 
z
M 2419 1044 
L 2419 1709 
L 2003 1709 
Q 1694 1709 1528 1540 
Q 1363 1372 1363 1056 
Q 1363 741 1483 584 
Q 1603 428 1850 428 
Q 2106 428 2262 597 
Q 2419 766 2419 1044 
z
" transform="scale(0.015625)"/>
      <path id="DejaVuSerif-Bold-6c" d="M 1797 378 
L 2272 378 
L 2272 0 
L 219 0 
L 219 378 
L 691 378 
L 691 4488 
L 219 4488 
L 219 4863 
L 1797 4863 
L 1797 378 
z
" transform="scale(0.015625)"/>
      <path id="DejaVuSerif-Bold-67" d="M 3853 2944 
L 3853 44 
Q 3853 -656 3354 -1039 
Q 2856 -1422 1947 -1422 
Q 1616 -1422 1275 -1370 
Q 934 -1319 575 -1216 
L 575 -422 
L 928 -422 
Q 975 -750 1192 -909 
Q 1409 -1069 1813 -1069 
Q 2325 -1069 2536 -823 
Q 2747 -578 2747 44 
L 2747 422 
Q 2606 163 2367 36 
Q 2128 -91 1778 -91 
Q 1072 -91 667 378 
Q 263 847 263 1663 
Q 263 2481 667 2947 
Q 1072 3413 1778 3413 
Q 2128 3413 2367 3286 
Q 2606 3159 2747 2900 
L 2747 3322 
L 4325 3322 
L 4325 2944 
L 3853 2944 
z
M 2747 1825 
Q 2747 2406 2597 2665 
Q 2447 2925 2119 2925 
Q 1775 2925 1636 2651 
Q 1497 2378 1497 1663 
Q 1497 947 1637 672 
Q 1778 397 2119 397 
Q 2447 397 2597 656 
Q 2747 916 2747 1497 
L 2747 1825 
z
" transform="scale(0.015625)"/>
      <path id="DejaVuSerif-Bold-50" d="M 300 0 
L 300 378 
L 897 378 
L 897 4288 
L 300 4288 
L 300 4666 
L 2956 4666 
Q 3734 4666 4193 4295 
Q 4653 3925 4653 3303 
Q 4653 2678 4192 2304 
Q 3731 1931 2956 1931 
L 2100 1931 
L 2100 378 
L 2853 378 
L 2853 0 
L 300 0 
z
M 2100 2309 
L 2450 2309 
Q 2856 2309 3098 2579 
Q 3341 2850 3341 3303 
Q 3341 3753 3100 4020 
Q 2859 4288 2450 4288 
L 2100 4288 
L 2100 2309 
z
" transform="scale(0.015625)"/>
      <path id="DejaVuSerif-Bold-64" d="M 2747 1497 
L 2747 1825 
Q 2747 2406 2597 2665 
Q 2447 2925 2119 2925 
Q 1775 2925 1636 2651 
Q 1497 2378 1497 1663 
Q 1497 947 1637 672 
Q 1778 397 2119 397 
Q 2447 397 2597 656 
Q 2747 916 2747 1497 
z
M 3853 378 
L 4325 378 
L 4325 0 
L 2747 0 
L 2747 422 
Q 2606 163 2367 36 
Q 2128 -91 1778 -91 
Q 1072 -91 667 378 
Q 263 847 263 1663 
Q 263 2481 667 2947 
Q 1072 3413 1778 3413 
Q 2128 3413 2367 3286 
Q 2606 3159 2747 2900 
L 2747 4488 
L 2272 4488 
L 2272 4863 
L 3853 4863 
L 3853 378 
z
" transform="scale(0.015625)"/>
      <path id="DejaVuSerif-Bold-73" d="M 300 97 
L 300 1025 
L 653 1025 
Q 697 653 931 458 
Q 1166 263 1569 263 
Q 1906 263 2086 380 
Q 2266 497 2266 716 
Q 2266 916 2152 1025 
Q 2038 1134 1709 1216 
L 1253 1331 
Q 738 1459 506 1698 
Q 275 1938 275 2344 
Q 275 2884 650 3148 
Q 1025 3413 1806 3413 
Q 2100 3413 2433 3364 
Q 2766 3316 3169 3213 
L 3169 2375 
L 2816 2375 
Q 2788 2716 2573 2887 
Q 2359 3059 1959 3059 
Q 1622 3059 1448 2951 
Q 1275 2844 1275 2638 
Q 1275 2469 1375 2372 
Q 1475 2275 1734 2209 
L 2188 2094 
Q 2841 1928 3091 1684 
Q 3341 1441 3341 1006 
Q 3341 444 2939 176 
Q 2538 -91 1691 -91 
Q 1381 -91 1034 -44 
Q 688 3 300 97 
z
" transform="scale(0.015625)"/>
     </defs>
     <use xlink:href="#DejaVuSerif-Bold-49"/>
     <use xlink:href="#DejaVuSerif-Bold-6e" transform="translate(46.777344 0)"/>
     <use xlink:href="#DejaVuSerif-Bold-66" transform="translate(119.482422 0)"/>
     <use xlink:href="#DejaVuSerif-Bold-65" transform="translate(162.5 0)"/>
     <use xlink:href="#DejaVuSerif-Bold-72" transform="translate(226.123047 0)"/>
     <use xlink:href="#DejaVuSerif-Bold-65" transform="translate(278.808594 0)"/>
     <use xlink:href="#DejaVuSerif-Bold-6e" transform="translate(342.431641 0)"/>
     <use xlink:href="#DejaVuSerif-Bold-63" transform="translate(415.136719 0)"/>
     <use xlink:href="#DejaVuSerif-Bold-65" transform="translate(476.025391 0)"/>
     <use xlink:href="#DejaVuSerif-Bold-2d" transform="translate(539.648438 0)"/>
     <use xlink:href="#DejaVuSerif-Bold-54" transform="translate(564.652344 0)"/>
     <use xlink:href="#DejaVuSerif-Bold-69" transform="translate(639.066406 0)"/>
     <use xlink:href="#DejaVuSerif-Bold-6d" transform="translate(677.054688 0)"/>
     <use xlink:href="#DejaVuSerif-Bold-65" transform="translate(782.865234 0)"/>
     <use xlink:href="#DejaVuSerif-Bold-20" transform="translate(846.488281 0)"/>
     <use xlink:href="#DejaVuSerif-Bold-53" transform="translate(881.302734 0)"/>
     <use xlink:href="#DejaVuSerif-Bold-63" transform="translate(953.519531 0)"/>
     <use xlink:href="#DejaVuSerif-Bold-61" transform="translate(1014.408203 0)"/>
     <use xlink:href="#DejaVuSerif-Bold-6c" transform="translate(1079.203125 0)"/>
     <use xlink:href="#DejaVuSerif-Bold-69" transform="translate(1117.191406 0)"/>
     <use xlink:href="#DejaVuSerif-Bold-6e" transform="translate(1155.179688 0)"/>
     <use xlink:href="#DejaVuSerif-Bold-67" transform="translate(1227.884766 0)"/>
     <use xlink:href="#DejaVuSerif-Bold-20" transform="translate(1297.806641 0)"/>
     <use xlink:href="#DejaVuSerif-Bold-50" transform="translate(1332.621094 0)"/>
     <use xlink:href="#DejaVuSerif-Bold-61" transform="translate(1405.191406 0)"/>
     <use xlink:href="#DejaVuSerif-Bold-72" transform="translate(1469.986328 0)"/>
     <use xlink:href="#DejaVuSerif-Bold-61" transform="translate(1522.671875 0)"/>
     <use xlink:href="#DejaVuSerif-Bold-64" transform="translate(1587.466797 0)"/>
     <use xlink:href="#DejaVuSerif-Bold-69" transform="translate(1657.388672 0)"/>
     <use xlink:href="#DejaVuSerif-Bold-67" transform="translate(1695.376953 0)"/>
     <use xlink:href="#DejaVuSerif-Bold-6d" transform="translate(1765.298828 0)"/>
     <use xlink:href="#DejaVuSerif-Bold-73" transform="translate(1871.109375 0)"/>
    </g>
   </g>
   <g id="legend_1">
    <g id="line2d_46">
     <path d="M 528.230312 81.629588 
L 539.230312 81.629588 
L 550.230312 81.629588 
" style="fill: none; stroke: #808080; stroke-opacity: 0.7; stroke-width: 2; stroke-linecap: round"/>
     <g>
      <use xlink:href="#m1ed340cc33" x="539.230312" y="81.629588" style="fill: #808080; fill-opacity: 0.7; stroke: #808080; stroke-opacity: 0.7; stroke-linejoin: miter"/>
     </g>
    </g>
    <g id="text_18">
     <!-- Traditional Transformer -->
     <g style="fill: #262626" transform="translate(559.030312 85.479588) scale(0.11 -0.11)">
      <defs>
       <path id="DejaVuSerif-54" d="M 1222 0 
L 1222 331 
L 1819 331 
L 1819 4294 
L 447 4294 
L 447 3566 
L 63 3566 
L 63 4666 
L 4206 4666 
L 4206 3566 
L 3822 3566 
L 3822 4294 
L 2450 4294 
L 2450 331 
L 3047 331 
L 3047 0 
L 1222 0 
z
" transform="scale(0.015625)"/>
      </defs>
      <use xlink:href="#DejaVuSerif-54"/>
      <use xlink:href="#DejaVuSerif-72" transform="translate(66.699219 0)"/>
      <use xlink:href="#DejaVuSerif-61" transform="translate(114.501953 0)"/>
      <use xlink:href="#DejaVuSerif-64" transform="translate(174.121094 0)"/>
      <use xlink:href="#DejaVuSerif-69" transform="translate(238.134766 0)"/>
      <use xlink:href="#DejaVuSerif-74" transform="translate(270.117188 0)"/>
      <use xlink:href="#DejaVuSerif-69" transform="translate(310.302734 0)"/>
      <use xlink:href="#DejaVuSerif-6f" transform="translate(342.285156 0)"/>
      <use xlink:href="#DejaVuSerif-6e" transform="translate(402.490234 0)"/>
      <use xlink:href="#DejaVuSerif-61" transform="translate(466.894531 0)"/>
      <use xlink:href="#DejaVuSerif-6c" transform="translate(526.513672 0)"/>
      <use xlink:href="#DejaVuSerif-20" transform="translate(558.496094 0)"/>
      <use xlink:href="#DejaVuSerif-54" transform="translate(590.283203 0)"/>
      <use xlink:href="#DejaVuSerif-72" transform="translate(656.982422 0)"/>
      <use xlink:href="#DejaVuSerif-61" transform="translate(704.785156 0)"/>
      <use xlink:href="#DejaVuSerif-6e" transform="translate(764.404297 0)"/>
      <use xlink:href="#DejaVuSerif-73" transform="translate(828.808594 0)"/>
      <use xlink:href="#DejaVuSerif-66" transform="translate(880.126953 0)"/>
      <use xlink:href="#DejaVuSerif-6f" transform="translate(917.138672 0)"/>
      <use xlink:href="#DejaVuSerif-72" transform="translate(977.34375 0)"/>
      <use xlink:href="#DejaVuSerif-6d" transform="translate(1025.146484 0)"/>
      <use xlink:href="#DejaVuSerif-65" transform="translate(1119.970703 0)"/>
      <use xlink:href="#DejaVuSerif-72" transform="translate(1179.150391 0)"/>
     </g>
    </g>
    <g id="line2d_47">
     <path d="M 528.230312 97.775526 
L 539.230312 97.775526 
L 550.230312 97.775526 
" style="fill: none; stroke: #e9c46a; stroke-opacity: 0.9; stroke-width: 2; stroke-linecap: round"/>
     <g>
      <use xlink:href="#m053cbee340" x="539.230312" y="97.775526" style="fill: #e9c46a; fill-opacity: 0.9; stroke: #e9c46a; stroke-opacity: 0.9; stroke-linejoin: miter"/>
     </g>
    </g>
    <g id="text_19">
     <!-- Chain-of-Thought -->
     <g style="fill: #262626" transform="translate(559.030312 101.625526) scale(0.11 -0.11)">
      <defs>
       <path id="DejaVuSerif-68" d="M 263 0 
L 263 331 
L 781 331 
L 781 4531 
L 231 4531 
L 231 4863 
L 1356 4863 
L 1356 2731 
Q 1516 3069 1770 3241 
Q 2025 3413 2363 3413 
Q 2913 3413 3172 3097 
Q 3431 2781 3431 2113 
L 3431 331 
L 3944 331 
L 3944 0 
L 2356 0 
L 2356 331 
L 2853 331 
L 2853 1931 
Q 2853 2541 2704 2764 
Q 2556 2988 2175 2988 
Q 1775 2988 1565 2697 
Q 1356 2406 1356 1850 
L 1356 331 
L 1856 331 
L 1856 0 
L 263 0 
z
" transform="scale(0.015625)"/>
       <path id="DejaVuSerif-2d" d="M 281 1959 
L 1881 1959 
L 1881 1472 
L 281 1472 
L 281 1959 
z
" transform="scale(0.015625)"/>
      </defs>
      <use xlink:href="#DejaVuSerif-43"/>
      <use xlink:href="#DejaVuSerif-68" transform="translate(76.513672 0)"/>
      <use xlink:href="#DejaVuSerif-61" transform="translate(140.917969 0)"/>
      <use xlink:href="#DejaVuSerif-69" transform="translate(200.537109 0)"/>
      <use xlink:href="#DejaVuSerif-6e" transform="translate(232.519531 0)"/>
      <use xlink:href="#DejaVuSerif-2d" transform="translate(296.923828 0)"/>
      <use xlink:href="#DejaVuSerif-6f" transform="translate(330.712891 0)"/>
      <use xlink:href="#DejaVuSerif-66" transform="translate(390.917969 0)"/>
      <use xlink:href="#DejaVuSerif-2d" transform="translate(424.304688 0)"/>
      <use xlink:href="#DejaVuSerif-54" transform="translate(454.46875 0)"/>
      <use xlink:href="#DejaVuSerif-68" transform="translate(521.167969 0)"/>
      <use xlink:href="#DejaVuSerif-6f" transform="translate(585.572266 0)"/>
      <use xlink:href="#DejaVuSerif-75" transform="translate(645.777344 0)"/>
      <use xlink:href="#DejaVuSerif-67" transform="translate(710.181641 0)"/>
      <use xlink:href="#DejaVuSerif-68" transform="translate(774.195312 0)"/>
      <use xlink:href="#DejaVuSerif-74" transform="translate(838.599609 0)"/>
     </g>
    </g>
    <g id="line2d_48">
     <path d="M 528.230312 114.077869 
L 539.230312 114.077869 
L 550.230312 114.077869 
" style="fill: none; stroke: #e94560; stroke-width: 3; stroke-linecap: round"/>
     <g>
      <use xlink:href="#mcc3cb14e25" x="539.230312" y="114.077869" style="fill: #e94560; stroke: #e94560"/>
     </g>
    </g>
    <g id="text_20">
     <!-- ISRM (This Work) -->
     <g style="fill: #262626" transform="translate(559.030312 117.927869) scale(0.11 -0.11)">
      <defs>
       <path id="DejaVuSerif-53" d="M 594 225 
L 594 1288 
L 953 1284 
Q 969 753 1261 498 
Q 1553 244 2150 244 
Q 2706 244 2998 464 
Q 3291 684 3291 1106 
Q 3291 1444 3114 1625 
Q 2938 1806 2369 1978 
L 1753 2163 
Q 1084 2366 811 2669 
Q 538 2972 538 3500 
Q 538 4094 959 4422 
Q 1381 4750 2144 4750 
Q 2469 4750 2856 4679 
Q 3244 4609 3681 4475 
L 3681 3481 
L 3328 3481 
Q 3275 3975 2998 4195 
Q 2722 4416 2156 4416 
Q 1663 4416 1405 4214 
Q 1147 4013 1147 3628 
Q 1147 3294 1340 3103 
Q 1534 2913 2163 2725 
L 2741 2553 
Q 3375 2363 3645 2067 
Q 3916 1772 3916 1275 
Q 3916 597 3481 253 
Q 3047 -91 2188 -91 
Q 1803 -91 1404 -12 
Q 1006 66 594 225 
z
" transform="scale(0.015625)"/>
       <path id="DejaVuSerif-4d" d="M 353 0 
L 353 331 
L 947 331 
L 947 4331 
L 319 4331 
L 319 4666 
L 1678 4666 
L 3316 1344 
L 4953 4666 
L 6228 4666 
L 6228 4331 
L 5606 4331 
L 5606 331 
L 6203 331 
L 6203 0 
L 4378 0 
L 4378 331 
L 4972 331 
L 4972 3938 
L 3372 684 
L 2931 684 
L 1331 3938 
L 1331 331 
L 1925 331 
L 1925 0 
L 353 0 
z
" transform="scale(0.015625)"/>
       <path id="DejaVuSerif-57" d="M 4878 0 
L 4366 0 
L 3297 3794 
L 2228 0 
L 1716 0 
L 494 4331 
L 31 4331 
L 31 4666 
L 1734 4666 
L 1734 4331 
L 1153 4331 
L 2125 884 
L 3188 4666 
L 3694 4666 
L 4775 844 
L 5753 4331 
L 5216 4331 
L 5216 4666 
L 6559 4666 
L 6559 4331 
L 6100 4331 
L 4878 0 
z
" transform="scale(0.015625)"/>
       <path id="DejaVuSerif-6b" d="M 1831 0 
L 219 0 
L 219 331 
L 738 331 
L 738 4531 
L 184 4531 
L 184 4863 
L 1313 4863 
L 1313 1697 
L 2713 2988 
L 2234 2988 
L 2234 3322 
L 3738 3322 
L 3738 2988 
L 3169 2988 
L 2181 2075 
L 3444 331 
L 3922 331 
L 3922 0 
L 2284 0 
L 2284 331 
L 2759 331 
L 1766 1697 
L 1313 1275 
L 1313 331 
L 1831 331 
L 1831 0 
z
" transform="scale(0.015625)"/>
      </defs>
      <use xlink:href="#DejaVuSerif-49"/>
      <use xlink:href="#DejaVuSerif-53" transform="translate(39.501953 0)"/>
      <use xlink:href="#DejaVuSerif-52" transform="translate(108.007812 0)"/>
      <use xlink:href="#DejaVuSerif-4d" transform="translate(183.300781 0)"/>
      <use xlink:href="#DejaVuSerif-20" transform="translate(285.693359 0)"/>
      <use xlink:href="#DejaVuSerif-28" transform="translate(317.480469 0)"/>
      <use xlink:href="#DejaVuSerif-54" transform="translate(356.494141 0)"/>
      <use xlink:href="#DejaVuSerif-68" transform="translate(423.193359 0)"/>
      <use xlink:href="#DejaVuSerif-69" transform="translate(487.597656 0)"/>
      <use xlink:href="#DejaVuSerif-73" transform="translate(519.580078 0)"/>
      <use xlink:href="#DejaVuSerif-20" transform="translate(570.898438 0)"/>
      <use xlink:href="#DejaVuSerif-57" transform="translate(602.685547 0)"/>
      <use xlink:href="#DejaVuSerif-6f" transform="translate(698.71875 0)"/>
      <use xlink:href="#DejaVuSerif-72" transform="translate(758.923828 0)"/>
      <use xlink:href="#DejaVuSerif-6b" transform="translate(806.726562 0)"/>
      <use xlink:href="#DejaVuSerif-29" transform="translate(867.322266 0)"/>
     </g>
    </g>
   </g>
  </g>
 </g>
 <defs>
  <clipPath id="pb392382798">
   <rect x="42.216875" y="67.221307" width="661.68" height="316.101"/>
  </clipPath>
 </defs>
</svg>
